<?xml version="1.0" encoding="UTF-8"?>
<svg xmlns="http://www.w3.org/2000/svg" xmlns:xlink="http://www.w3.org/1999/xlink" width="150px" height="150px" viewBox="0 0 150 150" version="1.1">
<g id="surface1">
<path style=" stroke:none;fill-rule:nonzero;fill:rgb(0%,0%,0%);fill-opacity:1;" d="M 23.355469 120.210938 C 21.542969 117.8125 20.730469 115.132812 21.21875 112.261719 C 21.894531 108.277344 24.1875 105.460938 28.007812 103.949219 C 31.5625 102.542969 33.09375 100.257812 33.097656 96.425781 C 33.109375 87.921875 33.105469 79.414062 33.101562 70.910156 C 33.101562 68.570312 33.089844 66.222656 33.503906 63.914062 C 34.207031 59.984375 35.28125 56.167969 36.992188 52.542969 C 39.726562 46.757812 43.515625 41.789062 48.46875 37.71875 C 52.070312 34.757812 56.0625 32.464844 60.445312 30.863281 C 62.09375 30.257812 63.761719 29.707031 65.464844 29.269531 C 65.628906 29.226562 65.777344 29.128906 66.027344 29.011719 C 65.6875 28.214844 65.054688 27.636719 64.730469 26.875 C 63.769531 24.617188 63.046875 22.273438 63.394531 19.824219 C 63.984375 15.742188 66.121094 12.628906 69.820312 10.699219 C 74.265625 8.378906 80.085938 9.285156 83.59375 12.875 C 85.347656 14.671875 86.359375 16.835938 86.753906 19.371094 C 87.332031 23.074219 86.40625 26.300781 84.0625 29.128906 C 81.96875 31.648438 79.15625 32.84375 75.945312 33.03125 C 73.003906 33.203125 70.050781 33.3125 67.175781 33.972656 C 62.085938 35.144531 57.386719 37.230469 53.171875 40.351562 C 47 44.925781 42.660156 50.847656 40.101562 58.078125 C 38.761719 61.863281 38.027344 65.742188 38.042969 69.777344 C 38.074219 78.859375 38.132812 87.945312 38.011719 97.027344 C 37.945312 102.097656 35.578125 105.90625 30.917969 108.148438 C 30.527344 108.335938 30.128906 108.511719 29.71875 108.644531 C 27.132812 109.476562 25.761719 112.382812 26.121094 114.535156 C 26.59375 117.378906 28.855469 119.234375 31.8125 119.242188 C 37.597656 119.257812 43.382812 119.238281 49.167969 119.242188 C 50.496094 119.242188 51.347656 119.8125 51.71875 120.90625 C 52.269531 122.527344 51.15625 124.148438 49.414062 124.171875 C 46.8125 124.203125 44.207031 124.179688 41.605469 124.179688 C 38.25 124.179688 34.894531 124.191406 31.539062 124.175781 C 28.207031 124.160156 25.503906 122.824219 23.355469 120.210938 M 78.882812 15.46875 C 77.097656 14.398438 75.160156 14.226562 73.199219 14.71875 C 69.621094 15.613281 67.71875 19.390625 68.488281 22.828125 C 69.429688 27.046875 73.503906 28.804688 77.167969 27.800781 C 80.050781 27.011719 81.71875 24.941406 82.023438 22.003906 C 82.304688 19.324219 81.316406 17.070312 78.882812 15.46875 Z M 78.882812 15.46875 "/>
<path style=" stroke:none;fill-rule:nonzero;fill:rgb(0%,0%,0%);fill-opacity:1;" d="M 115.765625 105.589844 C 113.660156 103.425781 112.628906 100.835938 112.324219 97.941406 C 112.089844 95.738281 113.859375 94.257812 115.785156 95.003906 C 116.597656 95.316406 117.117188 95.910156 117.222656 96.800781 C 117.390625 98.207031 117.527344 99.609375 118.316406 100.855469 C 119.355469 102.5 120.898438 103.417969 122.660156 104.125 C 126.0625 105.492188 128.101562 107.957031 128.933594 111.605469 C 130.042969 116.472656 126.984375 121.949219 122.707031 123.46875 C 121.503906 123.894531 120.269531 124.175781 118.980469 124.175781 C 110.328125 124.175781 101.675781 124.175781 93.027344 124.179688 C 91.84375 124.179688 91.832031 124.023438 91.65625 125.402344 C 90.875 131.546875 88.183594 137.816406 79.972656 140.203125 C 71.496094 142.664062 62.113281 138.273438 59.390625 129.308594 C 58.605469 126.714844 58.558594 124.078125 58.660156 121.417969 C 58.699219 120.359375 59.71875 119.386719 60.828125 119.269531 C 61.199219 119.230469 61.578125 119.246094 61.953125 119.246094 C 80.730469 119.246094 99.507812 119.25 118.289062 119.25 C 120.964844 119.25 123.03125 117.949219 123.863281 115.761719 C 124.949219 112.917969 123.6875 109.878906 120.863281 108.742188 C 118.988281 107.988281 117.238281 107.089844 115.765625 105.589844 M 78.539062 135.390625 C 83.753906 133.90625 86.234375 129.796875 86.757812 125.039062 C 86.828125 124.398438 86.574219 124.171875 85.933594 124.171875 C 78.738281 124.183594 71.542969 124.183594 64.347656 124.167969 C 63.710938 124.167969 63.484375 124.441406 63.601562 125.007812 C 63.847656 126.1875 64 127.375 64.386719 128.535156 C 66.34375 134.390625 72.898438 136.960938 78.539062 135.390625 Z M 78.539062 135.390625 "/>
<path style=" stroke:none;fill-rule:nonzero;fill:rgb(0%,0%,0%);fill-opacity:1;" d="M 83.078125 72.109375 C 82.714844 73.660156 82.867188 75.175781 82.6875 76.667969 C 82.230469 80.398438 78.632812 83.835938 74.199219 83.257812 C 70.601562 82.789062 67.910156 79.554688 67.683594 76.699219 C 67.414062 73.277344 67.101562 69.859375 66.824219 66.441406 C 66.625 63.96875 66.230469 61.503906 66.285156 59.015625 C 66.367188 55.269531 68.203125 52.589844 71.542969 51.023438 C 76.128906 48.867188 81.582031 51.492188 83.457031 55.714844 C 84.296875 57.609375 84.195312 59.621094 83.96875 61.597656 C 83.769531 63.320312 83.660156 65.046875 83.515625 66.769531 C 83.363281 68.523438 83.234375 70.277344 83.078125 72.109375 M 76.175781 55.4375 C 75.917969 55.421875 75.65625 55.394531 75.398438 55.390625 C 72.660156 55.359375 71.136719 56.800781 71.226562 59.515625 C 71.292969 61.445312 71.566406 63.367188 71.726562 65.292969 C 72.03125 68.945312 72.316406 72.597656 72.625 76.25 C 72.722656 77.402344 73.765625 78.242188 75.050781 78.265625 C 76.488281 78.292969 77.5625 77.511719 77.71875 76.3125 C 77.804688 75.65625 77.878906 74.996094 77.933594 74.335938 C 78.105469 72.351562 78.265625 70.367188 78.425781 68.382812 C 78.667969 65.390625 78.964844 62.402344 79.121094 59.40625 C 79.230469 57.265625 78.371094 56.183594 76.175781 55.4375 Z M 76.175781 55.4375 "/>
<path style=" stroke:none;fill-rule:nonzero;fill:rgb(0%,0%,0%);fill-opacity:1;" d="M 97.363281 40.488281 C 95.285156 38.894531 93.058594 37.671875 90.773438 36.542969 C 89.835938 36.078125 89.230469 35.351562 89.289062 34.300781 C 89.347656 33.1875 89.925781 32.355469 91.011719 31.90625 C 91.570312 31.671875 92.0625 31.730469 92.59375 31.960938 C 95.878906 33.382812 98.878906 35.285156 101.644531 37.539062 C 107.574219 42.371094 111.882812 48.394531 114.601562 55.546875 C 115.753906 58.574219 116.464844 61.695312 116.949219 64.902344 C 117.242188 66.84375 117.203125 68.761719 117.234375 70.6875 C 117.308594 75.195312 117.140625 79.707031 117.335938 84.21875 C 117.355469 84.679688 117.355469 85.148438 117.300781 85.605469 C 117.109375 87.117188 116.078125 88.0625 114.722656 88.003906 C 113.363281 87.945312 112.332031 86.816406 112.300781 85.324219 C 112.28125 84.429688 112.296875 83.53125 112.296875 82.636719 C 112.296875 78.09375 112.285156 73.554688 112.296875 69.011719 C 112.304688 65.453125 111.566406 62.015625 110.472656 58.667969 C 108.945312 53.980469 106.542969 49.746094 103.304688 46.011719 C 101.535156 43.972656 99.59375 42.117188 97.363281 40.488281 Z M 97.363281 40.488281 "/>
<path style=" stroke:none;fill-rule:nonzero;fill:rgb(0%,0%,0%);fill-opacity:1;" d="M 74.4375 87.769531 C 77.890625 87.542969 81.019531 89.394531 81.980469 92.910156 C 82.777344 95.808594 82.039062 98.332031 79.882812 100.316406 C 76.164062 103.734375 69.472656 101.980469 68.253906 96.570312 C 67.457031 93.046875 69.730469 89.011719 72.769531 88.152344 C 73.292969 88.003906 73.832031 87.90625 74.4375 87.769531 M 73.382812 93.628906 C 73.308594 93.785156 73.214844 93.933594 73.15625 94.09375 C 72.726562 95.226562 73.203125 96.554688 74.269531 96.890625 C 75.558594 97.292969 76.699219 97.042969 77.234375 95.628906 C 77.570312 94.742188 77.214844 93.617188 76.441406 93.109375 C 75.503906 92.496094 74.382812 92.652344 73.382812 93.628906 Z M 73.382812 93.628906 "/>
<path style=" stroke:none;fill-rule:nonzero;fill:rgb(0%,0%,0%);fill-opacity:1;" d="M 138.507812 71.03125 C 137.921875 72.320312 136.941406 72.796875 135.625 72.785156 C 132.734375 72.753906 129.84375 72.769531 126.953125 72.769531 C 125.800781 72.769531 124.9375 72.285156 124.445312 71.242188 C 124.070312 70.445312 124.222656 69.65625 124.683594 68.9375 C 125.199219 68.140625 126.015625 67.871094 126.90625 67.765625 C 127.859375 67.652344 128.808594 67.8125 129.761719 67.808594 C 131.726562 67.792969 133.691406 67.761719 135.65625 67.722656 C 137.21875 67.695312 138.980469 68.90625 138.507812 71.03125 Z M 138.507812 71.03125 "/>
<path style=" stroke:none;fill-rule:nonzero;fill:rgb(0%,0%,0%);fill-opacity:1;" d="M 115.234375 26.695312 C 115.964844 26.039062 116.488281 25.25 117.382812 24.878906 C 118.269531 24.507812 119.316406 24.757812 120.042969 25.550781 C 120.773438 26.347656 120.941406 27.507812 120.4375 28.339844 C 119.90625 29.21875 119.097656 29.851562 118.402344 30.574219 C 116.835938 32.195312 115.183594 33.730469 113.628906 35.359375 C 111.789062 37.289062 109.648438 36.015625 109.175781 34.28125 C 108.902344 33.273438 109.425781 32.542969 110.054688 31.894531 C 111.585938 30.320312 113.152344 28.78125 114.703125 27.226562 C 114.863281 27.0625 115.027344 26.902344 115.234375 26.695312 Z M 115.234375 26.695312 "/>
<path style=" stroke:none;fill-rule:nonzero;fill:rgb(0%,0%,0%);fill-opacity:1;" d="M 33.128906 24.980469 C 33.46875 25.207031 33.78125 25.382812 34.023438 25.621094 C 36.132812 27.714844 38.25 29.804688 40.328125 31.929688 C 41.5625 33.191406 41.445312 34.847656 40.132812 35.84375 C 39.199219 36.558594 38.03125 36.570312 37.132812 35.695312 C 34.792969 33.421875 32.488281 31.113281 30.222656 28.765625 C 29.382812 27.894531 29.421875 26.617188 30.144531 25.671875 C 30.832031 24.773438 32 24.488281 33.128906 24.980469 Z M 33.128906 24.980469 "/>
<path style=" stroke:none;fill-rule:nonzero;fill:rgb(0%,0%,0%);fill-opacity:1;" d="M 13.628906 67.921875 C 14.257812 67.710938 14.839844 67.816406 15.414062 67.8125 C 17.898438 67.785156 20.386719 67.894531 22.871094 67.738281 C 23.953125 67.671875 24.976562 67.910156 25.628906 68.863281 C 26.773438 70.53125 25.730469 72.671875 23.652344 72.738281 C 20.503906 72.835938 17.351562 72.792969 14.203125 72.742188 C 12.914062 72.722656 11.917969 71.785156 11.777344 70.671875 C 11.625 69.429688 12.277344 68.433594 13.628906 67.921875 Z M 13.628906 67.921875 "/>
</g>
</svg>
