<?xml version="1.0" encoding="UTF-8"?>
<svg xmlns="http://www.w3.org/2000/svg" xmlns:xlink="http://www.w3.org/1999/xlink" width="150px" height="150px" viewBox="0 0 150 150" version="1.1">
<g id="surface1">
<path style=" stroke:none;fill-rule:nonzero;fill:rgb(99.607843%,99.607843%,99.607843%);fill-opacity:1;" d="M 150.171875 67.1875 C 150.171875 94.839844 150.171875 122.488281 150.171875 150.171875 C 117.703125 150.171875 85.234375 150.171875 52.675781 150.125 C 52.609375 150.019531 52.632812 149.960938 52.703125 149.894531 C 52.820312 149.878906 52.886719 149.871094 53 149.894531 C 53.429688 149.828125 53.84375 149.792969 54.1875 149.617188 C 55.304688 149.03125 56.394531 148.398438 57.527344 147.765625 C 57.554688 147.746094 57.605469 147.699219 57.664062 147.699219 C 57.875 147.550781 58.027344 147.398438 58.171875 147.234375 C 58.164062 147.222656 58.183594 147.242188 58.242188 147.246094 C 58.472656 147.058594 58.648438 146.867188 58.824219 146.679688 C 58.832031 146.683594 58.828125 146.667969 58.886719 146.671875 C 59.074219 146.5 59.207031 146.324219 59.34375 146.152344 C 59.347656 146.152344 59.34375 146.140625 59.402344 146.136719 C 59.609375 145.921875 59.757812 145.710938 59.902344 145.492188 C 59.894531 145.484375 59.90625 145.496094 59.960938 145.488281 C 60.082031 145.359375 60.144531 145.234375 60.222656 145.082031 C 60.238281 145.050781 60.269531 144.988281 60.328125 144.984375 C 60.515625 144.746094 60.644531 144.511719 60.792969 144.246094 C 60.808594 144.214844 60.832031 144.144531 60.890625 144.132812 C 61.378906 143.050781 61.8125 141.988281 62.253906 140.875 C 62.273438 140.757812 62.28125 140.691406 62.339844 140.585938 C 62.4375 140.167969 62.492188 139.789062 62.554688 139.339844 C 62.578125 139.050781 62.589844 138.824219 62.652344 138.554688 C 62.734375 137.527344 62.769531 136.546875 62.800781 135.566406 C 62.847656 134.25 62.894531 132.933594 62.941406 131.617188 C 64.234375 131.578125 65.527344 131.515625 66.820312 131.511719 C 72.515625 131.496094 78.214844 131.511719 83.910156 131.484375 C 84.546875 131.480469 85.183594 131.273438 85.875 131.15625 C 86.050781 131.136719 86.167969 131.125 86.328125 131.144531 C 86.632812 131.074219 86.890625 130.972656 87.203125 130.863281 C 87.320312 130.84375 87.386719 130.832031 87.519531 130.847656 C 88.730469 130.382812 89.875 129.890625 91.0625 129.386719 C 91.167969 129.34375 91.226562 129.316406 91.34375 129.292969 C 91.789062 129.03125 92.171875 128.761719 92.597656 128.476562 C 92.714844 128.390625 92.785156 128.328125 92.917969 128.277344 C 93.363281 127.957031 93.746094 127.625 94.167969 127.265625 C 94.273438 127.164062 94.339844 127.097656 94.46875 127.039062 C 94.976562 126.554688 95.421875 126.058594 95.871094 125.558594 C 95.867188 125.554688 95.882812 125.554688 95.933594 125.554688 C 96.0625 125.433594 96.132812 125.316406 96.195312 125.191406 C 96.183594 125.179688 96.207031 125.195312 96.265625 125.1875 C 96.890625 124.292969 97.457031 123.410156 98.039062 122.492188 C 98.054688 122.457031 98.082031 122.386719 98.140625 122.375 C 98.714844 120.914062 99.234375 119.460938 99.761719 117.960938 C 99.78125 117.84375 99.789062 117.773438 99.84375 117.667969 C 99.941406 117.1875 99.996094 116.753906 100.054688 116.25 C 100.074219 115.957031 100.085938 115.734375 100.144531 115.464844 C 100.226562 114.988281 100.292969 114.558594 100.292969 114.128906 C 100.300781 104.894531 100.300781 95.664062 100.292969 86.429688 C 100.292969 86.074219 100.160156 85.71875 100.085938 85.3125 C 100.070312 85.199219 100.0625 85.132812 100.085938 85.023438 C 99.730469 84.320312 99.339844 83.660156 98.953125 82.992188 C 98.957031 82.988281 98.945312 82.996094 98.949219 82.9375 C 98.773438 82.75 98.597656 82.621094 98.421875 82.480469 C 98.425781 82.46875 98.414062 82.484375 98.40625 82.425781 C 97.738281 82.039062 97.105469 81.621094 96.414062 81.398438 C 95.011719 80.945312 92.949219 81.679688 92.183594 82.808594 C 92.1875 82.8125 92.179688 82.804688 92.121094 82.804688 C 91.035156 83.785156 90.65625 85.011719 90.65625 86.394531 C 90.660156 95.699219 90.65625 105.003906 90.660156 114.308594 C 90.660156 114.535156 90.710938 114.761719 90.730469 115.050781 C 90.707031 115.285156 90.691406 115.457031 90.632812 115.660156 C 90.539062 115.960938 90.488281 116.226562 90.425781 116.542969 C 90.402344 116.65625 90.390625 116.722656 90.320312 116.808594 C 89.820312 117.652344 89.371094 118.472656 88.917969 119.296875 C 88.914062 119.296875 88.917969 119.308594 88.863281 119.3125 C 88.738281 119.429688 88.667969 119.542969 88.558594 119.695312 C 88.363281 119.878906 88.207031 120.027344 87.992188 120.175781 C 87.671875 120.398438 87.417969 120.617188 87.125 120.855469 C 87.089844 120.871094 87.019531 120.898438 86.957031 120.886719 C 86.34375 121.160156 85.792969 121.441406 85.195312 121.734375 C 85.074219 121.753906 85.007812 121.765625 84.867188 121.753906 C 83.988281 121.808594 83.183594 121.953125 82.382812 121.957031 C 76.21875 121.972656 70.058594 121.949219 63.894531 121.984375 C 63.019531 121.992188 62.777344 121.765625 62.78125 120.878906 C 62.816406 110.957031 62.800781 101.035156 62.800781 91.109375 C 62.800781 69.414062 62.804688 47.71875 62.792969 26.019531 C 62.792969 25.371094 62.667969 24.722656 62.597656 24.003906 C 62.574219 23.714844 62.554688 23.488281 62.570312 23.222656 C 62.503906 22.859375 62.402344 22.542969 62.289062 22.171875 C 62.273438 22.054688 62.257812 21.988281 62.273438 21.855469 C 61.808594 20.757812 61.324219 19.726562 60.816406 18.644531 C 60.597656 18.304688 60.402344 18.019531 60.214844 17.679688 C 60.015625 17.40625 59.804688 17.191406 59.5625 16.933594 C 59.40625 16.769531 59.285156 16.644531 59.167969 16.464844 C 59.058594 16.332031 58.941406 16.257812 58.792969 16.140625 C 58.632812 15.984375 58.503906 15.863281 58.367188 15.6875 C 58.109375 15.464844 57.863281 15.296875 57.570312 15.105469 C 57.382812 14.976562 57.238281 14.878906 57.082031 14.722656 C 55.78125 13.722656 54.359375 13.085938 52.730469 12.800781 C 52.617188 12.773438 52.554688 12.761719 52.460938 12.695312 C 51.660156 12.40625 50.886719 12.167969 50.066406 11.917969 C 49.953125 11.890625 49.886719 11.875 49.796875 11.804688 C 49.015625 11.515625 48.261719 11.285156 47.460938 11.042969 C 47.351562 11.015625 47.285156 11.003906 47.1875 10.9375 C 46.246094 10.550781 45.339844 10.214844 44.433594 9.882812 C 44.453125 9.800781 44.472656 9.714844 44.492188 9.632812 C 44.832031 9.632812 45.167969 9.632812 45.507812 9.632812 C 57.765625 9.632812 70.019531 9.628906 82.277344 9.640625 C 83.164062 9.640625 84.054688 9.757812 84.992188 9.832031 C 85.109375 9.851562 85.175781 9.859375 85.273438 9.921875 C 85.878906 10.214844 86.449219 10.457031 87.054688 10.714844 C 87.089844 10.730469 87.160156 10.757812 87.167969 10.816406 C 87.464844 11.054688 87.757812 11.238281 88.082031 11.464844 C 88.277344 11.648438 88.4375 11.792969 88.59375 11.996094 C 88.699219 12.128906 88.808594 12.210938 88.914062 12.296875 C 88.914062 12.300781 88.925781 12.300781 88.917969 12.359375 C 89.402344 13.21875 89.890625 14.011719 90.386719 14.859375 C 90.410156 14.972656 90.425781 15.039062 90.40625 15.144531 C 90.472656 15.449219 90.574219 15.707031 90.683594 16.035156 C 90.703125 16.269531 90.722656 16.441406 90.703125 16.691406 C 90.664062 26.359375 90.640625 35.949219 90.679688 45.535156 C 90.6875 47.597656 91.773438 49.089844 93.664062 49.917969 C 95.433594 50.691406 97.445312 50.316406 98.421875 49.121094 C 98.429688 49.128906 98.417969 49.109375 98.476562 49.117188 C 98.621094 49.011719 98.707031 48.902344 98.824219 48.765625 C 98.890625 48.695312 98.921875 48.648438 99.007812 48.597656 C 99.398438 47.902344 99.726562 47.214844 100.0625 46.476562 C 100.074219 46.363281 100.082031 46.300781 100.136719 46.191406 C 100.226562 45.832031 100.296875 45.519531 100.296875 45.203125 C 100.300781 35.945312 100.300781 26.6875 100.289062 17.425781 C 100.289062 16.980469 100.164062 16.535156 100.097656 16.019531 C 100.078125 15.726562 100.0625 15.503906 100.085938 15.226562 C 100.011719 14.75 99.90625 14.320312 99.792969 13.839844 C 99.773438 13.71875 99.761719 13.652344 99.777344 13.515625 C 99.71875 13.082031 99.683594 12.695312 99.539062 12.359375 C 99.074219 11.300781 98.570312 10.261719 98.066406 9.175781 C 98.050781 9.140625 98.023438 9.070312 98.039062 9.007812 C 97.4375 8.097656 96.824219 7.25 96.195312 6.410156 C 96.183594 6.417969 96.203125 6.398438 96.207031 6.34375 C 96.097656 6.207031 95.988281 6.125 95.875 6.042969 C 95.867188 6.042969 95.867188 6.03125 95.871094 5.972656 C 95.382812 5.464844 94.894531 5.015625 94.371094 4.535156 C 94.261719 4.441406 94.195312 4.371094 94.121094 4.246094 C 93.695312 3.902344 93.277344 3.617188 92.820312 3.300781 C 92.707031 3.210938 92.632812 3.15625 92.542969 3.046875 C 92.113281 2.761719 91.699219 2.535156 91.242188 2.285156 C 91.136719 2.238281 91.078125 2.214844 91.003906 2.136719 C 89.8125 1.644531 88.632812 1.210938 87.402344 0.769531 C 87.285156 0.75 87.21875 0.738281 87.125 0.679688 C 86.824219 0.59375 86.554688 0.558594 86.21875 0.523438 C 85.851562 0.40625 85.546875 0.289062 85.242188 0.171875 C 106.875 0.171875 128.503906 0.171875 150.171875 0.171875 C 150.171875 21.53125 150.171875 42.890625 150.113281 64.316406 C 149.597656 63.699219 149.238281 62.917969 148.671875 62.335938 C 146.582031 60.179688 144.421875 58.09375 142.296875 55.972656 C 136.71875 50.398438 131.148438 44.820312 125.566406 39.25 C 123.9375 37.617188 121.890625 37.21875 120.03125 38.132812 C 117.007812 39.617188 116.441406 43.367188 118.894531 45.828125 C 123.707031 50.65625 128.535156 55.464844 133.355469 60.285156 C 133.566406 60.5 133.761719 60.730469 134.109375 61.109375 C 133.570312 61.109375 133.238281 61.109375 132.902344 61.109375 C 117.570312 61.109375 102.238281 61.109375 86.90625 61.109375 C 86.5 61.109375 86.09375 61.101562 85.691406 61.128906 C 82.996094 61.308594 80.960938 64.003906 81.515625 66.640625 C 82.019531 69.027344 83.839844 70.484375 86.355469 70.484375 C 101.863281 70.488281 117.367188 70.488281 132.871094 70.488281 C 133.207031 70.488281 133.539062 70.488281 134.121094 70.488281 C 133.71875 70.914062 133.496094 71.15625 133.261719 71.390625 C 128.484375 76.167969 123.710938 80.953125 118.925781 85.722656 C 117.617188 87.03125 117.027344 88.574219 117.515625 90.375 C 118.496094 94 122.707031 95.128906 125.398438 92.484375 C 128.863281 89.085938 132.339844 85.703125 135.691406 82.195312 C 140.492188 77.167969 145.894531 72.71875 150.171875 67.1875 Z M 150.171875 67.1875 "/>
<path style=" stroke:none;fill-rule:nonzero;fill:rgb(0.784314%,0.784314%,0.784314%);fill-opacity:1;" d="M 87.152344 0.730469 C 87.21875 0.738281 87.285156 0.75 87.429688 0.820312 C 88.679688 1.320312 89.847656 1.757812 91.019531 2.195312 C 91.078125 2.214844 91.136719 2.238281 91.246094 2.34375 C 91.714844 2.652344 92.132812 2.878906 92.554688 3.101562 C 92.632812 3.15625 92.707031 3.210938 92.832031 3.355469 C 93.292969 3.730469 93.710938 4.015625 94.128906 4.304688 C 94.195312 4.371094 94.261719 4.441406 94.375 4.59375 C 94.902344 5.132812 95.386719 5.582031 95.867188 6.03125 C 95.867188 6.03125 95.867188 6.042969 95.871094 6.097656 C 95.980469 6.234375 96.09375 6.316406 96.203125 6.398438 C 96.203125 6.398438 96.183594 6.417969 96.191406 6.46875 C 96.804688 7.371094 97.414062 8.222656 98.023438 9.070312 C 98.023438 9.070312 98.050781 9.140625 98.054688 9.242188 C 98.335938 10 98.617188 10.652344 98.882812 11.316406 C 99.179688 12.070312 99.460938 12.828125 99.753906 13.585938 C 99.761719 13.652344 99.773438 13.71875 99.753906 13.886719 C 99.832031 14.417969 99.941406 14.847656 100.046875 15.277344 C 100.0625 15.503906 100.078125 15.726562 100.0625 16.097656 C 100.027344 26.128906 100.019531 36.015625 100.019531 45.898438 C 100.019531 46.011719 100.066406 46.125 100.089844 46.234375 C 100.082031 46.300781 100.074219 46.363281 100.011719 46.515625 C 99.621094 47.265625 99.285156 47.933594 98.949219 48.601562 C 98.921875 48.648438 98.890625 48.695312 98.769531 48.757812 C 98.59375 48.890625 98.507812 49 98.417969 49.109375 C 98.417969 49.109375 98.429688 49.128906 98.359375 49.121094 C 96.597656 50.222656 94.84375 50.398438 93.085938 49.332031 C 91.507812 48.375 90.929688 46.882812 90.933594 45.074219 C 90.953125 36.03125 90.945312 26.984375 90.933594 17.941406 C 90.933594 17.5 90.804688 17.054688 90.738281 16.613281 C 90.722656 16.441406 90.703125 16.269531 90.71875 15.992188 C 90.648438 15.625 90.542969 15.363281 90.4375 15.105469 C 90.425781 15.039062 90.410156 14.972656 90.410156 14.792969 C 89.921875 13.886719 89.425781 13.09375 88.925781 12.300781 C 88.925781 12.300781 88.914062 12.300781 88.917969 12.242188 C 88.816406 12.101562 88.707031 12.019531 88.597656 11.941406 C 88.4375 11.792969 88.277344 11.648438 88.078125 11.40625 C 87.746094 11.125 87.453125 10.941406 87.160156 10.757812 C 87.160156 10.757812 87.089844 10.730469 87.042969 10.65625 C 86.410156 10.34375 85.828125 10.109375 85.242188 9.871094 C 85.175781 9.859375 85.109375 9.851562 84.960938 9.773438 C 84.34375 9.625 83.804688 9.46875 83.269531 9.464844 C 70.257812 9.449219 57.246094 9.449219 44.234375 9.457031 C 43.917969 9.457031 43.597656 9.535156 43.28125 9.578125 C 43.273438 9.667969 43.269531 9.757812 43.261719 9.847656 C 44.582031 10.230469 45.902344 10.609375 47.21875 10.992188 C 47.285156 11.003906 47.351562 11.015625 47.484375 11.097656 C 48.3125 11.394531 49.066406 11.628906 49.824219 11.859375 C 49.886719 11.875 49.953125 11.890625 50.089844 11.96875 C 50.9375 12.273438 51.714844 12.511719 52.488281 12.75 C 52.554688 12.761719 52.617188 12.773438 52.757812 12.855469 C 54.253906 13.542969 55.671875 14.160156 57.09375 14.777344 C 57.238281 14.878906 57.382812 14.976562 57.578125 15.164062 C 57.875 15.414062 58.125 15.578125 58.375 15.746094 C 58.503906 15.863281 58.632812 15.984375 58.792969 16.195312 C 58.941406 16.367188 59.054688 16.441406 59.167969 16.519531 C 59.285156 16.644531 59.40625 16.769531 59.550781 16.992188 C 59.785156 17.304688 59.996094 17.519531 60.207031 17.738281 C 60.402344 18.019531 60.597656 18.304688 60.800781 18.707031 C 61.285156 19.855469 61.765625 20.886719 62.246094 21.921875 C 62.257812 21.988281 62.273438 22.054688 62.253906 22.21875 C 62.328125 22.628906 62.429688 22.945312 62.535156 23.265625 C 62.554688 23.488281 62.574219 23.714844 62.5625 24.085938 C 62.523438 24.347656 62.515625 24.460938 62.515625 24.578125 C 62.519531 49.15625 62.523438 73.734375 62.523438 98.316406 C 62.523438 105.949219 62.53125 113.582031 62.511719 121.21875 C 62.511719 121.859375 62.644531 122.160156 63.355469 122.15625 C 70.066406 122.136719 76.773438 122.148438 83.484375 122.125 C 83.96875 122.121094 84.453125 121.898438 84.941406 121.777344 C 85.007812 121.765625 85.074219 121.753906 85.234375 121.769531 C 85.890625 121.5 86.457031 121.199219 87.019531 120.898438 C 87.019531 120.898438 87.089844 120.871094 87.183594 120.863281 C 87.535156 120.632812 87.792969 120.40625 88.050781 120.175781 C 88.207031 120.027344 88.363281 119.878906 88.613281 119.691406 C 88.777344 119.539062 88.847656 119.421875 88.917969 119.308594 C 88.917969 119.308594 88.914062 119.296875 88.976562 119.292969 C 89.488281 118.453125 89.933594 117.621094 90.375 116.789062 C 90.390625 116.722656 90.402344 116.65625 90.476562 116.515625 C 90.585938 116.167969 90.632812 115.898438 90.679688 115.625 C 90.691406 115.457031 90.707031 115.285156 90.78125 115.007812 C 90.871094 114.445312 90.9375 113.984375 90.9375 113.527344 C 90.941406 105.027344 90.953125 96.53125 90.933594 88.035156 C 90.925781 86.175781 90.878906 84.335938 92.179688 82.804688 C 92.179688 82.804688 92.1875 82.8125 92.246094 82.808594 C 92.785156 82.507812 93.238281 82.136719 93.753906 81.921875 C 95.398438 81.238281 96.941406 81.632812 98.414062 82.484375 C 98.414062 82.484375 98.425781 82.46875 98.425781 82.535156 C 98.601562 82.734375 98.773438 82.867188 98.945312 82.996094 C 98.945312 82.996094 98.957031 82.988281 98.953125 83.054688 C 99.316406 83.773438 99.683594 84.421875 100.054688 85.070312 C 100.0625 85.132812 100.070312 85.199219 100.054688 85.390625 C 100.023438 95.320312 100.019531 105.117188 100.019531 114.917969 C 100.019531 115.113281 100.070312 115.3125 100.097656 115.507812 C 100.085938 115.734375 100.074219 115.957031 100.007812 116.292969 C 99.902344 116.835938 99.847656 117.273438 99.796875 117.707031 C 99.789062 117.773438 99.78125 117.84375 99.707031 117.984375 C 99.121094 119.5 98.601562 120.941406 98.082031 122.386719 C 98.082031 122.386719 98.054688 122.457031 97.984375 122.507812 C 97.34375 123.4375 96.777344 124.316406 96.207031 125.195312 C 96.207031 125.195312 96.183594 125.179688 96.136719 125.191406 C 96.019531 125.320312 95.949219 125.4375 95.882812 125.554688 C 95.882812 125.554688 95.867188 125.554688 95.808594 125.558594 C 95.304688 126.054688 94.855469 126.542969 94.410156 127.03125 C 94.339844 127.097656 94.273438 127.164062 94.105469 127.257812 C 93.625 127.609375 93.242188 127.9375 92.859375 128.265625 C 92.785156 128.328125 92.714844 128.390625 92.535156 128.460938 C 92.046875 128.742188 91.664062 129.015625 91.28125 129.289062 C 91.226562 129.316406 91.167969 129.34375 91 129.371094 C 89.746094 129.851562 88.601562 130.335938 87.453125 130.820312 C 87.386719 130.832031 87.320312 130.84375 87.160156 130.824219 C 86.808594 130.902344 86.546875 131.007812 86.285156 131.109375 C 86.167969 131.125 86.050781 131.136719 85.800781 131.125 C 83.417969 131.175781 81.167969 131.300781 78.921875 131.3125 C 73.894531 131.347656 68.867188 131.324219 63.839844 131.324219 C 63.578125 131.324219 63.292969 131.265625 63.066406 131.355469 C 62.855469 131.4375 62.550781 131.683594 62.550781 131.859375 C 62.542969 134.105469 62.578125 136.351562 62.605469 138.601562 C 62.589844 138.824219 62.578125 139.050781 62.507812 139.378906 C 62.398438 139.863281 62.34375 140.242188 62.292969 140.625 C 62.28125 140.691406 62.273438 140.757812 62.199219 140.894531 C 61.699219 142.023438 61.265625 143.085938 60.832031 144.144531 C 60.832031 144.144531 60.808594 144.214844 60.734375 144.253906 C 60.527344 144.527344 60.398438 144.757812 60.269531 144.988281 C 60.269531 144.988281 60.238281 145.050781 60.164062 145.085938 C 60.03125 145.246094 59.96875 145.371094 59.90625 145.496094 C 59.90625 145.496094 59.894531 145.484375 59.84375 145.492188 C 59.640625 145.714844 59.492188 145.925781 59.34375 146.140625 C 59.34375 146.140625 59.347656 146.152344 59.285156 146.152344 C 59.089844 146.324219 58.960938 146.496094 58.828125 146.667969 C 58.828125 146.667969 58.832031 146.683594 58.765625 146.679688 C 58.527344 146.863281 58.355469 147.054688 58.183594 147.242188 C 58.183594 147.242188 58.164062 147.222656 58.113281 147.226562 C 57.910156 147.386719 57.757812 147.542969 57.605469 147.699219 C 57.605469 147.699219 57.554688 147.746094 57.464844 147.753906 C 56.285156 148.308594 55.203125 148.863281 54.109375 149.394531 C 53.738281 149.578125 53.339844 149.707031 52.949219 149.859375 C 52.886719 149.871094 52.820312 149.878906 52.632812 149.867188 C 52.023438 149.953125 51.53125 150.0625 51.042969 150.171875 C 50.167969 150.171875 49.296875 150.171875 48.300781 150.125 C 45.976562 149.398438 43.761719 148.753906 41.574219 148.027344 C 31.121094 144.554688 20.683594 141.03125 10.222656 137.589844 C 7.179688 136.589844 4.5 135.167969 2.566406 132.53125 C 1.398438 130.933594 0.804688 129.089844 0.171875 127.257812 C 0.171875 88.597656 0.171875 49.933594 0.171875 11.125 C 0.257812 10.765625 0.371094 10.5625 0.417969 10.34375 C 1.292969 6.125 3.691406 3.09375 7.59375 1.308594 C 8.707031 0.800781 9.9375 0.542969 11.109375 0.171875 C 35.765625 0.171875 60.425781 0.171875 85.160156 0.171875 C 85.546875 0.289062 85.851562 0.40625 86.261719 0.558594 C 86.628906 0.636719 86.890625 0.683594 87.152344 0.730469 M 52.980469 23.894531 C 52.59375 22.984375 51.890625 22.429688 50.96875 22.121094 C 45.910156 20.4375 40.847656 18.757812 35.792969 17.066406 C 28.628906 14.675781 21.472656 12.257812 14.296875 9.902344 C 13.539062 9.65625 12.621094 9.542969 11.855469 9.71875 C 10.265625 10.078125 9.550781 11.304688 9.550781 13.21875 C 9.550781 42.8125 9.550781 72.40625 9.550781 102 C 9.550781 109.636719 9.546875 117.273438 9.550781 124.910156 C 9.554688 126.601562 10.332031 127.695312 11.925781 128.234375 C 15.699219 129.503906 19.472656 130.757812 23.246094 132.019531 C 30.4375 134.421875 37.628906 136.820312 44.824219 139.222656 C 46.191406 139.675781 47.558594 140.132812 48.933594 140.566406 C 51.328125 141.320312 53.253906 139.9375 53.269531 137.410156 C 53.296875 133.246094 53.277344 129.078125 53.277344 124.914062 C 53.277344 91.820312 53.28125 58.726562 53.269531 25.632812 C 53.269531 25.09375 53.125 24.550781 52.980469 23.894531 Z M 52.980469 23.894531 "/>
<path style=" stroke:none;fill-rule:nonzero;fill:rgb(1.176471%,1.176471%,1.176471%);fill-opacity:1;" d="M 150.171875 67.105469 C 145.894531 72.71875 140.492188 77.167969 135.691406 82.195312 C 132.339844 85.703125 128.863281 89.085938 125.398438 92.484375 C 122.707031 95.128906 118.496094 94 117.515625 90.375 C 117.027344 88.574219 117.617188 87.03125 118.925781 85.722656 C 123.710938 80.953125 128.484375 76.167969 133.261719 71.390625 C 133.496094 71.15625 133.71875 70.914062 134.121094 70.488281 C 133.539062 70.488281 133.207031 70.488281 132.871094 70.488281 C 117.367188 70.488281 101.863281 70.488281 86.355469 70.484375 C 83.839844 70.484375 82.019531 69.027344 81.515625 66.640625 C 80.960938 64.003906 82.996094 61.308594 85.691406 61.128906 C 86.09375 61.101562 86.5 61.109375 86.90625 61.109375 C 102.238281 61.109375 117.570312 61.109375 132.902344 61.109375 C 133.238281 61.109375 133.570312 61.109375 134.109375 61.109375 C 133.761719 60.730469 133.566406 60.5 133.355469 60.285156 C 128.535156 55.464844 123.707031 50.65625 118.894531 45.828125 C 116.441406 43.367188 117.007812 39.617188 120.03125 38.132812 C 121.890625 37.21875 123.9375 37.617188 125.566406 39.25 C 131.148438 44.820312 136.71875 50.398438 142.296875 55.972656 C 144.421875 58.09375 146.582031 60.179688 148.671875 62.335938 C 149.238281 62.917969 149.597656 63.699219 150.113281 64.398438 C 150.171875 65.28125 150.171875 66.152344 150.171875 67.105469 Z M 150.171875 67.105469 "/>
<path style=" stroke:none;fill-rule:nonzero;fill:rgb(99.215686%,99.215686%,99.215686%);fill-opacity:1;" d="M 0.171875 127.339844 C 0.804688 129.089844 1.398438 130.933594 2.566406 132.53125 C 4.5 135.167969 7.179688 136.589844 10.222656 137.589844 C 20.683594 141.03125 31.121094 144.554688 41.574219 148.027344 C 43.761719 148.753906 45.976562 149.398438 48.222656 150.125 C 32.25 150.171875 16.238281 150.171875 0.171875 150.171875 C 0.171875 142.589844 0.171875 135.003906 0.171875 127.339844 Z M 0.171875 127.339844 "/>
<path style=" stroke:none;fill-rule:nonzero;fill:rgb(97.254902%,97.254902%,97.254902%);fill-opacity:1;" d="M 11.03125 0.171875 C 9.9375 0.542969 8.707031 0.800781 7.59375 1.308594 C 3.691406 3.09375 1.292969 6.125 0.417969 10.34375 C 0.371094 10.5625 0.257812 10.765625 0.171875 11.042969 C 0.171875 7.476562 0.171875 3.84375 0.171875 0.171875 C 3.765625 0.171875 7.355469 0.171875 11.03125 0.171875 Z M 11.03125 0.171875 "/>
<path style=" stroke:none;fill-rule:nonzero;fill:rgb(47.45098%,47.45098%,47.45098%);fill-opacity:1;" d="M 51.121094 150.171875 C 51.53125 150.0625 52.023438 149.953125 52.582031 149.875 C 52.632812 149.960938 52.609375 150.019531 52.59375 150.125 C 52.136719 150.171875 51.667969 150.171875 51.121094 150.171875 Z M 51.121094 150.171875 "/>
<path style=" stroke:none;fill-rule:nonzero;fill:rgb(47.45098%,47.45098%,47.45098%);fill-opacity:1;" d="M 84.867188 121.753906 C 84.453125 121.898438 83.96875 122.121094 83.484375 122.125 C 76.773438 122.148438 70.066406 122.136719 63.355469 122.15625 C 62.644531 122.160156 62.511719 121.859375 62.511719 121.21875 C 62.53125 113.582031 62.523438 105.949219 62.523438 98.316406 C 62.523438 73.734375 62.519531 49.15625 62.515625 24.578125 C 62.515625 24.460938 62.523438 24.347656 62.566406 24.152344 C 62.667969 24.722656 62.792969 25.371094 62.792969 26.019531 C 62.804688 47.71875 62.800781 69.414062 62.800781 91.109375 C 62.800781 101.035156 62.816406 110.957031 62.78125 120.878906 C 62.777344 121.765625 63.019531 121.992188 63.894531 121.984375 C 70.058594 121.949219 76.21875 121.972656 82.382812 121.957031 C 83.183594 121.953125 83.988281 121.808594 84.867188 121.753906 Z M 84.867188 121.753906 "/>
<path style=" stroke:none;fill-rule:nonzero;fill:rgb(47.45098%,47.45098%,47.45098%);fill-opacity:1;" d="M 47.1875 10.9375 C 45.902344 10.609375 44.582031 10.230469 43.261719 9.847656 C 43.269531 9.757812 43.273438 9.667969 43.28125 9.578125 C 43.597656 9.535156 43.917969 9.457031 44.234375 9.457031 C 57.246094 9.449219 70.257812 9.449219 83.269531 9.464844 C 83.804688 9.46875 84.34375 9.625 84.910156 9.765625 C 84.054688 9.757812 83.164062 9.640625 82.277344 9.640625 C 70.019531 9.628906 57.765625 9.632812 45.507812 9.632812 C 45.167969 9.632812 44.832031 9.632812 44.492188 9.632812 C 44.472656 9.714844 44.453125 9.800781 44.433594 9.882812 C 45.339844 10.214844 46.246094 10.550781 47.1875 10.9375 Z M 47.1875 10.9375 "/>
<path style=" stroke:none;fill-rule:nonzero;fill:rgb(47.45098%,47.45098%,47.45098%);fill-opacity:1;" d="M 90.703125 16.691406 C 90.804688 17.054688 90.933594 17.5 90.933594 17.941406 C 90.945312 26.984375 90.953125 36.03125 90.933594 45.074219 C 90.929688 46.882812 91.507812 48.375 93.085938 49.332031 C 94.84375 50.398438 96.597656 50.222656 98.351562 49.109375 C 97.445312 50.316406 95.433594 50.691406 93.664062 49.917969 C 91.773438 49.089844 90.6875 47.597656 90.679688 45.535156 C 90.640625 35.949219 90.664062 26.359375 90.703125 16.691406 Z M 90.703125 16.691406 "/>
<path style=" stroke:none;fill-rule:nonzero;fill:rgb(47.45098%,47.45098%,47.45098%);fill-opacity:1;" d="M 92.121094 82.804688 C 90.878906 84.335938 90.925781 86.175781 90.933594 88.035156 C 90.953125 96.53125 90.941406 105.027344 90.9375 113.527344 C 90.9375 113.984375 90.871094 114.445312 90.789062 114.945312 C 90.710938 114.761719 90.660156 114.535156 90.660156 114.308594 C 90.65625 105.003906 90.660156 95.699219 90.65625 86.394531 C 90.65625 85.011719 91.035156 83.785156 92.121094 82.804688 Z M 92.121094 82.804688 "/>
<path style=" stroke:none;fill-rule:nonzero;fill:rgb(47.45098%,47.45098%,47.45098%);fill-opacity:1;" d="M 62.652344 138.554688 C 62.578125 136.351562 62.542969 134.105469 62.550781 131.859375 C 62.550781 131.683594 62.855469 131.4375 63.066406 131.355469 C 63.292969 131.265625 63.578125 131.324219 63.839844 131.324219 C 68.867188 131.324219 73.894531 131.347656 78.921875 131.3125 C 81.167969 131.300781 83.417969 131.175781 85.742188 131.132812 C 85.183594 131.273438 84.546875 131.480469 83.910156 131.484375 C 78.214844 131.511719 72.515625 131.496094 66.820312 131.511719 C 65.527344 131.515625 64.234375 131.578125 62.941406 131.617188 C 62.894531 132.933594 62.847656 134.25 62.800781 135.566406 C 62.769531 136.546875 62.734375 137.527344 62.652344 138.554688 Z M 62.652344 138.554688 "/>
<path style=" stroke:none;fill-rule:nonzero;fill:rgb(47.45098%,47.45098%,47.45098%);fill-opacity:1;" d="M 100.144531 115.464844 C 100.070312 115.3125 100.019531 115.113281 100.019531 114.917969 C 100.019531 105.117188 100.023438 95.320312 100.058594 85.441406 C 100.160156 85.71875 100.292969 86.074219 100.292969 86.429688 C 100.300781 95.664062 100.300781 104.894531 100.292969 114.128906 C 100.292969 114.558594 100.226562 114.988281 100.144531 115.464844 Z M 100.144531 115.464844 "/>
<path style=" stroke:none;fill-rule:nonzero;fill:rgb(47.45098%,47.45098%,47.45098%);fill-opacity:1;" d="M 100.136719 46.191406 C 100.066406 46.125 100.019531 46.011719 100.019531 45.898438 C 100.019531 36.015625 100.027344 26.128906 100.066406 16.164062 C 100.164062 16.535156 100.289062 16.980469 100.289062 17.425781 C 100.300781 26.6875 100.300781 35.945312 100.296875 45.203125 C 100.296875 45.519531 100.226562 45.832031 100.136719 46.191406 Z M 100.136719 46.191406 "/>
<path style=" stroke:none;fill-rule:nonzero;fill:rgb(47.45098%,47.45098%,47.45098%);fill-opacity:1;" d="M 98.40625 82.425781 C 96.941406 81.632812 95.398438 81.238281 93.753906 81.921875 C 93.238281 82.136719 92.785156 82.507812 92.242188 82.804688 C 92.949219 81.679688 95.011719 80.945312 96.414062 81.398438 C 97.105469 81.621094 97.738281 82.039062 98.40625 82.425781 Z M 98.40625 82.425781 "/>
<path style=" stroke:none;fill-rule:nonzero;fill:rgb(47.45098%,47.45098%,47.45098%);fill-opacity:1;" d="M 53 149.894531 C 53.339844 149.707031 53.738281 149.578125 54.109375 149.394531 C 55.203125 148.863281 56.285156 148.308594 57.4375 147.773438 C 56.394531 148.398438 55.304688 149.03125 54.1875 149.617188 C 53.84375 149.792969 53.429688 149.828125 53 149.894531 Z M 53 149.894531 "/>
<path style=" stroke:none;fill-rule:nonzero;fill:rgb(47.45098%,47.45098%,47.45098%);fill-opacity:1;" d="M 57.082031 14.722656 C 55.671875 14.160156 54.253906 13.542969 52.804688 12.867188 C 54.359375 13.085938 55.78125 13.722656 57.082031 14.722656 Z M 57.082031 14.722656 "/>
<path style=" stroke:none;fill-rule:nonzero;fill:rgb(47.45098%,47.45098%,47.45098%);fill-opacity:1;" d="M 98.140625 122.375 C 98.601562 120.941406 99.121094 119.5 99.695312 118.035156 C 99.234375 119.460938 98.714844 120.914062 98.140625 122.375 Z M 98.140625 122.375 "/>
<path style=" stroke:none;fill-rule:nonzero;fill:rgb(47.45098%,47.45098%,47.45098%);fill-opacity:1;" d="M 99.777344 13.515625 C 99.460938 12.828125 99.179688 12.070312 98.882812 11.316406 C 98.617188 10.652344 98.335938 10 98.070312 9.277344 C 98.570312 10.261719 99.074219 11.300781 99.539062 12.359375 C 99.683594 12.695312 99.71875 13.082031 99.777344 13.515625 Z M 99.777344 13.515625 "/>
<path style=" stroke:none;fill-rule:nonzero;fill:rgb(47.45098%,47.45098%,47.45098%);fill-opacity:1;" d="M 87.519531 130.847656 C 88.601562 130.335938 89.746094 129.851562 90.957031 129.386719 C 89.875 129.890625 88.730469 130.382812 87.519531 130.847656 Z M 87.519531 130.847656 "/>
<path style=" stroke:none;fill-rule:nonzero;fill:rgb(47.45098%,47.45098%,47.45098%);fill-opacity:1;" d="M 91.003906 2.136719 C 89.847656 1.757812 88.679688 1.320312 87.480469 0.828125 C 88.632812 1.210938 89.8125 1.644531 91.003906 2.136719 Z M 91.003906 2.136719 "/>
<path style=" stroke:none;fill-rule:nonzero;fill:rgb(47.45098%,47.45098%,47.45098%);fill-opacity:1;" d="M 60.890625 144.132812 C 61.265625 143.085938 61.699219 142.023438 62.1875 140.945312 C 61.8125 141.988281 61.378906 143.050781 60.890625 144.132812 Z M 60.890625 144.132812 "/>
<path style=" stroke:none;fill-rule:nonzero;fill:rgb(47.45098%,47.45098%,47.45098%);fill-opacity:1;" d="M 62.273438 21.855469 C 61.765625 20.886719 61.285156 19.855469 60.824219 18.757812 C 61.324219 19.726562 61.808594 20.757812 62.273438 21.855469 Z M 62.273438 21.855469 "/>
<path style=" stroke:none;fill-rule:nonzero;fill:rgb(47.45098%,47.45098%,47.45098%);fill-opacity:1;" d="M 96.265625 125.1875 C 96.777344 124.316406 97.34375 123.4375 97.96875 122.542969 C 97.457031 123.410156 96.890625 124.292969 96.265625 125.1875 Z M 96.265625 125.1875 "/>
<path style=" stroke:none;fill-rule:nonzero;fill:rgb(47.45098%,47.45098%,47.45098%);fill-opacity:1;" d="M 98.039062 9.007812 C 97.414062 8.222656 96.804688 7.371094 96.199219 6.460938 C 96.824219 7.25 97.4375 8.097656 98.039062 9.007812 Z M 98.039062 9.007812 "/>
<path style=" stroke:none;fill-rule:nonzero;fill:rgb(47.45098%,47.45098%,47.45098%);fill-opacity:1;" d="M 90.320312 116.808594 C 89.933594 117.621094 89.488281 118.453125 88.984375 119.292969 C 89.371094 118.472656 89.820312 117.652344 90.320312 116.808594 Z M 90.320312 116.808594 "/>
<path style=" stroke:none;fill-rule:nonzero;fill:rgb(47.45098%,47.45098%,47.45098%);fill-opacity:1;" d="M 88.917969 12.359375 C 89.425781 13.09375 89.921875 13.886719 90.398438 14.746094 C 89.890625 14.011719 89.402344 13.21875 88.917969 12.359375 Z M 88.917969 12.359375 "/>
<path style=" stroke:none;fill-rule:nonzero;fill:rgb(47.45098%,47.45098%,47.45098%);fill-opacity:1;" d="M 49.796875 11.804688 C 49.066406 11.628906 48.3125 11.394531 47.535156 11.109375 C 48.261719 11.285156 49.015625 11.515625 49.796875 11.804688 Z M 49.796875 11.804688 "/>
<path style=" stroke:none;fill-rule:nonzero;fill:rgb(47.45098%,47.45098%,47.45098%);fill-opacity:1;" d="M 99.007812 48.597656 C 99.285156 47.933594 99.621094 47.265625 100.003906 46.5625 C 99.726562 47.214844 99.398438 47.902344 99.007812 48.597656 Z M 99.007812 48.597656 "/>
<path style=" stroke:none;fill-rule:nonzero;fill:rgb(47.45098%,47.45098%,47.45098%);fill-opacity:1;" d="M 100.085938 85.023438 C 99.683594 84.421875 99.316406 83.773438 98.949219 83.0625 C 99.339844 83.660156 99.730469 84.320312 100.085938 85.023438 Z M 100.085938 85.023438 "/>
<path style=" stroke:none;fill-rule:nonzero;fill:rgb(47.45098%,47.45098%,47.45098%);fill-opacity:1;" d="M 52.460938 12.695312 C 51.714844 12.511719 50.9375 12.273438 50.140625 11.984375 C 50.886719 12.167969 51.660156 12.40625 52.460938 12.695312 Z M 52.460938 12.695312 "/>
<path style=" stroke:none;fill-rule:nonzero;fill:rgb(47.45098%,47.45098%,47.45098%);fill-opacity:1;" d="M 94.46875 127.039062 C 94.855469 126.542969 95.304688 126.054688 95.8125 125.566406 C 95.421875 126.058594 94.976562 126.554688 94.46875 127.039062 Z M 94.46875 127.039062 "/>
<path style=" stroke:none;fill-rule:nonzero;fill:rgb(47.45098%,47.45098%,47.45098%);fill-opacity:1;" d="M 95.871094 5.972656 C 95.386719 5.582031 94.902344 5.132812 94.414062 4.621094 C 94.894531 5.015625 95.382812 5.464844 95.871094 5.972656 Z M 95.871094 5.972656 "/>
<path style=" stroke:none;fill-rule:nonzero;fill:rgb(47.45098%,47.45098%,47.45098%);fill-opacity:1;" d="M 85.273438 9.921875 C 85.828125 10.109375 86.410156 10.34375 87.007812 10.640625 C 86.449219 10.457031 85.878906 10.214844 85.273438 9.921875 Z M 85.273438 9.921875 "/>
<path style=" stroke:none;fill-rule:nonzero;fill:rgb(47.45098%,47.45098%,47.45098%);fill-opacity:1;" d="M 86.957031 120.886719 C 86.457031 121.199219 85.890625 121.5 85.285156 121.761719 C 85.792969 121.441406 86.34375 121.160156 86.957031 120.886719 Z M 86.957031 120.886719 "/>
<path style=" stroke:none;fill-rule:nonzero;fill:rgb(47.45098%,47.45098%,47.45098%);fill-opacity:1;" d="M 100.085938 15.226562 C 99.941406 14.847656 99.832031 14.417969 99.761719 13.9375 C 99.90625 14.320312 100.011719 14.75 100.085938 15.226562 Z M 100.085938 15.226562 "/>
<path style=" stroke:none;fill-rule:nonzero;fill:rgb(47.45098%,47.45098%,47.45098%);fill-opacity:1;" d="M 99.84375 117.667969 C 99.847656 117.273438 99.902344 116.835938 100 116.359375 C 99.996094 116.753906 99.941406 117.1875 99.84375 117.667969 Z M 99.84375 117.667969 "/>
<path style=" stroke:none;fill-rule:nonzero;fill:rgb(47.45098%,47.45098%,47.45098%);fill-opacity:1;" d="M 92.917969 128.277344 C 93.242188 127.9375 93.625 127.609375 94.070312 127.289062 C 93.746094 127.625 93.363281 127.957031 92.917969 128.277344 Z M 92.917969 128.277344 "/>
<path style=" stroke:none;fill-rule:nonzero;fill:rgb(47.45098%,47.45098%,47.45098%);fill-opacity:1;" d="M 94.121094 4.246094 C 93.710938 4.015625 93.292969 3.730469 92.867188 3.386719 C 93.277344 3.617188 93.695312 3.902344 94.121094 4.246094 Z M 94.121094 4.246094 "/>
<path style=" stroke:none;fill-rule:nonzero;fill:rgb(47.45098%,47.45098%,47.45098%);fill-opacity:1;" d="M 62.339844 140.585938 C 62.34375 140.242188 62.398438 139.863281 62.5 139.445312 C 62.492188 139.789062 62.4375 140.167969 62.339844 140.585938 Z M 62.339844 140.585938 "/>
<path style=" stroke:none;fill-rule:nonzero;fill:rgb(47.45098%,47.45098%,47.45098%);fill-opacity:1;" d="M 92.542969 3.046875 C 92.132812 2.878906 91.714844 2.652344 91.289062 2.367188 C 91.699219 2.535156 92.113281 2.761719 92.542969 3.046875 Z M 92.542969 3.046875 "/>
<path style=" stroke:none;fill-rule:nonzero;fill:rgb(47.45098%,47.45098%,47.45098%);fill-opacity:1;" d="M 91.34375 129.292969 C 91.664062 129.015625 92.046875 128.742188 92.492188 128.480469 C 92.171875 128.761719 91.789062 129.03125 91.34375 129.292969 Z M 91.34375 129.292969 "/>
<path style=" stroke:none;fill-rule:nonzero;fill:rgb(47.45098%,47.45098%,47.45098%);fill-opacity:1;" d="M 62.570312 23.222656 C 62.429688 22.945312 62.328125 22.628906 62.261719 22.269531 C 62.402344 22.542969 62.503906 22.859375 62.570312 23.222656 Z M 62.570312 23.222656 "/>
<path style=" stroke:none;fill-rule:nonzero;fill:rgb(47.45098%,47.45098%,47.45098%);fill-opacity:1;" d="M 90.632812 115.660156 C 90.632812 115.898438 90.585938 116.167969 90.488281 116.46875 C 90.488281 116.226562 90.539062 115.960938 90.632812 115.660156 Z M 90.632812 115.660156 "/>
<path style=" stroke:none;fill-rule:nonzero;fill:rgb(47.45098%,47.45098%,47.45098%);fill-opacity:1;" d="M 90.40625 15.144531 C 90.542969 15.363281 90.648438 15.625 90.714844 15.925781 C 90.574219 15.707031 90.472656 15.449219 90.40625 15.144531 Z M 90.40625 15.144531 "/>
<path style=" stroke:none;fill-rule:nonzero;fill:rgb(47.45098%,47.45098%,47.45098%);fill-opacity:1;" d="M 87.125 0.679688 C 86.890625 0.683594 86.628906 0.636719 86.328125 0.558594 C 86.554688 0.558594 86.824219 0.59375 87.125 0.679688 Z M 87.125 0.679688 "/>
<path style=" stroke:none;fill-rule:nonzero;fill:rgb(47.45098%,47.45098%,47.45098%);fill-opacity:1;" d="M 86.328125 131.144531 C 86.546875 131.007812 86.808594 130.902344 87.113281 130.832031 C 86.890625 130.972656 86.632812 131.074219 86.328125 131.144531 Z M 86.328125 131.144531 "/>
<path style=" stroke:none;fill-rule:nonzero;fill:rgb(47.45098%,47.45098%,47.45098%);fill-opacity:1;" d="M 87.167969 10.816406 C 87.453125 10.941406 87.746094 11.125 88.042969 11.363281 C 87.757812 11.238281 87.464844 11.054688 87.167969 10.816406 Z M 87.167969 10.816406 "/>
<path style=" stroke:none;fill-rule:nonzero;fill:rgb(47.45098%,47.45098%,47.45098%);fill-opacity:1;" d="M 87.992188 120.175781 C 87.792969 120.40625 87.535156 120.632812 87.21875 120.851562 C 87.417969 120.617188 87.671875 120.398438 87.992188 120.175781 Z M 87.992188 120.175781 "/>
<path style=" stroke:none;fill-rule:nonzero;fill:rgb(47.45098%,47.45098%,47.45098%);fill-opacity:1;" d="M 58.367188 15.6875 C 58.125 15.578125 57.875 15.414062 57.621094 15.191406 C 57.863281 15.296875 58.109375 15.464844 58.367188 15.6875 Z M 58.367188 15.6875 "/>
<path style=" stroke:none;fill-rule:nonzero;fill:rgb(47.45098%,47.45098%,47.45098%);fill-opacity:1;" d="M 60.214844 17.679688 C 59.996094 17.519531 59.785156 17.304688 59.585938 17.03125 C 59.804688 17.191406 60.015625 17.40625 60.214844 17.679688 Z M 60.214844 17.679688 "/>
<path style=" stroke:none;fill-rule:nonzero;fill:rgb(47.45098%,47.45098%,47.45098%);fill-opacity:1;" d="M 58.242188 147.246094 C 58.355469 147.054688 58.527344 146.863281 58.761719 146.675781 C 58.648438 146.867188 58.472656 147.058594 58.242188 147.246094 Z M 58.242188 147.246094 "/>
<path style=" stroke:none;fill-rule:nonzero;fill:rgb(47.45098%,47.45098%,47.45098%);fill-opacity:1;" d="M 60.328125 144.984375 C 60.398438 144.757812 60.527344 144.527344 60.714844 144.289062 C 60.644531 144.511719 60.515625 144.746094 60.328125 144.984375 Z M 60.328125 144.984375 "/>
<path style=" stroke:none;fill-rule:nonzero;fill:rgb(47.45098%,47.45098%,47.45098%);fill-opacity:1;" d="M 59.402344 146.136719 C 59.492188 145.925781 59.640625 145.714844 59.847656 145.5 C 59.757812 145.710938 59.609375 145.921875 59.402344 146.136719 Z M 59.402344 146.136719 "/>
<path style=" stroke:none;fill-rule:nonzero;fill:rgb(47.45098%,47.45098%,47.45098%);fill-opacity:1;" d="M 57.664062 147.699219 C 57.757812 147.542969 57.910156 147.386719 58.121094 147.238281 C 58.027344 147.398438 57.875 147.550781 57.664062 147.699219 Z M 57.664062 147.699219 "/>
<path style=" stroke:none;fill-rule:nonzero;fill:rgb(47.45098%,47.45098%,47.45098%);fill-opacity:1;" d="M 98.949219 82.9375 C 98.773438 82.867188 98.601562 82.734375 98.421875 82.546875 C 98.597656 82.621094 98.773438 82.75 98.949219 82.9375 Z M 98.949219 82.9375 "/>
<path style=" stroke:none;fill-rule:nonzero;fill:rgb(47.45098%,47.45098%,47.45098%);fill-opacity:1;" d="M 58.886719 146.671875 C 58.960938 146.496094 59.089844 146.324219 59.28125 146.152344 C 59.207031 146.324219 59.074219 146.5 58.886719 146.671875 Z M 58.886719 146.671875 "/>
<path style=" stroke:none;fill-rule:nonzero;fill:rgb(47.45098%,47.45098%,47.45098%);fill-opacity:1;" d="M 88.59375 11.996094 C 88.707031 12.019531 88.816406 12.101562 88.921875 12.234375 C 88.808594 12.210938 88.699219 12.128906 88.59375 11.996094 Z M 88.59375 11.996094 "/>
<path style=" stroke:none;fill-rule:nonzero;fill:rgb(47.45098%,47.45098%,47.45098%);fill-opacity:1;" d="M 59.960938 145.488281 C 59.96875 145.371094 60.03125 145.246094 60.148438 145.117188 C 60.144531 145.234375 60.082031 145.359375 59.960938 145.488281 Z M 59.960938 145.488281 "/>
<path style=" stroke:none;fill-rule:nonzero;fill:rgb(47.45098%,47.45098%,47.45098%);fill-opacity:1;" d="M 59.167969 16.464844 C 59.054688 16.441406 58.941406 16.367188 58.828125 16.234375 C 58.941406 16.257812 59.058594 16.332031 59.167969 16.464844 Z M 59.167969 16.464844 "/>
<path style=" stroke:none;fill-rule:nonzero;fill:rgb(47.45098%,47.45098%,47.45098%);fill-opacity:1;" d="M 98.476562 49.117188 C 98.507812 49 98.59375 48.890625 98.738281 48.785156 C 98.707031 48.902344 98.621094 49.011719 98.476562 49.117188 Z M 98.476562 49.117188 "/>
<path style=" stroke:none;fill-rule:nonzero;fill:rgb(47.45098%,47.45098%,47.45098%);fill-opacity:1;" d="M 95.933594 125.554688 C 95.949219 125.4375 96.019531 125.320312 96.148438 125.199219 C 96.132812 125.316406 96.0625 125.433594 95.933594 125.554688 Z M 95.933594 125.554688 "/>
<path style=" stroke:none;fill-rule:nonzero;fill:rgb(47.45098%,47.45098%,47.45098%);fill-opacity:1;" d="M 96.207031 6.34375 C 96.09375 6.316406 95.980469 6.234375 95.875 6.097656 C 95.988281 6.125 96.097656 6.207031 96.207031 6.34375 Z M 96.207031 6.34375 "/>
<path style=" stroke:none;fill-rule:nonzero;fill:rgb(47.45098%,47.45098%,47.45098%);fill-opacity:1;" d="M 88.863281 119.3125 C 88.847656 119.421875 88.777344 119.539062 88.652344 119.65625 C 88.667969 119.542969 88.738281 119.429688 88.863281 119.3125 Z M 88.863281 119.3125 "/>
<path style=" stroke:none;fill-rule:nonzero;fill:rgb(99.607843%,99.607843%,99.607843%);fill-opacity:1;" d="M 53.015625 23.953125 C 53.125 24.550781 53.269531 25.09375 53.269531 25.632812 C 53.28125 58.726562 53.277344 91.820312 53.277344 124.914062 C 53.277344 129.078125 53.296875 133.246094 53.269531 137.410156 C 53.253906 139.9375 51.328125 141.320312 48.933594 140.566406 C 47.558594 140.132812 46.191406 139.675781 44.824219 139.222656 C 37.628906 136.820312 30.4375 134.421875 23.246094 132.019531 C 19.472656 130.757812 15.699219 129.503906 11.925781 128.234375 C 10.332031 127.695312 9.554688 126.601562 9.550781 124.910156 C 9.546875 117.273438 9.550781 109.636719 9.550781 102 C 9.550781 72.40625 9.550781 42.8125 9.550781 13.21875 C 9.550781 11.304688 10.265625 10.078125 11.855469 9.71875 C 12.621094 9.542969 13.539062 9.65625 14.296875 9.902344 C 21.472656 12.257812 28.628906 14.675781 35.792969 17.066406 C 40.847656 18.757812 45.910156 20.4375 50.96875 22.121094 C 51.890625 22.429688 52.59375 22.984375 53.015625 23.953125 Z M 53.015625 23.953125 "/>
</g>
</svg>
