<?xml version="1.0" encoding="UTF-8"?>
<svg version="1.1" xmlns="http://www.w3.org/2000/svg" width="512" height="512">
<path d="M0 0 C10.74847851 11.21580366 15.01878786 23.61272661 14.7109375 38.875 C14.70191406 39.74060547 14.69289062 40.60621094 14.68359375 41.49804688 C14.66033473 43.60298779 14.62447758 45.70778342 14.5859375 47.8125 C15.23433594 47.88855469 15.88273438 47.96460938 16.55078125 48.04296875 C20.76970528 49.1126316 24.32758419 51.07518599 28.1484375 53.125 C29.28055664 53.7118457 29.28055664 53.7118457 30.43554688 54.31054688 C37.9070643 58.27999622 37.9070643 58.27999622 40.5859375 61.8125 C41.37350774 64.89760272 41.24197048 67.70347414 40.5859375 70.8125 C38.1011669 73.80884101 36.6574795 74.69243927 32.796875 75.125 C28.81263055 74.73723898 26.70525423 73.39448057 23.3359375 71.25 C-1.52614587 56.19320412 -31.94314126 51.92204235 -60.23046875 58.26904297 C-77.45627829 62.55623573 -92.71032044 70.58627063 -106.4140625 81.8125 C-107.26484375 82.49828125 -108.115625 83.1840625 -108.9921875 83.890625 C-122.90941888 95.70714221 -132.76783527 111.23420081 -139.2265625 128.1875 C-139.50467773 128.90510498 -139.78279297 129.62270996 -140.06933594 130.36206055 C-146.16935292 147.28199195 -145.85479804 164.3740121 -145.85546875 182.12109375 C-145.86543485 184.86005069 -145.88040235 187.59897298 -145.89549255 190.33790588 C-145.93614584 198.24431967 -145.9549858 206.15071077 -145.97166443 214.0572052 C-145.99413375 224.11639308 -146.0280691 234.17551644 -146.07886356 244.23460156 C-146.10164264 248.90263672 -146.10852658 253.5705346 -146.11195374 258.2386322 C-146.21656795 295.17434377 -155.43162241 318.57144298 -175.515625 348.99609375 C-179.3137494 354.90928742 -180.25898155 358.58790474 -178.8515625 365.625 C-177.1009049 368.28904418 -175.62051978 368.64968919 -172.60657132 369.42683446 C-168.18232899 370.20506522 -163.72799522 370.08951002 -159.2485199 370.07319641 C-157.57368384 370.07893473 -157.57368384 370.07893473 -155.86501271 370.08478898 C-152.127978 370.09509825 -148.39109753 370.09113073 -144.65405273 370.0871582 C-141.97312919 370.09150575 -139.29221691 370.09662462 -136.61129761 370.10264587 C-130.08836514 370.1153812 -123.56547387 370.11718812 -117.04253107 370.11484561 C-111.74097107 370.11306141 -106.43942357 370.11481427 -101.13786507 370.11907005 C-100.38287221 370.11966524 -99.62787936 370.12026043 -98.85000794 370.12087366 C-97.31619206 370.12208542 -95.78237619 370.12329955 -94.24856032 370.12451603 C-79.8724006 370.13538654 -65.49626435 370.13323107 -51.12010331 370.12713119 C-37.9684241 370.12195937 -24.8168189 370.1332253 -11.66515433 370.15222941 C1.8432715 370.1715993 15.3516623 370.1798655 28.86010212 370.17610615 C36.44243522 370.17419321 44.02470528 370.17669094 51.60702705 370.19082069 C58.06000974 370.20272446 64.51289056 370.20415052 70.96587462 370.19203053 C74.25780159 370.18613543 77.54950334 370.18668265 80.84142494 370.19703293 C84.41025017 370.20744628 87.97857174 370.19944281 91.54737854 370.1867218 C92.58735554 370.19409609 93.62733254 370.20147037 94.69882399 370.20906812 C100.0574932 370.16878268 104.00455103 369.9263115 108.5859375 366.8125 C110.78426357 363.62138151 111.67394131 361.8257936 111.33666992 357.94238281 C110.54417552 354.63838991 109.43271827 352.41898222 107.63671875 349.546875 C107.03537109 348.57363281 106.43402344 347.60039062 105.81445312 346.59765625 C105.18216797 345.59605469 104.54988281 344.59445312 103.8984375 343.5625 C102.66511043 341.57828295 101.43203544 339.59390919 100.19921875 337.609375 C99.597146 336.64410889 98.99507324 335.67884277 98.37475586 334.68432617 C96.63343287 331.88875058 94.89272127 329.09339119 93.171875 326.28515625 C92.68895996 325.50148682 92.20604492 324.71781738 91.70849609 323.91040039 C90.12248498 320.94637397 89.74963917 319.08166621 90.5859375 315.8125 C93.25323824 311.97825519 94.89031817 310.96957533 99.4609375 309.9375 C102.25899765 310.12118795 103.29396116 310.5236342 105.3046875 312.51293945 C109.47045299 318.11007278 113.19742802 323.84854739 116.7109375 329.875 C117.71284996 331.57462669 118.7154461 333.27385056 119.71875 334.97265625 C120.19642822 335.78621582 120.67410645 336.59977539 121.16625977 337.43798828 C122.90253723 340.3420355 124.72127827 343.18803887 126.57055664 346.02124023 C130.07634438 352.20589151 130.65465767 359.76291707 128.86328125 366.55078125 C126.11203727 374.7822359 122.57909536 380.32321702 114.90109253 384.70144653 C107.18386729 388.40497815 98.38128934 388.08577166 90.015625 388.0078125 C88.85338409 388.0049826 87.69114319 388.00215271 86.49368286 387.99923706 C82.81599213 387.98812659 79.13855345 387.963039 75.4609375 387.9375 C72.95312854 387.9274584 70.44531573 387.91833462 67.9375 387.91015625 C61.82022787 387.88821722 55.7031007 387.85483165 49.5859375 387.8125 C49.52217926 388.42683899 49.45842102 389.04117798 49.39273071 389.6741333 C49.3064743 390.48195251 49.2202179 391.28977173 49.13134766 392.12207031 C49.04696442 392.9220343 48.96258118 393.72199829 48.87564087 394.54620361 C46.61130593 412.25968101 34.53681215 428.80793601 20.8359375 439.6875 C-1.82031596 455.65252835 -29.8244549 457.44615156 -56.60546875 453.5625 C-72.63816478 450.40529217 -85.83612365 443.37081522 -97.4140625 431.8125 C-98.11273438 431.12542969 -98.81140625 430.43835938 -99.53125 429.73046875 C-110.73832996 417.97829735 -116.49744166 403.77443798 -118.4140625 387.8125 C-119.04331635 387.81694122 -119.67257019 387.82138245 -120.32089233 387.82595825 C-126.90775263 387.87042344 -133.49456984 387.90046219 -140.08154297 387.92236328 C-142.53533665 387.9323814 -144.98911851 387.94599966 -147.44287109 387.96337891 C-150.98277719 387.98781188 -154.52252456 387.99902534 -158.0625 388.0078125 C-159.14832367 388.01813507 -160.23414734 388.02845764 -161.35287476 388.03909302 C-172.39639746 388.04069661 -181.79786654 386.96361189 -190.13671875 379.2109375 C-196.61066284 372.24389202 -197.7349577 365.586149 -197.91015625 356.25390625 C-196.54869394 346.80943149 -190.51276859 338.79764715 -185.5390625 330.875 C-182.8283683 326.52229901 -180.12037404 322.16792712 -177.4140625 317.8125 C-176.5487793 316.42998047 -176.5487793 316.42998047 -175.66601562 315.01953125 C-172.77648001 310.32803432 -170.40400653 305.91924951 -168.6640625 300.6875 C-168.08398438 299.01300781 -168.08398438 299.01300781 -167.4921875 297.3046875 C-163.42521511 282.04497029 -164.13005685 266.01371365 -164.1410718 250.37283111 C-164.14031234 246.94377581 -164.12516091 243.51478994 -164.11068726 240.08576965 C-164.06412716 228.45718832 -164.03974444 216.8286219 -164.03320312 205.19995117 C-164.02942177 198.74907884 -164.01115735 192.29839846 -163.97810876 185.84760839 C-163.96141836 182.45397269 -163.95192625 179.06068553 -163.96104813 175.66701317 C-163.98955627 160.56733239 -163.49209569 146.40937772 -159.4140625 131.8125 C-159.1366239 130.80124841 -159.1366239 130.80124841 -158.85358047 129.76956749 C-153.21017163 109.47480148 -141.76731209 92.01005839 -127.4140625 76.8125 C-126.67800781 76.00039062 -125.94195312 75.18828125 -125.18359375 74.3515625 C-114.11597711 62.59801317 -100.13980811 54.22058631 -85.4140625 47.8125 C-84.7540625 47.8125 -84.0940625 47.8125 -83.4140625 47.8125 C-83.44886719 46.89210937 -83.48367187 45.97171875 -83.51953125 45.0234375 C-83.8818575 28.08037179 -80.82240352 13.71171738 -68.859375 1.13671875 C-49.66134562 -17.11060949 -19.9137629 -18.0448337 0 0 Z M-58.7890625 15.125 C-64.10314748 21.92943742 -66.46477605 29.42571634 -66.4296875 37.99609375 C-66.42453125 39.25550781 -66.419375 40.51492187 -66.4140625 41.8125 C-65.16496094 41.5959375 -63.91585937 41.379375 -62.62890625 41.15625 C-42.14116887 37.79904082 -22.81794056 38.05800765 -2.4140625 41.8125 C-1.66048126 30.99023603 -3.54800375 22.75695521 -10.6640625 14.375 C-17.21720797 7.60734895 -24.4852634 4.52314606 -33.8515625 3.5625 C-43.58661071 4.5122608 -52.01429787 7.78709373 -58.7890625 15.125 Z M-100.4140625 387.8125 C-99.65130646 394.67730432 -98.99754757 398.87164932 -95.9765625 404.6875 C-95.44639526 405.71895142 -95.44639526 405.71895142 -94.90551758 406.77124023 C-87.03918097 421.40894672 -74.15113961 430.79544927 -58.4140625 435.8125 C-39.1541528 440.37218269 -15.24110576 439.6923857 2.5859375 430.8125 C6.49061186 428.40183204 10.06112382 425.74700672 13.5859375 422.8125 C14.23175781 422.28011719 14.87757813 421.74773437 15.54296875 421.19921875 C24.62010338 412.94168995 29.87461583 401.60318175 32.5859375 389.8125 C32.5859375 389.1525 32.5859375 388.4925 32.5859375 387.8125 C-11.3040625 387.8125 -55.1940625 387.8125 -100.4140625 387.8125 Z " fill="#000000" transform="translate(229.4140625,35.1875)"/>
<path d="M0 0 C0.79277847 -0.01046356 1.58555695 -0.02092712 2.40235901 -0.03170776 C5.50712605 0.15380224 7.22718907 0.98750394 9.49389648 3.09326172 C10.56811523 5.58935547 10.56811523 5.58935547 11.18139648 8.53076172 C11.40827148 9.59294922 11.63514648 10.65513672 11.86889648 11.74951172 C12.07514648 12.85294922 12.28139648 13.95638672 12.49389648 15.09326172 C12.70014648 16.17607422 12.90639648 17.25888672 13.11889648 18.37451172 C13.94413185 23.00499907 14.60509835 27.38001326 14.49389648 32.09326172 C19.13760213 29.7714089 22.7241631 27.11242308 26.55639648 23.59326172 C35.62408348 15.2789324 35.62408348 15.2789324 40.83764648 14.76123047 C45.15388758 15.15319681 46.58380011 16.14176597 49.80639648 18.96826172 C50.74741211 19.78810547 51.68842773 20.60794922 52.65795898 21.45263672 C56.25611762 24.80298829 59.73533212 28.25143732 63.17358398 31.76513672 C65.74753339 34.34775262 68.43941842 36.72437313 71.20483398 39.09716797 C74.32529375 41.81825148 77.38077468 44.60683591 80.43139648 47.40576172 C81.30211792 48.19829346 81.30211792 48.19829346 82.19042969 49.00683594 C87.37895032 53.78141576 87.37895032 53.78141576 87.73999023 57.90185547 C87.45822501 61.55585849 86.60486384 63.15041392 84.55639648 66.15576172 C83.92733398 67.09162109 83.29827148 68.02748047 82.65014648 68.99169922 C81.93858398 70.01521484 81.22702148 71.03873047 80.49389648 72.09326172 C79.67041721 73.29339671 78.84751863 74.49393032 78.02514648 75.69482422 C75.86465104 78.83940858 73.68412794 81.96932615 71.49389648 85.09326172 C72.59060669 85.16843018 72.59060669 85.16843018 73.70947266 85.24511719 C77.03409819 85.47774866 80.35768907 85.72287506 83.68139648 85.96826172 C84.83188477 86.04689453 85.98237305 86.12552734 87.16772461 86.20654297 C88.83544922 86.33222656 88.83544922 86.33222656 90.53686523 86.46044922 C91.55804443 86.53376465 92.57922363 86.60708008 93.63134766 86.68261719 C97.37253999 87.21930678 100.24627814 88.14220416 103.265625 90.44384766 C104.82262355 92.53470081 104.9699498 93.89185388 105.14624023 96.48388672 C105.21053223 97.37398438 105.27482422 98.26408203 105.34106445 99.18115234 C105.39149902 100.14214844 105.44193359 101.10314453 105.49389648 102.09326172 C105.54819824 103.08003906 105.6025 104.06681641 105.65844727 105.08349609 C105.990976 111.91370042 106.19388145 118.74916525 106.38989258 125.58447266 C106.45730664 127.85882679 106.53265937 130.13296498 106.61743164 132.40673828 C106.72700355 135.42719285 106.80292878 138.44658167 106.86889648 141.46826172 C106.90700439 142.3702832 106.9451123 143.27230469 106.984375 144.20166016 C107.0376314 148.30595365 106.85951532 150.50438202 104.65795898 154.05029297 C100.1443035 156.96466559 95.75075218 157.61104073 90.49389648 158.40576172 C89.50905273 158.57398438 88.52420898 158.74220703 87.50952148 158.91552734 C83.11551814 159.64291303 78.95617213 160.18272715 74.49389648 160.09326172 C77.77303785 165.23290883 81.51026599 169.74151597 85.51538086 174.32568359 C92.42777405 182.3410171 92.42777405 182.3410171 92.61889648 187.40576172 C91.5252901 190.99036043 90.79706103 192.17082346 88.37670898 194.83935547 C87.74555176 195.53891357 87.11439453 196.23847168 86.46411133 196.95922852 C85.81394043 197.66345947 85.16376953 198.36769043 84.49389648 199.09326172 C83.89915527 199.73755127 83.30441406 200.38184082 82.69165039 201.0456543 C80.88429643 202.98643541 79.06602078 204.91634614 77.24389648 206.84326172 C73.0805759 211.25749672 68.93775663 215.68427291 64.87451172 220.19091797 C53.4092691 232.87465941 53.4092691 232.87465941 48.61889648 233.42138672 C45.02307179 233.04382513 43.28351246 232.11103472 40.30639648 230.09326172 C39.36666992 229.46291016 38.42694336 228.83255859 37.45874023 228.18310547 C33.47099692 225.37224556 29.52080204 222.5156119 25.61108398 219.59716797 C23.79084779 217.99674473 23.79084779 217.99674473 22.49389648 218.09326172 C22.42920166 218.88498779 22.36450684 219.67671387 22.29785156 220.49243164 C21.99061142 224.09096532 21.6488972 227.68541995 21.30639648 231.28076172 C21.20520508 232.52664063 21.10401367 233.77251953 20.99975586 235.05615234 C20.0976628 244.1502256 20.0976628 244.1502256 17.38061523 248.39404297 C13.72592747 250.54531384 10.63554816 250.94959605 6.49389648 251.09326172 C5.11524414 251.17084717 5.11524414 251.17084717 3.70874023 251.25 C-8.82556026 251.90432891 -21.39375508 252.20302374 -33.94360352 252.34326172 C-34.94907227 252.36461182 -35.95454102 252.38596191 -36.99047852 252.40795898 C-37.9224707 252.41239014 -38.85446289 252.41682129 -39.81469727 252.42138672 C-40.62737061 252.43073242 -41.44004395 252.44007813 -42.27734375 252.44970703 C-45.13397687 251.992846 -46.44877548 251.1134193 -48.50610352 249.09326172 C-49.31152344 247.05957031 -49.31152344 247.05957031 -49.73657227 244.74169922 C-49.89963867 243.88962891 -50.06270508 243.03755859 -50.23071289 242.15966797 C-50.3834668 241.27150391 -50.5362207 240.38333984 -50.69360352 239.46826172 C-50.85795898 238.60330078 -51.02231445 237.73833984 -51.19165039 236.84716797 C-52.22231518 231.28074353 -52.94064226 225.72502735 -53.50610352 220.09326172 C-57.37530382 222.95646994 -61.20655317 225.82854302 -64.90844727 228.90576172 C-65.51092285 229.39906982 -66.11339844 229.89237793 -66.73413086 230.40063477 C-67.93781043 231.38821589 -69.13256093 232.38680275 -70.31713867 233.3972168 C-74.24648557 236.59488837 -77.24675406 238.19591263 -82.50610352 238.09326172 C-85.27954102 236.53857422 -85.27954102 236.53857422 -87.88110352 234.21826172 C-88.8234082 233.38810547 -89.76571289 232.55794922 -90.73657227 231.70263672 C-94.03310477 228.59673585 -97.25289183 225.43211921 -100.41625977 222.19091797 C-102.26341452 220.33685796 -104.1460852 218.6090355 -106.13110352 216.90576172 C-107.5907192 215.63640144 -109.04877066 214.36524223 -110.50610352 213.09326172 C-111.09858887 212.58069824 -111.69107422 212.06813477 -112.30151367 211.54003906 C-114.36495778 209.74187338 -116.40498419 207.91949494 -118.44360352 206.09326172 C-119.45704834 205.22084839 -119.45704834 205.22084839 -120.4909668 204.33081055 C-123.69619719 201.42635107 -125.3192006 199.69290859 -126.63110352 195.48388672 C-126.48811939 191.60544226 -125.77886373 189.99663078 -123.56860352 186.84326172 C-122.60760742 185.44333984 -122.60760742 185.44333984 -121.62719727 184.01513672 C-115.67224184 175.81199371 -115.67224184 175.81199371 -113.10766602 172.40576172 C-111.35428261 170.10474672 -111.35428261 170.10474672 -110.50610352 167.09326172 C-111.70106445 167.03267578 -112.89602539 166.97208984 -114.12719727 166.90966797 C-118.19770832 166.6988072 -122.26662066 166.4663265 -126.33520508 166.22119141 C-128.06609656 166.11919105 -129.79773263 166.0298484 -131.52954102 165.94482422 C-136.35832282 165.59873406 -139.11260618 164.59280584 -142.50610352 161.09326172 C-143.64834131 158.80878614 -143.69454433 157.36161514 -143.80322266 154.81811523 C-143.84318863 153.93281631 -143.8831546 153.0475174 -143.92433167 152.13539124 C-143.96291794 151.17402756 -144.00150421 150.21266388 -144.04125977 149.22216797 C-144.08423691 148.23006821 -144.12721405 147.23796844 -144.17149353 146.21580505 C-144.26183354 144.10839835 -144.34994913 142.00089531 -144.43603516 139.89331055 C-144.56679414 136.69994988 -144.70478093 133.50696689 -144.84399414 130.31396484 C-144.93101677 128.26255092 -145.01761812 126.21111907 -145.10375977 124.15966797 C-145.14437027 123.21652237 -145.18498077 122.27337677 -145.2268219 121.301651 C-145.41758448 116.56718512 -145.56137558 111.83204487 -145.63354492 107.09423828 C-145.64890289 106.20891418 -145.66426086 105.32359009 -145.68008423 104.41143799 C-145.50610352 102.09326172 -145.50610352 102.09326172 -143.86938477 99.01123047 C-141.10061505 96.76417934 -139.18435046 96.09512935 -135.69360352 95.40576172 C-134.55922852 95.17888672 -133.42485352 94.95201172 -132.25610352 94.71826172 C-126.02401538 93.67958036 -119.78117331 92.83099468 -113.50610352 92.09326172 C-116.40699237 87.5494524 -119.60305621 83.47622272 -123.13110352 79.40576172 C-131.19434118 70.05877174 -131.19434118 70.05877174 -130.99438477 64.24951172 C-130.0009368 59.86244551 -126.59125782 57.18365398 -123.50610352 54.09326172 C-122.14507562 52.61764211 -120.78448654 51.1415931 -119.43139648 49.65869141 C-116.80718834 46.78730645 -114.15413935 43.94265465 -111.50610352 41.09326172 C-110.90717285 40.44776367 -110.30824219 39.80226562 -109.69116211 39.13720703 C-107.83930172 37.14199875 -105.98554256 35.14857329 -104.13110352 33.15576172 C-103.56061279 32.54144287 -102.99012207 31.92712402 -102.40234375 31.29418945 C-92.25277815 20.40852434 -92.25277815 20.40852434 -88.69360352 18.90576172 C-80.01715336 19.41614114 -72.25052069 27.01689418 -65.44750977 31.98388672 C-62.74282572 34.0406594 -62.74282572 34.0406594 -60.50610352 35.09326172 C-60.43093506 33.99655151 -60.43093506 33.99655151 -60.35424805 32.87768555 C-60.12161657 29.55306001 -59.87649018 26.22946913 -59.63110352 22.90576172 C-59.5524707 21.75527344 -59.47383789 20.60478516 -59.39282227 19.41943359 C-59.26713867 17.75170898 -59.26713867 17.75170898 -59.13891602 16.05029297 C-59.06560059 15.02911377 -58.99228516 14.00793457 -58.91674805 12.95581055 C-58.35712917 9.05478123 -57.70646007 6.17570159 -54.71856689 3.48132324 C-52.22046568 1.91405745 -50.81799631 1.67506558 -47.89624023 1.5690918 C-46.98784393 1.52927689 -46.07944763 1.48946198 -45.14352417 1.44844055 C-44.16747223 1.42017685 -43.19142029 1.39191315 -42.18579102 1.36279297 C-41.17195343 1.32264572 -40.15811584 1.28249847 -39.11355591 1.24113464 C-35.86974267 1.11610661 -32.62561559 1.0109124 -29.38110352 0.90576172 C-27.2195976 0.82433291 -25.05813801 0.7416642 -22.89672852 0.65771484 C-15.26591313 0.37139561 -7.63611291 0.09145071 0 0 Z M-23.50610352 17.53076172 C-24.68172852 17.57007812 -25.85735352 17.60939453 -27.06860352 17.64990234 C-28.20297852 17.69179687 -29.33735352 17.73369141 -30.50610352 17.77685547 C-31.53735352 17.81351318 -32.56860352 17.8501709 -33.63110352 17.88793945 C-36.36050061 18.08286328 -38.86794832 18.36335249 -41.50610352 19.09326172 C-42.67369173 21.42843815 -42.75107222 23.10471121 -42.93579102 25.70654297 C-43.00926758 26.625 -43.08274414 27.54345703 -43.15844727 28.48974609 C-43.3059508 30.42152486 -43.44666519 32.35383495 -43.58032227 34.28662109 C-44.34368611 43.54402502 -44.34368611 43.54402502 -47.50610352 47.09326172 C-50.39672852 48.92919922 -50.39672852 48.92919922 -53.75610352 50.46826172 C-55.40352539 51.25330078 -55.40352539 51.25330078 -57.08422852 52.05419922 C-61.27209169 53.3258563 -63.29207446 53.32740228 -67.50610352 52.09326172 C-70.83814319 50.14127512 -73.8786802 47.87452661 -76.94360352 45.53076172 C-77.77053711 44.91523438 -78.5974707 44.29970703 -79.44946289 43.66552734 C-81.47763846 42.15318834 -83.495733 40.62914276 -85.50610352 39.09326172 C-86.22024414 39.80869141 -86.93438477 40.52412109 -87.67016602 41.26123047 C-89.49164691 43.08335228 -91.32055347 44.89690039 -93.15454102 46.70654297 C-103.09593047 55.94099124 -103.09593047 55.94099124 -110.50610352 67.09326172 C-109.75844727 67.96208984 -109.01079102 68.83091797 -108.24047852 69.72607422 C-107.24551696 70.88999151 -106.25073484 72.05406221 -105.25610352 73.21826172 C-104.7649707 73.78802734 -104.27383789 74.35779297 -103.76782227 74.94482422 C-95.74176362 84.36206637 -95.74176362 84.36206637 -95.09985352 89.07763672 C-95.56365584 92.52047705 -96.57604298 95.18123897 -98.00610352 98.34326172 C-99.85420163 102.08518616 -99.85420163 102.08518616 -100.50610352 106.09326172 C-101.07530518 106.20395996 -101.64450684 106.3146582 -102.23095703 106.42871094 C-104.84412754 106.93876615 -107.45636016 107.45348001 -110.06860352 107.96826172 C-110.96385742 108.14228516 -111.85911133 108.31630859 -112.78149414 108.49560547 C-117.77279893 109.48289653 -122.63826363 110.61087426 -127.50610352 112.09326172 C-127.53554506 116.19741289 -127.55304879 120.30153628 -127.56860352 124.40576172 C-127.57698242 125.55367188 -127.58536133 126.70158203 -127.59399414 127.88427734 C-127.61419328 135.01457521 -127.3032847 142.00670744 -126.50610352 149.09326172 C-125.59900635 149.16843018 -125.59900635 149.16843018 -124.67358398 149.24511719 C-121.90872188 149.4785662 -119.14496985 149.72331589 -116.38110352 149.96826172 C-115.42977539 150.04689453 -114.47844727 150.12552734 -113.49829102 150.20654297 C-103.23977264 151.13265921 -103.23977264 151.13265921 -99.50610352 153.09326172 C-97.86631739 155.38777189 -96.73540962 157.27225911 -95.56860352 159.78076172 C-95.25342773 160.38082031 -94.93825195 160.98087891 -94.61352539 161.59912109 C-92.38415308 166.1808995 -92.08947695 169.22861954 -93.50610352 174.09326172 C-95.12526734 176.98923152 -97.02480974 179.62323292 -99.00610352 182.28076172 C-100.02183726 183.66620207 -101.03246265 185.05540554 -102.03735352 186.44873047 C-102.4865918 187.05354248 -102.93583008 187.65835449 -103.39868164 188.28149414 C-104.57854894 190.2117841 -105.07506713 191.88359144 -105.50610352 194.09326172 C-101.84281405 197.52823795 -98.17393346 200.9569514 -94.49438477 204.37451172 C-92.11702546 206.58338787 -89.75714982 208.80646846 -87.42407227 211.06201172 C-86.56426758 211.87669922 -85.70446289 212.69138672 -84.81860352 213.53076172 C-83.69905273 214.61164063 -83.69905273 214.61164063 -82.55688477 215.71435547 C-80.64578943 217.32657597 -80.64578943 217.32657597 -78.57836914 216.84521484 C-76.29911968 216.01815448 -75.06697381 215.08580178 -73.29907227 213.44091797 C-72.7119043 212.91175781 -72.12473633 212.38259766 -71.51977539 211.83740234 C-70.31060964 210.72393527 -69.10482142 209.60678823 -67.90258789 208.48583984 C-63.99015935 204.97446722 -60.87627909 202.83562713 -55.50610352 202.09326172 C-51.86547852 202.88623047 -51.86547852 202.88623047 -48.25610352 204.28076172 C-47.05469727 204.72806641 -45.85329102 205.17537109 -44.61547852 205.63623047 C-41.73967389 206.98381228 -40.4239813 207.67261285 -38.50610352 210.09326172 C-37.81420898 212.51342773 -37.81420898 212.51342773 -37.37329102 215.34716797 C-37.20700195 216.36617187 -37.04071289 217.38517578 -36.86938477 218.43505859 C-36.70825195 219.49789062 -36.54711914 220.56072266 -36.38110352 221.65576172 C-36.04772622 223.76163737 -35.71191035 225.86712887 -35.37329102 227.97216797 C-35.15842041 229.37317749 -35.15842041 229.37317749 -34.93920898 230.80249023 C-34.61063848 233.11191448 -34.61063848 233.11191448 -33.50610352 235.09326172 C-21.29610352 234.76326172 -9.08610352 234.43326172 3.49389648 234.09326172 C4.03039915 227.16932885 4.03039915 227.16932885 4.54003906 220.2434082 C5.01359224 214.61718243 5.60827648 209.99946128 8.49389648 205.09326172 C10.87670898 203.31591797 10.87670898 203.31591797 13.61889648 202.15576172 C14.50834961 201.75486328 15.39780273 201.35396484 16.31420898 200.94091797 C21.50576682 199.55692774 25.95445679 198.79907465 30.90112305 201.32006836 C33.37732742 202.98199596 35.71850649 204.74219161 38.05639648 206.59326172 C38.87430664 207.21330078 39.6922168 207.83333984 40.53491211 208.47216797 C42.53672747 209.99401591 44.52131595 211.53382881 46.49389648 213.09326172 C51.82724837 208.69255557 56.56598395 203.99146823 61.24389648 198.90576172 C62.55081598 197.49526054 63.85809393 196.08509138 65.16577148 194.67529297 C65.73392578 194.05887939 66.30208008 193.44246582 66.88745117 192.80737305 C68.49389648 191.09326172 68.49389648 191.09326172 70.20458984 189.51782227 C71.76534989 188.11990889 71.76534989 188.11990889 71.45092773 185.71826172 C70.25631 182.44159593 68.58541212 180.61137957 66.18139648 178.09326172 C56.70548131 168.0691531 56.70548131 168.0691531 56.49389648 163.09326172 C57.1135019 160.43942663 57.79480043 158.02565429 58.68139648 155.46826172 C58.89086914 154.80052734 59.1003418 154.13279297 59.31616211 153.44482422 C60.68502586 149.38291399 61.84563801 147.30399034 65.49389648 145.09326172 C68.04345703 144.40136719 68.04345703 144.40136719 70.88061523 143.96044922 C71.9009082 143.79416016 72.92120117 143.62787109 73.97241211 143.45654297 C75.56085938 143.21484375 75.56085938 143.21484375 77.18139648 142.96826172 C79.28999807 142.6356587 81.39810456 142.29989609 83.50561523 141.96044922 C84.90493286 141.74557861 84.90493286 141.74557861 86.33251953 141.52636719 C88.4652201 141.30673575 88.4652201 141.30673575 89.49389648 140.09326172 C89.5232539 137.43660667 89.48936042 134.80972964 89.40795898 132.15576172 C89.38671967 131.36049072 89.36548035 130.56521973 89.34359741 129.74584961 C89.29725638 128.06112678 89.24832195 126.37647363 89.19702148 124.69189453 C89.11923371 122.10447867 89.05208269 119.51693959 88.98608398 116.92919922 C88.93984875 115.29636848 88.89299459 113.66355512 88.84545898 112.03076172 C88.82560944 111.251604 88.80575989 110.47244629 88.78530884 109.66967773 C88.99196697 106.08193442 88.99196697 106.08193442 87.49389648 103.09326172 C85.9326149 102.90209965 84.36402635 102.76981945 82.79467773 102.66357422 C81.83239258 102.59009766 80.87010742 102.51662109 79.87866211 102.44091797 C77.85046748 102.29392866 75.82181005 102.15317564 73.79272461 102.01904297 C63.74978852 101.2305756 63.74978852 101.2305756 59.49389648 98.09326172 C57.52514648 94.98388672 57.52514648 94.98388672 55.99389648 91.34326172 C55.46795898 90.15216797 54.94202148 88.96107422 54.40014648 87.73388672 C53.27808558 83.22629722 53.67391981 81.35681114 55.49389648 77.09326172 C57.37590178 73.99028604 59.46363659 71.07361357 61.61889648 68.15576172 C62.1822168 67.37652344 62.74553711 66.59728516 63.32592773 65.79443359 C64.70648676 63.88739019 66.0958111 61.98747279 67.49389648 60.09326172 C63.77595719 55.59562213 59.95269976 51.50173152 55.61889648 47.59326172 C55.10294922 47.12621826 54.58700195 46.6591748 54.05541992 46.17797852 C49.91011082 42.4357214 45.72440252 38.73896251 41.49389648 35.09326172 C37.87018138 36.67174183 35.1802126 38.91481433 32.18139648 41.46826172 C21.70619487 50.09326172 21.70619487 50.09326172 16.18139648 50.09326172 C2.91535778 46.4956919 2.91535778 46.4956919 -0.50610352 41.09326172 C-1.19799805 38.54370117 -1.19799805 38.54370117 -1.63891602 35.70654297 C-1.88834961 34.17610352 -1.88834961 34.17610352 -2.14282227 32.61474609 C-2.30395508 31.55578125 -2.46508789 30.49681641 -2.63110352 29.40576172 C-2.96370654 27.29716013 -3.29946915 25.18905364 -3.63891602 23.08154297 C-3.85378662 21.68222534 -3.85378662 21.68222534 -4.07299805 20.25463867 C-4.29262949 18.12193811 -4.29262949 18.12193811 -5.50610352 17.09326172 C-11.49328932 16.89079327 -17.52220751 17.31095852 -23.50610352 17.53076172 Z " fill="#000000" transform="translate(373.506103515625,85.90673828125)"/>
<path d="M0 0 C0.76054687 0.57234375 1.52109375 1.1446875 2.3046875 1.734375 C13.75050935 11.00192626 22.32033874 26.55598419 24.71484375 41.0625 C26.63072447 60.79869586 23.54326912 79.05258428 11.25 95.1875 C-0.64004411 109.27019482 -15.50514469 118.67031386 -34 121 C-54.82483489 122.32600723 -73.49899917 117.33756524 -89.5390625 103.3671875 C-103.33333379 90.09841226 -110.66628445 72.55958163 -111.25 53.5 C-111.02862186 33.8219432 -103.61227141 17.9543024 -90.3125 3.8125 C-65.5119511 -19.96884826 -26.84480806 -21.08602085 0 0 Z M-82 20 C-90.93973719 31.42776386 -95.27049998 45.01750498 -93.59375 59.51171875 C-90.88004238 74.19481532 -83.98468314 86.55744026 -71.6875 95.3125 C-59.37352149 102.93028635 -46.70554421 105.90678148 -32.359375 103.3515625 C-18.18533882 99.69878225 -6.68198669 91.58149572 1.3125 79.25 C8.06483509 67.04313239 10.15901759 53.82359755 6.8125 40.1875 C2.28154267 26.07262833 -6.44146915 14.70860328 -19.59375 7.59765625 C-41.33103697 -2.93515836 -65.6548173 2.04012854 -82 20 Z " fill="#000000" transform="translate(397,159)"/>
</svg>
