<?xml version="1.0" encoding="UTF-8"?>
<svg xmlns="http://www.w3.org/2000/svg" xmlns:xlink="http://www.w3.org/1999/xlink" width="150px" height="150px" viewBox="0 0 150 150" version="1.1">
<g id="surface1">
<path style=" stroke:none;fill-rule:nonzero;fill:rgb(0%,0%,0%);fill-opacity:1;" d="M 60.765625 137.371094 C 56.886719 137.371094 53.097656 137.378906 49.308594 137.367188 C 39.652344 137.335938 30.941406 130.679688 28.375 121.371094 C 27.855469 119.476562 27.558594 117.558594 27.566406 115.570312 C 27.59375 101.570312 27.539062 87.566406 27.59375 73.5625 C 27.625 65.921875 31.003906 59.972656 37.210938 55.617188 C 39.769531 53.820312 42.605469 52.621094 45.726562 52.179688 C 46.488281 52.074219 46.871094 51.761719 46.84375 50.882812 C 46.75 47.933594 46.671875 44.984375 46.714844 42.035156 C 46.847656 33.109375 50.015625 25.523438 56.878906 19.65625 C 60.246094 16.785156 64.105469 14.859375 68.417969 13.765625 C 71.457031 12.996094 74.53125 12.742188 77.609375 13.027344 C 82.355469 13.464844 86.792969 14.957031 90.773438 17.652344 C 96.648438 21.628906 100.578125 26.996094 102.535156 33.84375 C 103.359375 36.71875 103.488281 39.648438 103.601562 42.578125 C 103.714844 45.46875 103.65625 48.363281 103.613281 51.257812 C 103.605469 51.886719 103.867188 52.066406 104.382812 52.152344 C 110.996094 53.234375 115.992188 56.75 119.582031 62.332031 C 121.109375 64.710938 122 67.332031 122.5 70.132812 C 122.769531 71.640625 122.761719 73.121094 122.761719 74.613281 C 122.777344 88.300781 122.886719 101.984375 122.726562 115.667969 C 122.621094 124.621094 118.222656 131.113281 110.3125 135.203125 C 107.289062 136.765625 104.011719 137.382812 100.601562 137.378906 C 87.351562 137.363281 74.101562 137.371094 60.765625 137.371094 M 112.046875 61.128906 C 108.851562 58.34375 105.128906 56.839844 100.894531 56.828125 C 83.882812 56.792969 66.871094 56.816406 49.859375 56.8125 C 47.128906 56.8125 44.519531 57.371094 42.085938 58.605469 C 37.222656 61.070312 34.207031 64.996094 33.011719 70.308594 C 32.535156 72.414062 32.554688 74.566406 32.550781 76.699219 C 32.535156 84.769531 32.488281 92.839844 32.605469 100.914062 C 32.675781 105.625 32.59375 110.34375 32.628906 115.058594 C 32.664062 119.730469 34.183594 123.839844 37.519531 127.1875 C 40.8125 130.488281 44.8125 132.230469 49.472656 132.238281 C 66.570312 132.269531 83.667969 132.246094 100.769531 132.257812 C 103.417969 132.261719 105.925781 131.683594 108.273438 130.476562 C 113.175781 127.957031 116.203125 123.980469 117.351562 118.582031 C 117.734375 116.792969 117.808594 114.96875 117.808594 113.148438 C 117.796875 104.441406 117.769531 95.734375 117.71875 87.027344 C 117.695312 82.714844 117.875 78.410156 117.746094 74.097656 C 117.597656 69.027344 115.902344 64.683594 112.046875 61.128906 M 52.023438 51.5 C 52.308594 51.785156 52.675781 51.691406 53.011719 51.691406 C 67.820312 51.695312 82.628906 51.6875 97.4375 51.703125 C 98.164062 51.703125 98.445312 51.523438 98.480469 50.742188 C 98.589844 48.082031 98.488281 45.421875 98.546875 42.761719 C 98.597656 40.671875 98.359375 38.617188 97.9375 36.574219 C 97 31.996094 94.871094 28.035156 91.519531 24.820312 C 85.710938 19.246094 78.742188 17.125 70.820312 18.503906 C 66.371094 19.277344 62.460938 21.328125 59.191406 24.464844 C 55.089844 28.40625 52.675781 33.183594 52.066406 38.894531 C 51.625 43.054688 51.988281 47.207031 52.023438 51.5 Z M 52.023438 51.5 "/>
<path style=" stroke:none;fill-rule:nonzero;fill:rgb(0%,0%,0%);fill-opacity:1;" d="M 61.9375 79.15625 C 63.507812 74.632812 66.558594 71.652344 71.015625 70.214844 C 76.910156 68.320312 83.660156 70.683594 87.03125 76.257812 C 88.65625 78.941406 89.378906 81.859375 89.035156 84.949219 C 88.664062 88.316406 87.269531 91.304688 84.742188 93.597656 C 83.886719 94.371094 83.949219 95.058594 84.160156 95.929688 C 84.703125 98.195312 85.257812 100.457031 85.808594 102.71875 C 86.457031 105.40625 87.023438 108.113281 87.777344 110.769531 C 88.59375 113.640625 86.109375 117.347656 83.066406 117.394531 C 77.832031 117.476562 72.59375 117.5 67.363281 117.390625 C 64.128906 117.324219 61.699219 113.730469 62.652344 110.53125 C 63.285156 108.414062 63.695312 106.226562 64.214844 104.074219 C 64.859375 101.414062 65.511719 98.761719 66.160156 96.101562 C 66.265625 95.65625 66.351562 95.203125 66.476562 94.761719 C 66.554688 94.472656 66.390625 94.34375 66.207031 94.1875 C 63.972656 92.3125 62.464844 89.941406 61.695312 87.148438 C 61.148438 85.15625 61.050781 83.109375 61.476562 81.0625 C 61.609375 80.445312 61.628906 79.800781 61.9375 79.15625 M 68.148438 109.867188 C 68.03125 110.339844 67.925781 110.816406 67.796875 111.289062 C 67.515625 112.332031 67.703125 112.59375 68.808594 112.597656 C 71.816406 112.609375 74.824219 112.605469 77.832031 112.605469 C 79.132812 112.609375 80.433594 112.609375 81.734375 112.601562 C 82.339844 112.601562 82.78125 112.394531 82.667969 111.6875 C 82.582031 111.175781 82.433594 110.679688 82.308594 110.175781 C 81.660156 107.523438 81 104.871094 80.355469 102.214844 C 79.804688 99.953125 79.300781 97.679688 78.714844 95.429688 C 78.148438 93.25 78.0625 92.382812 80.277344 90.832031 C 83.488281 88.578125 84.5625 85.105469 83.703125 81.511719 C 82.816406 77.804688 79.761719 75.242188 75.914062 74.917969 C 70.113281 74.425781 65.171875 79.382812 66.628906 85.84375 C 67.152344 88.15625 68.542969 89.949219 70.570312 91.230469 C 71.78125 91.992188 72.261719 93.039062 71.96875 94.035156 C 71.757812 94.75 71.585938 95.480469 71.414062 96.203125 C 70.898438 98.359375 70.394531 100.515625 69.882812 102.667969 C 69.320312 105.023438 68.757812 107.375 68.148438 109.867188 Z M 68.148438 109.867188 "/>
</g>
</svg>
