<?xml version="1.0" encoding="UTF-8"?>
<svg xmlns="http://www.w3.org/2000/svg" xmlns:xlink="http://www.w3.org/1999/xlink" width="150px" height="150px" viewBox="0 0 150 150" version="1.1">
<g id="surface1">
<path style=" stroke:none;fill-rule:nonzero;fill:rgb(0%,0%,0%);fill-opacity:1;" d="M 99.875 90.453125 C 99.875 100.316406 99.878906 110.097656 99.878906 119.878906 C 99.878906 121.898438 99.011719 122.761719 96.976562 122.761719 C 82.742188 122.761719 68.507812 122.769531 54.269531 122.75 C 53.417969 122.746094 52.722656 122.96875 52.019531 123.441406 C 41.699219 130.378906 31.367188 137.292969 21.046875 144.226562 C 20.113281 144.851562 19.175781 145.324219 18.066406 144.859375 C 16.714844 144.289062 16.277344 142.804688 17.015625 141.34375 C 19.007812 137.398438 21.015625 133.460938 23.023438 129.523438 C 24.019531 127.566406 25.03125 125.617188 26.035156 123.664062 C 26.152344 123.4375 26.285156 123.210938 26.226562 122.917969 C 25.898438 122.660156 25.507812 122.769531 25.148438 122.769531 C 19.652344 122.761719 14.152344 122.765625 8.65625 122.765625 C 6.496094 122.765625 5.59375 121.902344 5.578125 119.734375 C 5.550781 116.40625 5.570312 113.078125 5.574219 109.75 C 5.574219 102.664062 5.519531 95.574219 5.589844 88.488281 C 5.683594 79.085938 5.636719 69.683594 5.648438 60.28125 C 5.652344 57.707031 5.453125 55.132812 5.648438 52.5625 C 5.75 51.1875 6.484375 50.488281 7.847656 50.328125 C 8.160156 50.289062 8.480469 50.308594 8.800781 50.308594 C 22.3125 50.316406 35.824219 50.324219 49.335938 50.332031 C 50.476562 50.332031 50.476562 50.324219 50.476562 49.15625 C 50.476562 35.585938 50.472656 22.015625 50.46875 8.445312 C 50.46875 6.253906 51.378906 5.34375 53.566406 5.34375 C 82.933594 5.34375 112.300781 5.347656 141.671875 5.347656 C 143.878906 5.347656 144.804688 6.285156 144.804688 8.535156 C 144.796875 30.613281 144.789062 52.6875 144.78125 74.765625 C 144.777344 77.023438 143.871094 77.945312 141.640625 77.945312 C 135.910156 77.945312 130.183594 77.941406 124.453125 77.941406 C 124.339844 77.941406 124.230469 77.953125 124.054688 77.96875 C 124.230469 78.835938 124.722656 79.519531 125.09375 80.246094 C 127.808594 85.605469 130.554688 90.945312 133.285156 96.296875 C 133.679688 97.074219 133.960938 97.851562 133.554688 98.761719 C 133.011719 99.980469 131.570312 100.609375 130.386719 99.964844 C 128.554688 98.972656 126.898438 97.699219 125.167969 96.542969 C 117.019531 91.09375 108.882812 85.628906 100.738281 80.171875 C 100.527344 80.03125 100.34375 79.824219 99.875 79.84375 C 99.875 83.34375 99.875 86.855469 99.875 90.453125 M 55.101562 16.246094 C 55.097656 34.730469 55.09375 53.21875 55.089844 71.703125 C 55.089844 73.058594 55.097656 73.058594 56.40625 73.058594 C 70.003906 73.058594 83.601562 73.0625 97.199219 73.042969 C 98.203125 73.039062 99.050781 73.300781 99.875 73.851562 C 107.574219 79.03125 115.28125 84.199219 122.996094 89.359375 C 123.546875 89.726562 124.058594 90.195312 124.875 90.4375 C 124.660156 89.984375 124.523438 89.671875 124.371094 89.367188 C 122.238281 85.203125 120.097656 81.039062 117.980469 76.867188 C 117.65625 76.226562 117.363281 75.574219 117.679688 74.800781 C 118.15625 73.640625 118.992188 73.058594 120.390625 73.054688 C 126.523438 73.050781 132.65625 73.054688 138.789062 73.054688 C 140.074219 73.054688 140.082031 73.058594 140.082031 71.769531 C 140.082031 51.695312 140.078125 31.617188 140.074219 11.539062 C 140.074219 10.265625 140.066406 10.265625 138.773438 10.265625 C 121.847656 10.261719 104.925781 10.261719 88 10.261719 C 77.46875 10.261719 66.941406 10.265625 56.410156 10.265625 C 55.230469 10.265625 55.234375 10.269531 55.210938 11.480469 C 55.179688 13.011719 55.140625 14.542969 55.101562 16.246094 M 10.273438 104.425781 C 10.277344 108.535156 10.28125 112.644531 10.28125 116.753906 C 10.285156 117.863281 10.28125 117.867188 11.390625 117.867188 C 17.464844 117.859375 23.542969 117.855469 29.617188 117.847656 C 32.367188 117.847656 33.484375 119.644531 32.242188 122.0625 C 30.5 125.453125 28.746094 128.835938 27.03125 132.242188 C 26.546875 133.203125 25.964844 134.128906 25.585938 135.335938 C 26.09375 135.019531 26.464844 134.804688 26.820312 134.570312 C 29.539062 132.757812 32.257812 130.941406 34.96875 129.121094 C 40.085938 125.695312 45.203125 122.261719 50.316406 118.832031 C 51.167969 118.265625 52.03125 117.84375 53.121094 117.847656 C 66.71875 117.875 80.316406 117.867188 93.917969 117.871094 C 95.265625 117.875 95.273438 117.871094 95.273438 116.480469 C 95.28125 109.476562 95.285156 102.476562 95.285156 95.472656 C 95.285156 89.949219 95.265625 84.421875 95.285156 78.894531 C 95.289062 78.105469 95.039062 77.738281 94.238281 77.855469 C 93.339844 77.988281 92.449219 77.851562 91.550781 77.851562 C 80.007812 77.847656 68.464844 77.84375 56.921875 77.851562 C 55.707031 77.851562 54.492188 77.925781 53.277344 77.929688 C 51.730469 77.933594 50.429688 76.992188 50.453125 75.058594 C 50.523438 68.78125 50.476562 62.5 50.476562 56.222656 C 50.476562 55.0625 50.476562 55.0625 49.339844 55.0625 C 36.871094 55.066406 24.398438 55.066406 11.929688 55.070312 C 11.613281 55.070312 11.292969 55.082031 10.976562 55.070312 C 10.507812 55.050781 10.273438 55.25 10.285156 55.734375 C 10.292969 56.167969 10.277344 56.601562 10.277344 57.035156 C 10.277344 72.773438 10.273438 88.515625 10.273438 104.425781 Z M 10.273438 104.425781 "/>
</g>
</svg>
