<?xml version="1.0" encoding="UTF-8"?>
<svg xmlns="http://www.w3.org/2000/svg" xmlns:xlink="http://www.w3.org/1999/xlink" width="150px" height="150px" viewBox="0 0 150 150" version="1.1">
<g id="surface1">
<path style=" stroke:none;fill-rule:nonzero;fill:rgb(98.823529%,98.823529%,98.823529%);fill-opacity:1;" d="M 0.171875 39.234375 C 0.171875 26.160156 0.171875 13.167969 0.171875 0.175781 C 50.164062 0.175781 100.15625 0.175781 150.160156 0.175781 C 150.160156 50.15625 150.160156 100.140625 150.160156 150.148438 C 100.171875 150.148438 50.171875 150.148438 0.171875 150.148438 C 0.171875 113.210938 0.171875 76.269531 0.171875 39.234375 M 145.816406 60.503906 C 145.816406 55.730469 145.816406 50.957031 145.8125 46.179688 C 145.808594 36.402344 145.824219 26.621094 145.785156 16.84375 C 145.773438 13.835938 144.65625 11.199219 142.6875 8.949219 C 139.972656 5.835938 136.507812 4.496094 132.394531 4.5 C 94.257812 4.523438 56.125 4.511719 17.988281 4.515625 C 17.554688 4.515625 17.121094 4.523438 16.6875 4.542969 C 13.710938 4.652344 11.117188 5.742188 8.902344 7.699219 C 5.808594 10.429688 4.492188 13.898438 4.496094 18.015625 C 4.523438 56.121094 4.511719 94.226562 4.515625 132.332031 C 4.515625 132.796875 4.523438 133.257812 4.542969 133.722656 C 4.667969 136.664062 5.730469 139.238281 7.671875 141.429688 C 10.40625 144.511719 13.867188 145.855469 17.984375 145.851562 C 54.121094 145.824219 90.261719 145.835938 126.398438 145.835938 C 128.542969 145.835938 130.683594 145.820312 132.824219 145.835938 C 135.917969 145.859375 138.695312 144.941406 141.070312 142.964844 C 144.34375 140.242188 145.832031 136.722656 145.828125 132.460938 C 145.800781 108.535156 145.816406 84.605469 145.816406 60.503906 Z M 145.816406 60.503906 "/>
<path style=" stroke:none;fill-rule:nonzero;fill:rgb(2.745098%,2.745098%,2.745098%);fill-opacity:1;" d="M 145.816406 60.589844 C 145.816406 84.605469 145.800781 108.535156 145.828125 132.460938 C 145.832031 136.722656 144.34375 140.242188 141.070312 142.964844 C 138.695312 144.941406 135.917969 145.859375 132.824219 145.835938 C 130.683594 145.820312 128.542969 145.835938 126.398438 145.835938 C 90.261719 145.835938 54.121094 145.824219 17.984375 145.851562 C 13.867188 145.855469 10.40625 144.511719 7.671875 141.429688 C 5.730469 139.238281 4.667969 136.664062 4.542969 133.722656 C 4.523438 133.257812 4.515625 132.796875 4.515625 132.332031 C 4.511719 94.226562 4.523438 56.121094 4.496094 18.015625 C 4.492188 13.898438 5.808594 10.429688 8.902344 7.699219 C 11.117188 5.742188 13.710938 4.652344 16.6875 4.542969 C 17.121094 4.523438 17.554688 4.515625 17.988281 4.515625 C 56.125 4.511719 94.257812 4.523438 132.394531 4.5 C 136.507812 4.496094 139.972656 5.835938 142.6875 8.949219 C 144.65625 11.199219 145.773438 13.835938 145.785156 16.84375 C 145.824219 26.621094 145.808594 36.402344 145.8125 46.179688 C 145.816406 50.957031 145.816406 55.730469 145.816406 60.589844 M 121.789062 32.601562 C 84.492188 32.601562 47.195312 32.601562 9.894531 32.589844 C 9.152344 32.589844 8.757812 32.660156 8.757812 33.59375 C 8.785156 66.582031 8.777344 99.566406 8.792969 132.550781 C 8.796875 133.46875 8.875 134.421875 9.140625 135.289062 C 10.375 139.324219 13.515625 141.566406 17.863281 141.566406 C 56.054688 141.570312 94.25 141.570312 132.445312 141.554688 C 133.390625 141.554688 134.375 141.480469 135.269531 141.210938 C 139.335938 139.976562 141.597656 136.796875 141.597656 132.429688 C 141.601562 99.5 141.597656 66.574219 141.617188 33.644531 C 141.617188 32.789062 141.359375 32.578125 140.539062 32.582031 C 134.347656 32.613281 128.152344 32.601562 121.789062 32.601562 M 66.234375 28.308594 C 91.328125 28.308594 116.425781 28.308594 141.546875 28.308594 C 141.574219 28.027344 141.601562 27.886719 141.601562 27.746094 C 141.605469 24.304688 141.625 20.859375 141.585938 17.417969 C 141.578125 16.617188 141.46875 15.789062 141.234375 15.027344 C 139.996094 11.019531 136.84375 8.777344 132.488281 8.777344 C 94.273438 8.773438 56.054688 8.773438 17.839844 8.789062 C 16.921875 8.789062 15.96875 8.859375 15.097656 9.121094 C 11.121094 10.308594 8.820312 13.445312 8.785156 17.632812 C 8.757812 20.816406 8.777344 24 8.777344 27.179688 C 8.777344 28.304688 8.777344 28.308594 9.90625 28.308594 C 28.625 28.308594 47.339844 28.308594 66.234375 28.308594 Z M 66.234375 28.308594 "/>
<path style=" stroke:none;fill-rule:nonzero;fill:rgb(99.215686%,99.215686%,99.215686%);fill-opacity:1;" d="M 121.875 32.601562 C 128.152344 32.601562 134.347656 32.613281 140.539062 32.582031 C 141.359375 32.578125 141.617188 32.789062 141.617188 33.644531 C 141.597656 66.574219 141.601562 99.5 141.597656 132.429688 C 141.597656 136.796875 139.335938 139.976562 135.269531 141.210938 C 134.375 141.480469 133.390625 141.554688 132.445312 141.554688 C 94.25 141.570312 56.054688 141.570312 17.863281 141.566406 C 13.515625 141.566406 10.375 139.324219 9.140625 135.289062 C 8.875 134.421875 8.796875 133.46875 8.792969 132.550781 C 8.777344 99.566406 8.785156 66.582031 8.757812 33.59375 C 8.757812 32.660156 9.152344 32.589844 9.894531 32.589844 C 47.195312 32.601562 84.492188 32.601562 121.875 32.601562 M 42.96875 105.417969 C 40.363281 105.417969 37.761719 105.398438 35.15625 105.421875 C 31.859375 105.453125 29.429688 107.804688 29.402344 111.089844 C 29.359375 116.472656 29.355469 121.855469 29.40625 127.234375 C 29.4375 130.527344 31.882812 132.863281 35.183594 132.863281 C 62.757812 132.871094 90.332031 132.871094 117.90625 132.863281 C 121.3125 132.863281 123.769531 130.429688 123.78125 127.03125 C 123.796875 121.765625 123.800781 116.5 123.765625 111.234375 C 123.761719 110.472656 123.613281 109.664062 123.324219 108.960938 C 122.28125 106.445312 120.261719 105.417969 117.617188 105.417969 C 92.792969 105.417969 67.96875 105.417969 42.96875 105.417969 M 85.796875 98.707031 C 86.25 98.527344 86.714844 98.367188 87.160156 98.164062 C 95.964844 94.09375 101.757812 87.441406 104.25 78.03125 C 105.824219 72.082031 105.613281 66.136719 103.414062 60.394531 C 99.429688 49.996094 91.964844 43.460938 81.039062 41.136719 C 73.839844 39.609375 66.929688 40.710938 60.53125 44.351562 C 52.746094 48.777344 47.8125 55.398438 45.816406 64.160156 C 44.679688 69.148438 44.902344 74.101562 46.292969 78.992188 C 47.648438 83.773438 50.136719 87.9375 53.589844 91.5 C 58.265625 96.324219 63.953125 99.253906 70.574219 100.304688 C 75.730469 101.125 80.773438 100.558594 85.796875 98.707031 Z M 85.796875 98.707031 "/>
<path style=" stroke:none;fill-rule:nonzero;fill:rgb(98.823529%,98.823529%,98.823529%);fill-opacity:1;" d="M 66.144531 28.308594 C 47.339844 28.308594 28.625 28.308594 9.90625 28.308594 C 8.777344 28.308594 8.777344 28.304688 8.777344 27.179688 C 8.777344 24 8.757812 20.816406 8.785156 17.632812 C 8.820312 13.445312 11.121094 10.308594 15.097656 9.121094 C 15.96875 8.859375 16.921875 8.789062 17.839844 8.789062 C 56.054688 8.773438 94.273438 8.773438 132.488281 8.777344 C 136.84375 8.777344 139.996094 11.019531 141.234375 15.027344 C 141.46875 15.789062 141.578125 16.617188 141.585938 17.417969 C 141.625 20.859375 141.605469 24.304688 141.601562 27.746094 C 141.601562 27.886719 141.574219 28.027344 141.546875 28.308594 C 116.425781 28.308594 91.328125 28.308594 66.144531 28.308594 M 123.523438 16.378906 C 109.089844 16.378906 94.652344 16.375 80.214844 16.386719 C 79.703125 16.386719 79.164062 16.417969 78.679688 16.570312 C 77.582031 16.90625 77.027344 18.15625 77.425781 19.230469 C 77.8125 20.277344 78.523438 20.683594 79.996094 20.683594 C 96.457031 20.683594 112.917969 20.683594 129.378906 20.683594 C 129.695312 20.683594 130.019531 20.699219 130.332031 20.660156 C 131.097656 20.566406 131.683594 20.175781 132.027344 19.476562 C 132.78125 17.945312 131.71875 16.410156 129.859375 16.386719 C 127.804688 16.355469 125.753906 16.378906 123.523438 16.378906 M 18.8125 20.390625 C 19.226562 20.488281 19.640625 20.660156 20.058594 20.671875 C 21.414062 20.707031 22.769531 20.695312 24.125 20.679688 C 25.546875 20.667969 26.535156 19.761719 26.523438 18.511719 C 26.511719 17.289062 25.5625 16.410156 24.15625 16.382812 C 22.800781 16.355469 21.445312 16.363281 20.089844 16.382812 C 18.953125 16.398438 18.171875 16.917969 17.835938 17.816406 C 17.507812 18.703125 17.789062 19.53125 18.8125 20.390625 M 34.636719 20.6875 C 35.359375 20.683594 36.082031 20.707031 36.804688 20.671875 C 37.882812 20.617188 38.757812 19.796875 38.851562 18.789062 C 38.960938 17.617188 38.3125 16.574219 37.128906 16.484375 C 35.378906 16.351562 33.605469 16.359375 31.855469 16.480469 C 30.710938 16.558594 30.003906 17.597656 30.078125 18.675781 C 30.152344 19.769531 31.046875 20.628906 32.207031 20.671875 C 32.957031 20.703125 33.710938 20.683594 34.636719 20.6875 M 49.414062 16.425781 C 47.824219 16.410156 46.230469 16.351562 44.644531 16.394531 C 43.335938 16.433594 42.402344 17.449219 42.460938 18.617188 C 42.523438 19.832031 43.449219 20.664062 44.796875 20.679688 C 46.1875 20.695312 47.574219 20.695312 48.960938 20.679688 C 50.171875 20.664062 51.042969 19.960938 51.195312 18.921875 C 51.378906 17.683594 50.839844 16.878906 49.414062 16.425781 Z M 49.414062 16.425781 "/>
<path style=" stroke:none;fill-rule:nonzero;fill:rgb(2.745098%,2.745098%,2.745098%);fill-opacity:1;" d="M 43.054688 105.417969 C 67.96875 105.417969 92.792969 105.417969 117.617188 105.417969 C 120.261719 105.417969 122.28125 106.445312 123.324219 108.960938 C 123.613281 109.664062 123.761719 110.472656 123.765625 111.234375 C 123.800781 116.5 123.796875 121.765625 123.78125 127.03125 C 123.769531 130.429688 121.3125 132.863281 117.90625 132.863281 C 90.332031 132.871094 62.757812 132.871094 35.183594 132.863281 C 31.882812 132.863281 29.4375 130.527344 29.40625 127.234375 C 29.355469 121.855469 29.359375 116.472656 29.402344 111.089844 C 29.429688 107.804688 31.859375 105.453125 35.15625 105.421875 C 37.761719 105.398438 40.363281 105.417969 43.054688 105.417969 M 57.378906 128.527344 C 77.453125 128.527344 97.527344 128.527344 117.601562 128.527344 C 119.113281 128.527344 119.445312 128.21875 119.445312 126.808594 C 119.445312 121.746094 119.445312 116.6875 119.445312 111.625 C 119.445312 110.105469 119.082031 109.746094 117.554688 109.746094 C 90.21875 109.746094 62.886719 109.746094 35.550781 109.746094 C 34.082031 109.746094 33.664062 110.167969 33.664062 111.664062 C 33.660156 116.667969 33.660156 121.671875 33.664062 126.675781 C 33.664062 128.125 34.066406 128.527344 35.511719 128.527344 C 42.742188 128.53125 49.972656 128.527344 57.378906 128.527344 Z M 57.378906 128.527344 "/>
<path style=" stroke:none;fill-rule:nonzero;fill:rgb(2.745098%,2.745098%,2.745098%);fill-opacity:1;" d="M 85.738281 98.742188 C 80.773438 100.558594 75.730469 101.125 70.574219 100.304688 C 63.953125 99.253906 58.265625 96.324219 53.589844 91.5 C 50.136719 87.9375 47.648438 83.773438 46.292969 78.992188 C 44.902344 74.101562 44.679688 69.148438 45.816406 64.160156 C 47.8125 55.398438 52.746094 48.777344 60.53125 44.351562 C 66.929688 40.710938 73.839844 39.609375 81.039062 41.136719 C 91.964844 43.460938 99.429688 49.996094 103.414062 60.394531 C 105.613281 66.136719 105.824219 72.082031 104.25 78.03125 C 101.757812 87.441406 95.964844 94.09375 87.160156 98.164062 C 86.714844 98.367188 86.25 98.527344 85.738281 98.742188 M 97.074219 57.019531 C 90.320312 46.613281 78.175781 42.207031 66.707031 46.253906 C 51.464844 51.628906 45.011719 68.988281 52.554688 82.875 C 52.820312 83.363281 53.125 83.835938 53.464844 84.398438 C 59.527344 78.320312 66.6875 75.09375 75.171875 75.085938 C 83.6875 75.078125 90.871094 78.3125 96.839844 84.332031 C 101.507812 77.632812 102.90625 66.46875 97.074219 57.019531 M 60.96875 92.082031 C 72.5625 99.707031 86.816406 96.429688 94.097656 87.917969 C 84.609375 76.59375 65.929688 76.457031 56.070312 88.082031 C 57.671875 89.390625 59.269531 90.695312 60.96875 92.082031 Z M 60.96875 92.082031 "/>
<path style=" stroke:none;fill-rule:nonzero;fill:rgb(3.137255%,3.137255%,3.137255%);fill-opacity:1;" d="M 123.609375 16.378906 C 125.753906 16.378906 127.804688 16.355469 129.859375 16.386719 C 131.71875 16.410156 132.78125 17.945312 132.027344 19.476562 C 131.683594 20.175781 131.097656 20.566406 130.332031 20.660156 C 130.019531 20.699219 129.695312 20.683594 129.378906 20.683594 C 112.917969 20.683594 96.457031 20.683594 79.996094 20.683594 C 78.523438 20.683594 77.8125 20.277344 77.425781 19.230469 C 77.027344 18.15625 77.582031 16.90625 78.679688 16.570312 C 79.164062 16.417969 79.703125 16.386719 80.214844 16.386719 C 94.652344 16.375 109.089844 16.378906 123.609375 16.378906 Z M 123.609375 16.378906 "/>
<path style=" stroke:none;fill-rule:nonzero;fill:rgb(4.313725%,4.313725%,4.313725%);fill-opacity:1;" d="M 18.753906 20.359375 C 17.789062 19.53125 17.507812 18.703125 17.835938 17.816406 C 18.171875 16.917969 18.953125 16.398438 20.089844 16.382812 C 21.445312 16.363281 22.800781 16.355469 24.15625 16.382812 C 25.5625 16.410156 26.511719 17.289062 26.523438 18.511719 C 26.535156 19.761719 25.546875 20.667969 24.125 20.679688 C 22.769531 20.695312 21.414062 20.707031 20.058594 20.671875 C 19.640625 20.660156 19.226562 20.488281 18.753906 20.359375 Z M 18.753906 20.359375 "/>
<path style=" stroke:none;fill-rule:nonzero;fill:rgb(4.313725%,4.313725%,4.313725%);fill-opacity:1;" d="M 34.546875 20.6875 C 33.710938 20.683594 32.957031 20.703125 32.207031 20.671875 C 31.046875 20.628906 30.152344 19.769531 30.078125 18.675781 C 30.003906 17.597656 30.710938 16.558594 31.855469 16.480469 C 33.605469 16.359375 35.378906 16.351562 37.128906 16.484375 C 38.3125 16.574219 38.960938 17.617188 38.851562 18.789062 C 38.757812 19.796875 37.882812 20.617188 36.804688 20.671875 C 36.082031 20.707031 35.359375 20.683594 34.546875 20.6875 Z M 34.546875 20.6875 "/>
<path style=" stroke:none;fill-rule:nonzero;fill:rgb(4.313725%,4.313725%,4.313725%);fill-opacity:1;" d="M 49.484375 16.441406 C 50.839844 16.878906 51.378906 17.683594 51.195312 18.921875 C 51.042969 19.960938 50.171875 20.664062 48.960938 20.679688 C 47.574219 20.695312 46.1875 20.695312 44.796875 20.679688 C 43.449219 20.664062 42.523438 19.832031 42.460938 18.617188 C 42.402344 17.449219 43.335938 16.433594 44.644531 16.394531 C 46.230469 16.351562 47.824219 16.410156 49.484375 16.441406 Z M 49.484375 16.441406 "/>
<path style=" stroke:none;fill-rule:nonzero;fill:rgb(98.039216%,98.039216%,98.039216%);fill-opacity:1;" d="M 57.292969 128.527344 C 49.972656 128.527344 42.742188 128.53125 35.511719 128.527344 C 34.066406 128.527344 33.664062 128.125 33.664062 126.675781 C 33.660156 121.671875 33.660156 116.667969 33.664062 111.664062 C 33.664062 110.167969 34.082031 109.746094 35.550781 109.746094 C 62.886719 109.746094 90.21875 109.746094 117.554688 109.746094 C 119.082031 109.746094 119.445312 110.105469 119.445312 111.625 C 119.445312 116.6875 119.445312 121.746094 119.445312 126.808594 C 119.445312 128.21875 119.113281 128.527344 117.601562 128.527344 C 97.527344 128.527344 77.453125 128.527344 57.292969 128.527344 M 51.105469 119.183594 C 51.386719 118.949219 51.65625 118.707031 51.945312 118.488281 C 52.9375 117.75 53.191406 116.589844 52.578125 115.582031 C 52.011719 114.660156 50.796875 114.332031 49.753906 114.828125 C 49.457031 114.96875 49.171875 115.140625 48.847656 115.3125 C 48.488281 112.980469 47.960938 112.140625 46.695312 112.164062 C 44.703125 112.195312 44.363281 113.65625 44.378906 115.300781 C 42.347656 114.386719 41.308594 114.425781 40.667969 115.503906 C 40.417969 115.921875 40.171875 116.585938 40.335938 116.949219 C 40.710938 117.785156 41.339844 118.503906 41.90625 119.332031 C 40.761719 119.976562 39.597656 120.957031 40.566406 122.628906 C 41.535156 124.300781 42.960938 123.777344 44.296875 122.96875 C 44.746094 125.414062 45.238281 126.164062 46.503906 126.113281 C 48.414062 126.039062 48.746094 124.636719 48.773438 123.003906 C 49.289062 123.226562 49.691406 123.4375 50.117188 123.585938 C 51.046875 123.90625 52.09375 123.496094 52.585938 122.65625 C 53.101562 121.773438 52.976562 120.726562 52.222656 120.046875 C 51.90625 119.761719 51.519531 119.550781 51.105469 119.183594 M 72.78125 117.429688 C 73.191406 114.941406 71.808594 114.175781 68.832031 115.238281 C 68.335938 112.816406 67.851562 112.085938 66.59375 112.15625 C 64.683594 112.265625 64.398438 113.695312 64.367188 115.328125 C 64.035156 115.160156 63.808594 115.050781 63.589844 114.9375 C 62.394531 114.304688 61.183594 114.578125 60.5625 115.621094 C 59.925781 116.703125 60.238281 117.835938 61.386719 118.597656 C 61.628906 118.761719 61.863281 118.941406 62.128906 119.136719 C 60.214844 120.636719 59.839844 121.339844 60.460938 122.46875 C 61.445312 124.269531 62.867188 123.804688 64.277344 123.007812 C 64.75 125.421875 65.21875 126.117188 66.464844 126.105469 C 66.921875 126.101562 67.582031 125.972656 67.800781 125.660156 C 68.320312 124.902344 68.632812 124.003906 69.039062 123.136719 C 71.09375 123.863281 71.90625 123.800781 72.542969 122.660156 C 72.761719 122.261719 72.972656 121.625 72.804688 121.28125 C 72.414062 120.480469 71.792969 119.789062 71.265625 119.054688 C 71.667969 118.644531 72.199219 118.097656 72.78125 117.429688 M 84.429688 123.679688 C 84.4375 123.824219 84.4375 123.96875 84.453125 124.109375 C 84.617188 125.351562 85.507812 126.171875 86.636719 126.128906 C 87.804688 126.082031 88.632812 125.164062 88.679688 123.875 C 88.6875 123.601562 88.710938 123.328125 88.726562 123.050781 C 89.472656 123.289062 90.136719 123.632812 90.824219 123.6875 C 91.613281 123.746094 92.253906 123.253906 92.644531 122.554688 C 93.238281 121.5 92.828125 120.632812 91.015625 119.117188 C 91.316406 118.914062 91.589844 118.726562 91.867188 118.535156 C 92.859375 117.851562 93.183594 116.601562 92.621094 115.652344 C 92.015625 114.636719 90.789062 114.3125 89.667969 114.875 C 89.382812 115.019531 89.09375 115.160156 88.691406 115.355469 C 88.691406 114.863281 88.703125 114.546875 88.6875 114.230469 C 88.625 113.039062 87.707031 112.136719 86.574219 112.144531 C 85.46875 112.148438 84.585938 113 84.484375 114.164062 C 84.453125 114.519531 84.425781 114.875 84.390625 115.328125 C 84.039062 115.152344 83.808594 115.046875 83.585938 114.929688 C 82.390625 114.300781 81.1875 114.578125 80.5625 115.628906 C 79.925781 116.691406 80.253906 117.863281 81.394531 118.605469 C 81.636719 118.765625 81.871094 118.941406 82.199219 119.171875 C 81.761719 119.441406 81.457031 119.597656 81.183594 119.804688 C 80.492188 120.328125 80.101562 121.03125 80.261719 121.90625 C 80.429688 122.792969 80.953125 123.515625 81.882812 123.601562 C 82.496094 123.65625 83.152344 123.410156 83.761719 123.21875 C 84.140625 123.101562 84.433594 122.921875 84.429688 123.679688 M 105.265625 112.628906 C 104.890625 113.476562 104.515625 114.320312 104.117188 115.210938 C 104.007812 115.152344 103.738281 114.992188 103.460938 114.851562 C 102.332031 114.292969 101.128906 114.636719 100.535156 115.683594 C 99.984375 116.660156 100.316406 117.882812 101.3125 118.554688 C 101.582031 118.738281 101.851562 118.921875 102.152344 119.125 C 100.335938 120.527344 99.859375 121.484375 100.488281 122.546875 C 100.726562 122.941406 101.140625 123.28125 101.550781 123.511719 C 102.5625 124.085938 103.414062 123.363281 104.417969 122.953125 C 104.351562 124.582031 104.648438 126.054688 106.503906 126.089844 C 108.402344 126.125 108.753906 124.648438 108.722656 122.929688 C 110.203125 123.800781 111.578125 124.226562 112.605469 122.597656 C 113.285156 121.515625 112.949219 120.84375 111.03125 119.105469 C 112.328125 118.304688 113.574219 117.34375 112.589844 115.664062 C 111.632812 114.027344 110.183594 114.515625 108.835938 115.304688 C 108.300781 112.296875 107.363281 111.578125 105.265625 112.628906 Z M 105.265625 112.628906 "/>
<path style=" stroke:none;fill-rule:nonzero;fill:rgb(98.823529%,98.823529%,98.823529%);fill-opacity:1;" d="M 97.105469 57.074219 C 102.90625 66.46875 101.507812 77.632812 96.839844 84.332031 C 90.871094 78.3125 83.6875 75.078125 75.171875 75.085938 C 66.6875 75.09375 59.527344 78.320312 53.464844 84.398438 C 53.125 83.835938 52.820312 83.363281 52.554688 82.875 C 45.011719 68.988281 51.464844 51.628906 66.707031 46.253906 C 78.175781 42.207031 90.320312 46.613281 97.105469 57.074219 M 86.238281 64.960938 C 86.941406 62.835938 87.085938 60.691406 86.644531 58.472656 C 85.757812 54.035156 81.695312 50.078125 77.230469 49.417969 C 70.644531 48.441406 65.054688 52.316406 63.644531 58.84375 C 62.332031 64.902344 66.738281 71.453125 72.835938 72.515625 C 78.722656 73.539062 84 70.601562 86.238281 64.960938 Z M 86.238281 64.960938 "/>
<path style=" stroke:none;fill-rule:nonzero;fill:rgb(98.823529%,98.823529%,98.823529%);fill-opacity:1;" d="M 60.917969 92.042969 C 59.269531 90.695312 57.671875 89.390625 56.070312 88.082031 C 65.929688 76.457031 84.609375 76.59375 94.097656 87.917969 C 86.816406 96.429688 72.5625 99.707031 60.917969 92.042969 Z M 60.917969 92.042969 "/>
<path style=" stroke:none;fill-rule:nonzero;fill:rgb(2.745098%,2.745098%,2.745098%);fill-opacity:1;" d="M 51.132812 119.246094 C 51.519531 119.550781 51.90625 119.761719 52.222656 120.046875 C 52.976562 120.726562 53.101562 121.773438 52.585938 122.65625 C 52.09375 123.496094 51.046875 123.90625 50.117188 123.585938 C 49.691406 123.4375 49.289062 123.226562 48.773438 123.003906 C 48.746094 124.636719 48.414062 126.039062 46.503906 126.113281 C 45.238281 126.164062 44.746094 125.414062 44.296875 122.96875 C 42.960938 123.777344 41.535156 124.300781 40.566406 122.628906 C 39.597656 120.957031 40.761719 119.976562 41.90625 119.332031 C 41.339844 118.503906 40.710938 117.785156 40.335938 116.949219 C 40.171875 116.585938 40.417969 115.921875 40.667969 115.503906 C 41.308594 114.425781 42.347656 114.386719 44.378906 115.300781 C 44.363281 113.65625 44.703125 112.195312 46.695312 112.164062 C 47.960938 112.140625 48.488281 112.980469 48.847656 115.3125 C 49.171875 115.140625 49.457031 114.96875 49.753906 114.828125 C 50.796875 114.332031 52.011719 114.660156 52.578125 115.582031 C 53.191406 116.589844 52.9375 117.75 51.945312 118.488281 C 51.65625 118.707031 51.386719 118.949219 51.132812 119.246094 Z M 51.132812 119.246094 "/>
<path style=" stroke:none;fill-rule:nonzero;fill:rgb(2.745098%,2.745098%,2.745098%);fill-opacity:1;" d="M 72.757812 117.492188 C 72.199219 118.097656 71.667969 118.644531 71.265625 119.054688 C 71.792969 119.789062 72.414062 120.480469 72.804688 121.28125 C 72.972656 121.625 72.761719 122.261719 72.542969 122.660156 C 71.90625 123.800781 71.09375 123.863281 69.039062 123.136719 C 68.632812 124.003906 68.320312 124.902344 67.800781 125.660156 C 67.582031 125.972656 66.921875 126.101562 66.464844 126.105469 C 65.21875 126.117188 64.75 125.421875 64.277344 123.007812 C 62.867188 123.804688 61.445312 124.269531 60.460938 122.46875 C 59.839844 121.339844 60.214844 120.636719 62.128906 119.136719 C 61.863281 118.941406 61.628906 118.761719 61.386719 118.597656 C 60.238281 117.835938 59.925781 116.703125 60.5625 115.621094 C 61.183594 114.578125 62.394531 114.304688 63.589844 114.9375 C 63.808594 115.050781 64.035156 115.160156 64.367188 115.328125 C 64.398438 113.695312 64.683594 112.265625 66.59375 112.15625 C 67.851562 112.085938 68.335938 112.816406 68.832031 115.238281 C 71.808594 114.175781 73.191406 114.941406 72.757812 117.492188 Z M 72.757812 117.492188 "/>
<path style=" stroke:none;fill-rule:nonzero;fill:rgb(2.745098%,2.745098%,2.745098%);fill-opacity:1;" d="M 84.429688 123.605469 C 84.433594 122.921875 84.140625 123.101562 83.761719 123.21875 C 83.152344 123.410156 82.496094 123.65625 81.882812 123.601562 C 80.953125 123.515625 80.429688 122.792969 80.261719 121.90625 C 80.101562 121.03125 80.492188 120.328125 81.183594 119.804688 C 81.457031 119.597656 81.761719 119.441406 82.199219 119.171875 C 81.871094 118.941406 81.636719 118.765625 81.394531 118.605469 C 80.253906 117.863281 79.925781 116.691406 80.5625 115.628906 C 81.1875 114.578125 82.390625 114.300781 83.585938 114.929688 C 83.808594 115.046875 84.039062 115.152344 84.390625 115.328125 C 84.425781 114.875 84.453125 114.519531 84.484375 114.164062 C 84.585938 113 85.46875 112.148438 86.574219 112.144531 C 87.707031 112.136719 88.625 113.039062 88.6875 114.230469 C 88.703125 114.546875 88.691406 114.863281 88.691406 115.355469 C 89.09375 115.160156 89.382812 115.019531 89.667969 114.875 C 90.789062 114.3125 92.015625 114.636719 92.621094 115.652344 C 93.183594 116.601562 92.859375 117.851562 91.867188 118.535156 C 91.589844 118.726562 91.316406 118.914062 91.015625 119.117188 C 92.828125 120.632812 93.238281 121.5 92.644531 122.554688 C 92.253906 123.253906 91.613281 123.746094 90.824219 123.6875 C 90.136719 123.632812 89.472656 123.289062 88.726562 123.050781 C 88.710938 123.328125 88.6875 123.601562 88.679688 123.875 C 88.632812 125.164062 87.804688 126.082031 86.636719 126.128906 C 85.507812 126.171875 84.617188 125.351562 84.453125 124.109375 C 84.4375 123.96875 84.4375 123.824219 84.429688 123.605469 Z M 84.429688 123.605469 "/>
<path style=" stroke:none;fill-rule:nonzero;fill:rgb(2.352941%,2.352941%,2.352941%);fill-opacity:1;" d="M 105.316406 112.585938 C 107.363281 111.578125 108.300781 112.296875 108.835938 115.304688 C 110.183594 114.515625 111.632812 114.027344 112.589844 115.664062 C 113.574219 117.34375 112.328125 118.304688 111.03125 119.105469 C 112.949219 120.84375 113.285156 121.515625 112.605469 122.597656 C 111.578125 124.226562 110.203125 123.800781 108.722656 122.929688 C 108.753906 124.648438 108.402344 126.125 106.503906 126.089844 C 104.648438 126.054688 104.351562 124.582031 104.417969 122.953125 C 103.414062 123.363281 102.5625 124.085938 101.550781 123.511719 C 101.140625 123.28125 100.726562 122.941406 100.488281 122.546875 C 99.859375 121.484375 100.335938 120.527344 102.152344 119.125 C 101.851562 118.921875 101.582031 118.738281 101.3125 118.554688 C 100.316406 117.882812 99.984375 116.660156 100.535156 115.683594 C 101.128906 114.636719 102.332031 114.292969 103.460938 114.851562 C 103.738281 114.992188 104.007812 115.152344 104.117188 115.210938 C 104.515625 114.320312 104.890625 113.476562 105.316406 112.585938 Z M 105.316406 112.585938 "/>
<path style=" stroke:none;fill-rule:nonzero;fill:rgb(2.745098%,2.745098%,2.745098%);fill-opacity:1;" d="M 86.210938 65.023438 C 84 70.601562 78.722656 73.539062 72.835938 72.515625 C 66.738281 71.453125 62.332031 64.902344 63.644531 58.84375 C 65.054688 52.316406 70.644531 48.441406 77.230469 49.417969 C 81.695312 50.078125 85.757812 54.035156 86.644531 58.472656 C 87.085938 60.691406 86.941406 62.835938 86.210938 65.023438 M 70.523438 55.148438 C 67.742188 57.535156 66.941406 61.019531 68.4375 64.203125 C 70.128906 67.796875 74.308594 69.375 78.105469 67.851562 C 81.566406 66.464844 83.414062 62.34375 82.292969 58.753906 C 80.878906 54.21875 75.15625 51.699219 70.523438 55.148438 Z M 70.523438 55.148438 "/>
<path style=" stroke:none;fill-rule:nonzero;fill:rgb(98.431373%,98.431373%,98.431373%);fill-opacity:1;" d="M 70.570312 55.105469 C 75.15625 51.699219 80.878906 54.21875 82.292969 58.753906 C 83.414062 62.34375 81.566406 66.464844 78.105469 67.851562 C 74.308594 69.375 70.128906 67.796875 68.4375 64.203125 C 66.941406 61.019531 67.742188 57.535156 70.570312 55.105469 Z M 70.570312 55.105469 "/>
</g>
</svg>
