<?xml version="1.0" encoding="UTF-8"?>
<svg xmlns="http://www.w3.org/2000/svg" xmlns:xlink="http://www.w3.org/1999/xlink" width="150px" height="150px" viewBox="0 0 150 150" version="1.1">
<g id="surface1">
<path style=" stroke:none;fill-rule:nonzero;fill:rgb(0%,0%,0%);fill-opacity:1;" d="M 0.171875 122.394531 C 0.171875 118.976562 0.171875 115.558594 0.214844 112.019531 C 1.027344 110.785156 1.988281 110.34375 2.949219 110.652344 C 4.132812 111.027344 4.71875 111.902344 4.71875 113.3125 C 4.722656 115.828125 4.699219 118.347656 4.722656 120.863281 C 4.75 123.796875 7.179688 126.515625 10.074219 126.910156 C 12.234375 127.203125 14.40625 126.992188 16.574219 127.070312 C 17.414062 127.097656 17.667969 126.785156 17.667969 125.957031 C 17.648438 100.441406 17.648438 74.925781 17.664062 49.410156 C 17.664062 48.730469 17.449219 48.292969 16.902344 47.890625 C 13.128906 45.113281 9.378906 42.308594 5.617188 39.519531 C 5.394531 39.355469 5.195312 39.109375 4.8125 39.183594 C 4.636719 39.644531 4.722656 40.136719 4.722656 40.617188 C 4.714844 60.433594 4.714844 80.25 4.714844 100.066406 C 4.714844 101.019531 4.730469 101.972656 4.703125 102.929688 C 4.675781 104.117188 4.070312 104.875 2.9375 105.203125 C 1.820312 105.53125 1.027344 105.132812 0.171875 103.820312 C 0.171875 78.46875 0.171875 53.117188 0.199219 27.625 C 0.273438 27.351562 0.34375 27.222656 0.378906 27.085938 C 1.78125 21.894531 6.117188 18.546875 11.554688 18.554688 C 21.5 18.570312 31.445312 18.652344 41.394531 18.667969 C 62.332031 18.691406 83.269531 18.753906 104.207031 18.621094 C 115.773438 18.550781 127.339844 18.546875 138.910156 18.574219 C 141.5625 18.582031 144.023438 19.371094 146.136719 21.089844 C 148.292969 22.839844 149.566406 25.101562 150.171875 27.777344 C 150.171875 34.496094 150.171875 41.210938 150.125 48.042969 C 149.179688 49.292969 148.339844 49.640625 147.347656 49.300781 C 146.132812 48.886719 145.644531 48.117188 145.640625 46.621094 C 145.640625 44.453125 145.644531 42.28125 145.632812 40.113281 C 145.628906 39.785156 145.753906 39.417969 145.460938 39.144531 C 145.242188 39.101562 145.113281 39.230469 144.976562 39.332031 C 141.222656 42.128906 137.480469 44.945312 133.699219 47.710938 C 132.941406 48.269531 132.675781 48.875 132.675781 49.8125 C 132.699219 75.066406 132.695312 100.316406 132.695312 125.570312 C 132.695312 125.800781 132.703125 126.035156 132.695312 126.265625 C 132.675781 126.8125 132.945312 127.0625 133.480469 127.058594 C 135.503906 127.046875 137.535156 127.109375 139.554688 127.003906 C 141.921875 126.886719 143.707031 125.707031 144.871094 123.632812 C 145.484375 122.546875 145.652344 121.363281 145.652344 120.125 C 145.640625 99.007812 145.640625 77.890625 145.644531 56.773438 C 145.644531 55.25 146.3125 54.257812 147.488281 53.992188 C 148.5625 53.746094 149.480469 54.28125 150.171875 55.554688 C 150.171875 63.140625 150.171875 70.726562 150.144531 78.34375 C 149.992188 78.140625 150.097656 77.765625 149.691406 77.6875 C 149.195312 77.933594 149.191406 78.4375 149.117188 78.875 C 148.507812 82.304688 148.832031 85.734375 149.183594 89.160156 C 149.238281 89.675781 149.480469 90.113281 149.917969 90.476562 C 150.027344 90.242188 150.101562 90.085938 150.171875 89.929688 C 150.171875 100.699219 150.171875 111.464844 150.164062 122.378906 C 149.929688 123.269531 149.765625 124.039062 149.46875 124.753906 C 147.613281 129.230469 143.589844 131.78125 138.40625 131.78125 C 113.621094 131.785156 88.835938 131.78125 64.050781 131.78125 C 46.753906 131.78125 29.460938 131.789062 12.164062 131.78125 C 7.554688 131.777344 3.84375 130.082031 1.441406 125.972656 C 0.789062 124.855469 0.542969 123.605469 0.171875 122.394531 M 128.078125 59.460938 C 128.078125 57.035156 128.078125 54.609375 128.078125 52.160156 C 127.578125 52.210938 127.40625 52.425781 127.203125 52.578125 C 120.546875 57.53125 113.890625 62.488281 107.234375 67.441406 C 98.769531 73.746094 90.3125 80.058594 81.832031 86.34375 C 77.976562 89.203125 72.949219 89.371094 69.015625 86.636719 C 65.386719 84.109375 61.882812 81.402344 58.332031 78.761719 C 46.613281 70.046875 34.902344 61.324219 23.179688 52.609375 C 22.941406 52.433594 22.742188 52.132812 22.3125 52.226562 C 22.296875 52.507812 22.273438 52.792969 22.273438 53.078125 C 22.269531 77.347656 22.269531 101.621094 22.269531 125.894531 C 22.269531 126.996094 22.335938 127.0625 23.464844 127.0625 C 57.921875 127.0625 92.375 127.054688 126.832031 127.050781 C 128.066406 127.050781 128.078125 127.027344 128.078125 125.769531 C 128.078125 103.726562 128.078125 81.679688 128.078125 59.460938 M 57.304688 50.242188 C 62.988281 54.46875 68.683594 58.6875 74.347656 62.9375 C 74.976562 63.410156 75.40625 63.40625 76.019531 62.945312 C 79.851562 60.050781 83.703125 57.1875 87.554688 54.320312 C 101.078125 44.25 114.605469 34.179688 128.128906 24.109375 C 128.34375 23.953125 128.65625 23.855469 128.636719 23.367188 C 92.96875 23.3125 57.316406 23.3125 21.542969 23.34375 C 21.785156 23.878906 22.054688 24 22.285156 24.171875 C 25.023438 26.207031 27.765625 28.234375 30.492188 30.289062 C 31.761719 31.246094 31.992188 32.546875 31.15625 33.6875 C 30.375 34.746094 28.996094 34.917969 27.765625 34.078125 C 27.121094 33.636719 26.511719 33.148438 25.882812 32.683594 C 22.238281 29.976562 18.621094 27.230469 14.941406 24.570312 C 12.34375 22.699219 8.671875 23.042969 6.589844 25.222656 C 4.265625 27.652344 4.082031 31.179688 6.171875 33.84375 C 7.007812 34.90625 8.175781 35.589844 9.238281 36.382812 C 20.53125 44.800781 31.839844 53.195312 43.136719 61.601562 C 52.414062 68.511719 61.679688 75.433594 70.960938 82.339844 C 73.671875 84.355469 76.660156 84.363281 79.378906 82.34375 C 85.929688 77.480469 92.464844 72.597656 99.003906 67.726562 C 109.421875 59.96875 119.835938 52.214844 130.253906 44.457031 C 134.542969 41.257812 138.847656 38.082031 143.113281 34.847656 C 145.660156 32.917969 146.339844 29.527344 144.886719 26.753906 C 143.117188 23.382812 138.464844 22.144531 134.882812 24.902344 C 131.46875 27.527344 127.976562 30.054688 124.519531 32.632812 C 115.898438 39.0625 107.28125 45.503906 98.652344 51.933594 C 91.464844 57.289062 84.265625 62.632812 77.074219 67.988281 C 75.59375 69.089844 74.828125 69.117188 73.335938 68.007812 C 66.046875 62.589844 58.761719 57.164062 51.476562 51.738281 C 46.1875 47.800781 40.90625 43.851562 35.613281 39.917969 C 34.820312 39.332031 34.429688 38.578125 34.5625 37.601562 C 34.703125 36.578125 35.339844 35.953125 36.304688 35.648438 C 37.265625 35.347656 37.984375 35.882812 38.683594 36.402344 C 44.859375 40.984375 51.03125 45.578125 57.304688 50.242188 Z M 57.304688 50.242188 "/>
</g>
</svg>
