<?xml version="1.0" encoding="UTF-8"?>
<svg xmlns="http://www.w3.org/2000/svg" xmlns:xlink="http://www.w3.org/1999/xlink" width="150px" height="150px" viewBox="0 0 150 150" version="1.1">
<g id="surface1">
<path style=" stroke:none;fill-rule:nonzero;fill:rgb(0%,0%,0%);fill-opacity:1;" d="M 84.367188 15.460938 C 90.886719 22.671875 97.359375 29.839844 103.839844 37.003906 C 110.667969 44.558594 117.5 52.105469 124.328125 59.65625 C 127.199219 62.832031 130.0625 66.011719 132.929688 69.191406 C 134.273438 70.679688 135.25 72.363281 135.527344 74.378906 C 135.78125 76.210938 134.835938 78.765625 132.453125 80.054688 C 131.195312 80.734375 129.847656 81.132812 128.398438 81.128906 C 125.765625 81.128906 123.132812 81.132812 120.5 81.132812 C 118.964844 81.132812 118.964844 81.128906 118.960938 82.710938 C 118.960938 88.292969 118.960938 93.878906 118.960938 99.460938 C 118.960938 108.75 119.023438 118.035156 118.9375 127.324219 C 118.890625 132.320312 116.355469 135.894531 111.984375 138.179688 C 110.25 139.082031 108.363281 139.472656 106.386719 139.457031 C 102.363281 139.429688 98.339844 139.378906 94.324219 139.484375 C 92.230469 139.535156 90.894531 137.761719 90.902344 136.0625 C 90.949219 124.980469 90.898438 113.898438 90.945312 102.816406 C 90.960938 99.320312 88.863281 96.914062 86.15625 96.210938 C 85.753906 96.105469 85.363281 96.050781 84.960938 96.050781 C 78.421875 96.046875 71.882812 96.035156 65.34375 96.054688 C 62.929688 96.0625 60.476562 97.992188 59.742188 100.289062 C 59.492188 101.078125 59.414062 101.859375 59.414062 102.667969 C 59.417969 113.78125 59.414062 124.890625 59.421875 136 C 59.421875 137.554688 58.773438 138.648438 57.339844 139.28125 C 56.949219 139.453125 56.550781 139.449219 56.148438 139.449219 C 51.867188 139.449219 47.582031 139.539062 43.304688 139.421875 C 38.566406 139.292969 34.167969 136.367188 32.25 131.644531 C 31.601562 130.046875 31.375 128.390625 31.378906 126.65625 C 31.402344 112.164062 31.390625 97.667969 31.386719 83.171875 C 31.386719 82.855469 31.359375 82.535156 31.386719 82.21875 C 31.464844 81.398438 31.140625 81.109375 30.296875 81.121094 C 27.519531 81.164062 24.742188 81.117188 21.964844 81.140625 C 20.871094 81.148438 19.835938 80.902344 18.839844 80.515625 C 15.238281 79.125 13.628906 75.449219 15.722656 71.546875 C 16.316406 70.441406 17.117188 69.496094 17.953125 68.570312 C 24.253906 61.59375 30.550781 54.613281 36.855469 47.644531 C 41.976562 41.980469 47.109375 36.328125 52.230469 30.664062 C 56.925781 25.476562 61.625 20.285156 66.296875 15.074219 C 68.320312 12.8125 70.78125 11.285156 73.789062 10.9375 C 77.4375 10.511719 80.625 11.683594 83.261719 14.269531 C 83.632812 14.636719 83.972656 15.03125 84.367188 15.460938 M 127.953125 72.828125 C 125.0625 69.632812 122.167969 66.4375 119.28125 63.238281 C 114.066406 57.464844 108.851562 51.6875 103.640625 45.914062 C 98.582031 40.308594 93.523438 34.703125 88.460938 29.101562 C 85.359375 25.667969 82.289062 22.203125 79.125 18.828125 C 76.828125 16.375 73.535156 16.410156 71.230469 18.839844 C 69.28125 20.894531 67.402344 23.019531 65.503906 25.125 C 58.398438 33.007812 51.308594 40.90625 44.191406 48.78125 C 37.273438 56.445312 30.320312 64.078125 23.40625 71.746094 C 22.589844 72.652344 21.609375 73.457031 21.140625 74.652344 C 21.652344 75.054688 22.207031 75.011719 22.75 75.015625 C 26.367188 75.015625 29.988281 75.082031 33.601562 74.988281 C 36.039062 74.921875 37.554688 76.445312 37.546875 78.921875 C 37.492188 94.980469 37.550781 111.039062 37.484375 127.097656 C 37.472656 129.882812 39.902344 133.300781 43.746094 133.324219 C 46.582031 133.339844 49.417969 133.304688 52.253906 133.34375 C 53.039062 133.355469 53.371094 133.109375 53.332031 132.3125 C 53.308594 131.796875 53.402344 131.273438 53.402344 130.753906 C 53.410156 121.089844 53.417969 111.425781 53.398438 101.761719 C 53.394531 100.703125 53.574219 99.695312 53.867188 98.699219 C 55.230469 94.046875 59.671875 89.941406 65.6875 89.933594 C 72.023438 89.925781 78.363281 89.921875 84.699219 89.929688 C 87.773438 89.929688 90.472656 90.960938 92.777344 92.984375 C 95.824219 95.660156 97.085938 99.078125 97.058594 103.085938 C 97.011719 110.785156 97.039062 118.480469 97.03125 126.175781 C 97.027344 128.203125 97.035156 130.226562 97 132.253906 C 96.984375 133.0625 97.273438 133.359375 98.113281 133.34375 C 100.890625 133.296875 103.667969 133.316406 106.445312 133.328125 C 110.40625 133.34375 112.878906 129.910156 112.867188 126.882812 C 112.792969 110.792969 112.84375 94.707031 112.816406 78.617188 C 112.8125 76.59375 114.300781 75.011719 116.304688 75.070312 C 119.917969 75.179688 123.535156 75.109375 127.152344 75.097656 C 127.859375 75.09375 128.589844 75.121094 129.222656 74.664062 C 128.96875 73.941406 128.496094 73.433594 127.953125 72.828125 Z M 127.953125 72.828125 "/>
</g>
</svg>
