<?xml version="1.0" encoding="UTF-8"?>
<svg xmlns="http://www.w3.org/2000/svg" xmlns:xlink="http://www.w3.org/1999/xlink" width="150px" height="150px" viewBox="0 0 150 150" version="1.1">
<g id="surface1">
<path style=" stroke:none;fill-rule:nonzero;fill:rgb(99.607843%,99.607843%,99.607843%);fill-opacity:1;" d="M 0.171875 52.777344 C 0.171875 35.1875 0.171875 17.683594 0.171875 0.175781 C 50.164062 0.175781 100.152344 0.175781 150.160156 0.175781 C 150.160156 50.15625 150.160156 100.140625 150.160156 150.148438 C 100.171875 150.148438 50.171875 150.148438 0.171875 150.148438 C 0.171875 117.726562 0.171875 85.296875 0.171875 52.777344 M 140.390625 6.792969 C 137.644531 6.246094 134.898438 5.703125 132.148438 5.15625 C 128.4375 4.421875 124.726562 3.699219 121.019531 2.941406 C 120.046875 2.742188 119.171875 2.75 118.492188 3.578125 C 117.8125 4.410156 117.960938 5.265625 118.414062 6.160156 C 119.742188 8.785156 121.011719 11.4375 122.375 14.046875 C 122.75 14.765625 122.558594 15.011719 121.910156 15.328125 C 112.855469 19.710938 103.8125 24.117188 94.765625 28.515625 C 92.671875 29.535156 90.574219 30.546875 88.414062 31.589844 C 88.285156 31.324219 88.160156 31.132812 88.089844 30.925781 C 85.246094 22.453125 82.402344 13.976562 79.570312 5.5 C 78.910156 3.527344 77.347656 3.082031 75.773438 4.449219 C 73.546875 6.382812 71.324219 8.316406 69.101562 10.253906 C 54.359375 23.105469 39.617188 35.960938 24.871094 48.8125 C 17.839844 54.945312 10.796875 61.070312 3.78125 67.226562 C 3.34375 67.613281 2.933594 68.238281 2.855469 68.800781 C 2.621094 70.523438 4.351562 71.5 6.082031 70.664062 C 9.195312 69.164062 12.300781 67.632812 15.410156 66.121094 C 28.398438 59.808594 41.386719 53.496094 54.371094 47.183594 C 56.648438 46.078125 58.929688 44.976562 61.246094 43.855469 C 61.390625 44.164062 61.519531 44.386719 61.601562 44.628906 C 63.003906 48.808594 64.398438 52.996094 65.800781 57.179688 C 67.265625 61.554688 68.722656 65.933594 70.210938 70.300781 C 70.695312 71.730469 72.1875 72.199219 73.4375 71.351562 C 73.964844 70.996094 74.453125 70.589844 74.957031 70.199219 C 92.613281 56.59375 110.269531 42.984375 127.925781 29.375 C 128.394531 29.015625 128.875 28.660156 129.417969 28.253906 C 129.632812 28.648438 129.800781 28.945312 129.953125 29.246094 C 130.730469 30.792969 131.488281 32.347656 132.289062 33.882812 C 132.496094 34.277344 132.78125 34.691406 133.140625 34.945312 C 134.21875 35.707031 135.511719 35.3125 136.15625 34.015625 C 137.484375 31.328125 138.769531 28.621094 140.070312 25.917969 C 142.433594 21.011719 144.804688 16.105469 147.160156 11.191406 C 147.9375 9.570312 147.347656 8.191406 145.722656 7.84375 C 143.996094 7.476562 142.261719 7.164062 140.390625 6.792969 M 122.917969 74.738281 C 122.917969 98.109375 122.917969 121.484375 122.917969 144.855469 C 122.917969 146.859375 123.609375 147.539062 125.628906 147.539062 C 132.050781 147.542969 138.472656 147.542969 144.894531 147.539062 C 146.832031 147.539062 147.539062 146.828125 147.539062 144.867188 C 147.539062 111.75 147.539062 78.628906 147.539062 45.511719 C 147.539062 43.589844 146.851562 42.890625 144.953125 42.890625 C 138.472656 42.886719 131.992188 42.886719 125.515625 42.890625 C 123.601562 42.890625 122.917969 43.578125 122.917969 45.496094 C 122.917969 55.1875 122.917969 64.875 122.917969 74.738281 M 107.488281 133.765625 C 107.488281 118.808594 107.488281 103.851562 107.488281 88.890625 C 107.488281 82.554688 107.492188 76.21875 107.488281 69.882812 C 107.484375 68.09375 106.730469 67.335938 104.96875 67.335938 C 98.429688 67.328125 91.890625 67.328125 85.351562 67.335938 C 83.664062 67.335938 82.851562 68.152344 82.851562 69.847656 C 82.847656 94.902344 82.847656 119.960938 82.851562 145.015625 C 82.851562 146.777344 83.632812 147.539062 85.402344 147.539062 C 91.914062 147.542969 98.421875 147.542969 104.933594 147.539062 C 106.773438 147.539062 107.484375 146.828125 107.488281 144.964844 C 107.496094 141.289062 107.488281 137.617188 107.488281 133.765625 M 67.496094 105.296875 C 67.496094 101.679688 67.5 98.0625 67.496094 94.445312 C 67.492188 92.609375 66.746094 91.859375 64.929688 91.859375 C 58.417969 91.855469 51.910156 91.855469 45.402344 91.859375 C 43.578125 91.859375 42.859375 92.550781 42.859375 94.347656 C 42.855469 111.242188 42.855469 128.136719 42.859375 145.03125 C 42.859375 146.824219 43.589844 147.539062 45.386719 147.539062 C 51.808594 147.542969 58.230469 147.542969 64.652344 147.542969 C 66.828125 147.542969 67.496094 146.875 67.496094 144.695312 C 67.496094 131.621094 67.496094 118.542969 67.496094 105.296875 M 16.058594 116.339844 C 12.503906 116.339844 8.945312 116.335938 5.390625 116.34375 C 3.53125 116.347656 2.808594 117.066406 2.808594 118.898438 C 2.804688 127.574219 2.804688 136.25 2.808594 144.925781 C 2.808594 146.816406 3.527344 147.539062 5.417969 147.539062 C 11.867188 147.542969 18.3125 147.542969 24.761719 147.539062 C 26.722656 147.539062 27.429688 146.839844 27.429688 144.894531 C 27.429688 136.25 27.429688 127.605469 27.429688 118.957031 C 27.429688 117.046875 26.730469 116.347656 24.820312 116.34375 C 21.957031 116.335938 19.09375 116.339844 16.058594 116.339844 Z M 16.058594 116.339844 "/>
<path style=" stroke:none;fill-rule:nonzero;fill:rgb(2.745098%,2.745098%,2.745098%);fill-opacity:1;" d="M 140.460938 6.808594 C 142.261719 7.164062 143.996094 7.476562 145.722656 7.84375 C 147.347656 8.191406 147.9375 9.570312 147.160156 11.191406 C 144.804688 16.105469 142.433594 21.011719 140.070312 25.917969 C 138.769531 28.621094 137.484375 31.328125 136.15625 34.015625 C 135.511719 35.3125 134.21875 35.707031 133.140625 34.945312 C 132.78125 34.691406 132.496094 34.277344 132.289062 33.882812 C 131.488281 32.347656 130.730469 30.792969 129.953125 29.246094 C 129.800781 28.945312 129.632812 28.648438 129.417969 28.253906 C 128.875 28.660156 128.394531 29.015625 127.925781 29.375 C 110.269531 42.984375 92.613281 56.59375 74.957031 70.199219 C 74.453125 70.589844 73.964844 70.996094 73.4375 71.351562 C 72.1875 72.199219 70.695312 71.730469 70.210938 70.300781 C 68.722656 65.933594 67.265625 61.554688 65.800781 57.179688 C 64.398438 52.996094 63.003906 48.808594 61.601562 44.628906 C 61.519531 44.386719 61.390625 44.164062 61.246094 43.855469 C 58.929688 44.976562 56.648438 46.078125 54.371094 47.183594 C 41.386719 53.496094 28.398438 59.808594 15.410156 66.121094 C 12.300781 67.632812 9.195312 69.164062 6.082031 70.664062 C 4.351562 71.5 2.621094 70.523438 2.855469 68.800781 C 2.933594 68.238281 3.34375 67.613281 3.78125 67.226562 C 10.796875 61.070312 17.839844 54.945312 24.871094 48.8125 C 39.617188 35.960938 54.359375 23.105469 69.101562 10.253906 C 71.324219 8.316406 73.546875 6.382812 75.773438 4.449219 C 77.347656 3.082031 78.910156 3.527344 79.570312 5.5 C 82.402344 13.976562 85.246094 22.453125 88.089844 30.925781 C 88.160156 31.132812 88.285156 31.324219 88.414062 31.589844 C 90.574219 30.546875 92.671875 29.535156 94.765625 28.515625 C 103.8125 24.117188 112.855469 19.710938 121.910156 15.328125 C 122.558594 15.011719 122.75 14.765625 122.375 14.046875 C 121.011719 11.4375 119.742188 8.785156 118.414062 6.160156 C 117.960938 5.265625 117.8125 4.410156 118.492188 3.578125 C 119.171875 2.75 120.046875 2.742188 121.019531 2.941406 C 124.726562 3.699219 128.4375 4.421875 132.148438 5.15625 C 134.898438 5.703125 137.644531 6.246094 140.460938 6.808594 M 29.859375 50 C 29.859375 50 29.839844 49.976562 29.730469 49.976562 C 29.636719 50.085938 29.546875 50.195312 29.359375 50.347656 C 29.179688 50.519531 28.996094 50.691406 28.707031 50.859375 C 28.617188 50.96875 28.523438 51.078125 28.332031 51.238281 C 28.03125 51.519531 27.730469 51.796875 27.3125 52.085938 C 27.164062 52.246094 27.015625 52.410156 26.761719 52.621094 C 26.117188 53.195312 25.472656 53.765625 24.710938 54.34375 C 24.496094 54.558594 24.285156 54.773438 23.972656 55.035156 C 23.671875 55.316406 23.371094 55.59375 22.960938 55.878906 C 22.867188 55.988281 22.777344 56.097656 22.585938 56.257812 C 22.285156 56.53125 21.980469 56.808594 21.566406 57.085938 C 21.453125 57.21875 21.339844 57.351562 21.136719 57.535156 C 21.039062 57.632812 20.9375 57.730469 20.722656 57.824219 C 20.511719 58.039062 20.300781 58.253906 19.988281 58.511719 C 19.835938 58.660156 19.683594 58.808594 19.410156 58.980469 C 19.164062 59.230469 18.921875 59.480469 18.679688 59.730469 C 18.757812 59.796875 18.832031 59.867188 18.910156 59.933594 C 19.402344 59.65625 19.898438 59.375 20.480469 59.082031 C 20.539062 59.054688 20.59375 59.027344 20.757812 59.027344 C 20.867188 58.9375 20.980469 58.847656 21.183594 58.75 C 21.238281 58.722656 21.292969 58.691406 21.449219 58.683594 C 21.566406 58.601562 21.679688 58.515625 21.90625 58.414062 C 22.066406 58.324219 22.230469 58.238281 22.519531 58.167969 C 23.015625 57.886719 23.511719 57.609375 24.128906 57.3125 C 24.527344 57.109375 24.925781 56.910156 25.445312 56.730469 C 25.785156 56.535156 26.125 56.339844 26.558594 56.132812 C 26.613281 56.105469 26.671875 56.078125 26.832031 56.070312 C 26.945312 55.984375 27.058594 55.898438 27.265625 55.796875 C 27.316406 55.761719 27.367188 55.726562 27.519531 55.714844 C 27.636719 55.640625 27.757812 55.566406 27.980469 55.464844 C 28.144531 55.375 28.304688 55.285156 28.59375 55.210938 C 29.09375 54.933594 29.589844 54.660156 30.15625 54.378906 C 30.15625 54.378906 30.210938 54.34375 30.320312 54.371094 C 30.433594 54.28125 30.542969 54.191406 30.773438 54.082031 C 30.980469 53.976562 31.191406 53.867188 31.523438 53.785156 C 31.863281 53.585938 32.199219 53.386719 32.652344 53.175781 C 32.816406 53.085938 32.980469 52.992188 33.261719 52.929688 C 33.605469 52.730469 33.945312 52.53125 34.378906 52.328125 C 34.433594 52.300781 34.488281 52.269531 34.667969 52.253906 C 35.125 52 35.578125 51.742188 36.125 51.472656 C 36.179688 51.445312 36.230469 51.417969 36.410156 51.410156 C 36.675781 51.242188 36.941406 51.074219 37.304688 50.894531 C 37.363281 50.867188 37.421875 50.835938 37.585938 50.839844 C 37.695312 50.75 37.804688 50.664062 38.007812 50.566406 C 38.066406 50.539062 38.125 50.511719 38.289062 50.503906 C 38.398438 50.417969 38.511719 50.332031 38.714844 50.234375 C 38.769531 50.199219 38.820312 50.164062 38.988281 50.148438 C 39.214844 50.003906 39.4375 49.859375 39.753906 49.707031 C 39.808594 49.683594 39.867188 49.65625 40.03125 49.65625 C 40.140625 49.566406 40.253906 49.476562 40.457031 49.378906 C 40.511719 49.347656 40.5625 49.316406 40.722656 49.308594 C 40.835938 49.230469 40.953125 49.148438 41.179688 49.046875 C 41.339844 48.953125 41.5 48.863281 41.789062 48.792969 C 42.285156 48.515625 42.785156 48.238281 43.382812 47.945312 C 43.441406 47.917969 43.5 47.890625 43.664062 47.886719 C 43.773438 47.800781 43.882812 47.714844 44.105469 47.609375 C 44.269531 47.515625 44.433594 47.421875 44.707031 47.363281 C 44.816406 47.277344 44.925781 47.191406 45.128906 47.089844 C 45.183594 47.0625 45.238281 47.03125 45.402344 47.03125 C 45.515625 46.941406 45.625 46.855469 45.828125 46.757812 C 45.886719 46.734375 45.941406 46.707031 46.105469 46.703125 C 46.21875 46.617188 46.332031 46.527344 46.535156 46.429688 C 46.585938 46.394531 46.640625 46.363281 46.808594 46.34375 C 47.03125 46.199219 47.257812 46.054688 47.570312 45.902344 C 47.628906 45.875 47.683594 45.851562 47.867188 45.84375 C 48.363281 45.566406 48.863281 45.285156 49.480469 44.988281 C 49.878906 44.789062 50.277344 44.585938 50.78125 44.414062 C 50.890625 44.328125 51 44.242188 51.203125 44.140625 C 51.261719 44.113281 51.320312 44.089844 51.484375 44.082031 C 51.59375 43.996094 51.703125 43.90625 51.929688 43.800781 C 52.207031 43.652344 52.484375 43.503906 52.875 43.375 C 53.101562 43.238281 53.328125 43.097656 53.648438 42.949219 C 53.703125 42.921875 53.757812 42.894531 53.9375 42.882812 C 54.242188 42.703125 54.550781 42.523438 54.972656 42.332031 C 55.097656 42.253906 55.226562 42.171875 55.472656 42.121094 C 55.808594 41.925781 56.144531 41.730469 56.574219 41.519531 C 56.632812 41.492188 56.691406 41.464844 56.859375 41.46875 C 56.96875 41.378906 57.078125 41.289062 57.28125 41.191406 C 57.335938 41.164062 57.394531 41.136719 57.554688 41.128906 C 57.667969 41.042969 57.78125 40.957031 57.988281 40.863281 C 58.039062 40.828125 58.09375 40.796875 58.261719 40.777344 C 58.488281 40.632812 58.710938 40.492188 59.027344 40.335938 C 59.082031 40.308594 59.136719 40.28125 59.300781 40.277344 C 59.410156 40.1875 59.523438 40.101562 59.726562 40.003906 C 59.78125 39.972656 59.835938 39.941406 59.996094 39.933594 C 60.109375 39.851562 60.222656 39.769531 60.449219 39.664062 C 60.609375 39.574219 60.769531 39.484375 61.042969 39.421875 C 61.152344 39.335938 61.265625 39.246094 61.46875 39.144531 C 61.527344 39.121094 61.582031 39.097656 61.753906 39.105469 C 61.886719 39.027344 62.015625 38.949219 62.289062 38.882812 C 62.476562 38.875 62.664062 38.871094 62.921875 38.957031 C 63.140625 39.019531 63.355469 39.078125 63.660156 39.222656 C 63.882812 39.449219 64.105469 39.675781 64.296875 40.03125 C 64.59375 40.777344 64.890625 41.527344 65.195312 42.386719 C 65.226562 42.492188 65.257812 42.597656 65.253906 42.8125 C 65.320312 42.894531 65.386719 42.972656 65.460938 43.167969 C 65.484375 43.238281 65.507812 43.308594 65.492188 43.488281 C 65.59375 43.691406 65.695312 43.894531 65.796875 44.210938 C 65.816406 44.28125 65.839844 44.351562 65.828125 44.527344 C 65.90625 44.644531 65.984375 44.761719 66.066406 44.988281 C 66.097656 45.09375 66.128906 45.199219 66.125 45.414062 C 66.191406 45.496094 66.257812 45.578125 66.335938 45.769531 C 66.359375 45.839844 66.382812 45.910156 66.371094 46.09375 C 66.46875 46.296875 66.570312 46.5 66.671875 46.8125 C 66.691406 46.882812 66.714844 46.953125 66.699219 47.132812 C 66.78125 47.246094 66.859375 47.363281 66.941406 47.589844 C 66.972656 47.695312 67 47.804688 67 48.019531 C 67.0625 48.097656 67.128906 48.179688 67.207031 48.382812 C 67.269531 48.570312 67.332031 48.757812 67.355469 49.046875 C 67.417969 49.132812 67.480469 49.21875 67.546875 49.414062 C 67.566406 49.488281 67.589844 49.558594 67.574219 49.734375 C 67.652344 49.851562 67.730469 49.964844 67.816406 50.191406 C 67.847656 50.296875 67.875 50.40625 67.875 50.625 C 67.964844 50.792969 68.054688 50.960938 68.148438 51.238281 C 68.1875 51.34375 68.226562 51.445312 68.226562 51.652344 C 68.292969 51.738281 68.355469 51.820312 68.421875 52.019531 C 68.441406 52.089844 68.464844 52.160156 68.449219 52.335938 C 68.527344 52.453125 68.605469 52.566406 68.691406 52.792969 C 68.71875 52.898438 68.75 53.007812 68.746094 53.226562 C 68.839844 53.394531 68.929688 53.5625 69.023438 53.839844 C 69.0625 53.945312 69.097656 54.046875 69.097656 54.257812 C 69.164062 54.339844 69.226562 54.425781 69.296875 54.621094 C 69.320312 54.691406 69.34375 54.761719 69.328125 54.957031 C 69.519531 55.414062 69.707031 55.871094 69.898438 56.441406 C 69.933594 56.546875 69.96875 56.652344 69.96875 56.863281 C 70.035156 56.945312 70.101562 57.03125 70.171875 57.226562 C 70.195312 57.296875 70.21875 57.367188 70.203125 57.558594 C 70.394531 58.015625 70.582031 58.472656 70.773438 59.039062 C 70.804688 59.148438 70.839844 59.253906 70.839844 59.46875 C 70.90625 59.550781 70.972656 59.632812 71.046875 59.828125 C 71.070312 59.898438 71.09375 59.96875 71.078125 60.160156 C 71.265625 60.617188 71.457031 61.070312 71.648438 61.640625 C 71.679688 61.746094 71.710938 61.855469 71.714844 62.070312 C 71.78125 62.152344 71.847656 62.238281 71.917969 62.433594 C 71.945312 62.503906 71.96875 62.574219 71.953125 62.761719 C 72.140625 63.21875 72.328125 63.671875 72.519531 64.242188 C 72.554688 64.347656 72.585938 64.457031 72.585938 64.675781 C 72.652344 64.757812 72.71875 64.839844 72.792969 65.035156 C 72.816406 65.105469 72.84375 65.175781 72.824219 65.359375 C 73.117188 66.21875 73.117188 66.21875 73.628906 66.027344 C 73.859375 65.84375 74.085938 65.65625 74.429688 65.480469 C 74.527344 65.375 74.625 65.269531 74.808594 65.128906 C 74.875 65.0625 74.9375 64.996094 75.113281 64.941406 C 75.210938 64.835938 75.308594 64.730469 75.496094 64.597656 C 75.558594 64.53125 75.625 64.46875 75.804688 64.402344 C 75.992188 64.226562 76.179688 64.050781 76.441406 63.839844 C 76.492188 63.808594 76.535156 63.773438 76.683594 63.738281 C 76.78125 63.632812 76.878906 63.527344 77.082031 63.378906 C 77.371094 63.140625 77.660156 62.902344 78.058594 62.671875 C 78.222656 62.523438 78.386719 62.371094 78.632812 62.179688 C 78.695312 62.117188 78.757812 62.050781 78.933594 61.992188 C 79.03125 61.890625 79.128906 61.785156 79.320312 61.652344 C 79.382812 61.589844 79.449219 61.523438 79.625 61.457031 C 79.71875 61.355469 79.816406 61.25 80.003906 61.113281 C 80.136719 61.003906 80.265625 60.894531 80.507812 60.789062 C 80.605469 60.683594 80.699219 60.578125 80.902344 60.425781 C 81.484375 59.964844 82.066406 59.503906 82.761719 59.050781 C 82.859375 58.945312 82.953125 58.839844 83.140625 58.703125 C 83.203125 58.636719 83.269531 58.574219 83.445312 58.511719 C 83.542969 58.40625 83.636719 58.304688 83.832031 58.167969 C 83.960938 58.058594 84.089844 57.949219 84.332031 57.847656 C 84.429688 57.742188 84.527344 57.632812 84.726562 57.480469 C 85.015625 57.242188 85.300781 57.003906 85.699219 56.773438 C 85.796875 56.667969 85.894531 56.566406 86.085938 56.425781 C 86.214844 56.316406 86.34375 56.210938 86.582031 56.105469 C 86.683594 56 86.78125 55.894531 86.964844 55.757812 C 87.03125 55.695312 87.09375 55.628906 87.273438 55.570312 C 87.367188 55.464844 87.460938 55.359375 87.65625 55.222656 C 87.785156 55.109375 87.914062 55 88.160156 54.890625 C 88.417969 54.660156 88.675781 54.429688 89.023438 54.152344 C 89.152344 54.042969 89.28125 53.929688 89.523438 53.828125 C 89.621094 53.722656 89.71875 53.617188 89.910156 53.480469 C 90.039062 53.371094 90.167969 53.261719 90.414062 53.144531 C 90.738281 52.867188 91.0625 52.585938 91.492188 52.265625 C 92.074219 51.804688 92.652344 51.339844 93.347656 50.886719 C 93.445312 50.78125 93.542969 50.675781 93.746094 50.53125 C 94.035156 50.292969 94.324219 50.054688 94.726562 49.824219 C 94.886719 49.671875 95.050781 49.519531 95.316406 49.320312 C 95.835938 48.90625 96.351562 48.492188 96.984375 48.078125 C 97.144531 47.925781 97.304688 47.773438 97.570312 47.582031 C 97.921875 47.296875 98.273438 47.011719 98.738281 46.734375 C 98.839844 46.632812 98.9375 46.527344 99.144531 46.371094 C 99.722656 45.910156 100.300781 45.449219 100.992188 44.992188 C 101.089844 44.886719 101.1875 44.78125 101.390625 44.632812 C 101.617188 44.449219 101.847656 44.261719 102.183594 44.085938 C 102.277344 43.980469 102.371094 43.878906 102.5625 43.734375 C 102.753906 43.570312 102.941406 43.40625 103.242188 43.25 C 103.34375 43.144531 103.441406 43.039062 103.644531 42.894531 C 104 42.609375 104.351562 42.328125 104.824219 42.046875 C 105.015625 41.867188 105.203125 41.683594 105.496094 41.46875 C 105.628906 41.359375 105.765625 41.25 106.007812 41.140625 C 106.101562 41.035156 106.195312 40.929688 106.390625 40.777344 C 106.808594 40.441406 107.226562 40.101562 107.757812 39.769531 C 107.851562 39.664062 107.949219 39.558594 108.140625 39.421875 C 108.269531 39.3125 108.398438 39.203125 108.644531 39.09375 C 108.835938 38.914062 109.03125 38.734375 109.332031 38.519531 C 111.433594 36.894531 113.535156 35.269531 115.636719 33.648438 C 119.980469 30.300781 124.320312 26.949219 128.671875 23.609375 C 130.023438 22.570312 131.308594 22.867188 132.097656 24.375 C 132.671875 25.472656 133.210938 26.589844 133.773438 27.695312 C 133.894531 27.929688 134.039062 28.148438 134.261719 28.523438 C 137.042969 22.722656 139.738281 17.113281 142.480469 11.398438 C 136.175781 10.152344 130.101562 8.949219 123.878906 7.714844 C 124.03125 8.113281 124.105469 8.355469 124.214844 8.578125 C 125.175781 10.511719 126.140625 12.445312 127.105469 14.378906 C 127.984375 16.132812 127.671875 17.101562 125.925781 17.949219 C 120.121094 20.769531 114.3125 23.582031 108.507812 26.402344 C 101.820312 29.652344 95.136719 32.90625 88.449219 36.15625 C 86.890625 36.914062 85.640625 36.503906 85.140625 35.03125 C 83.367188 29.789062 81.617188 24.539062 79.855469 19.292969 C 78.753906 16.015625 77.652344 12.738281 76.519531 9.359375 C 76.183594 9.613281 75.902344 9.804688 75.648438 10.023438 C 67.675781 16.964844 59.703125 23.90625 51.738281 30.855469 C 46.753906 35.203125 41.773438 39.554688 36.679688 43.914062 C 36.53125 44.078125 36.378906 44.242188 36.128906 44.445312 C 35.949219 44.621094 35.769531 44.792969 35.476562 44.972656 C 35.328125 45.132812 35.179688 45.296875 34.933594 45.511719 C 34.6875 45.734375 34.445312 45.957031 34.089844 46.171875 C 34 46.28125 33.914062 46.390625 33.851562 46.527344 C 33.851562 46.527344 33.824219 46.496094 33.714844 46.492188 C 33.625 46.601562 33.53125 46.710938 33.339844 46.878906 C 32.757812 47.398438 32.179688 47.921875 31.488281 48.445312 C 31.316406 48.625 31.144531 48.804688 30.875 49.046875 C 30.65625 49.253906 30.433594 49.457031 30.101562 49.65625 C 30.015625 49.761719 29.925781 49.871094 29.859375 50 Z M 29.859375 50 "/>
<path style=" stroke:none;fill-rule:nonzero;fill:rgb(2.745098%,2.745098%,2.745098%);fill-opacity:1;" d="M 122.917969 74.652344 C 122.917969 64.875 122.917969 55.1875 122.917969 45.496094 C 122.917969 43.578125 123.601562 42.890625 125.515625 42.890625 C 131.992188 42.886719 138.472656 42.886719 144.953125 42.890625 C 146.851562 42.890625 147.539062 43.589844 147.539062 45.511719 C 147.539062 78.628906 147.539062 111.75 147.539062 144.867188 C 147.539062 146.828125 146.832031 147.539062 144.894531 147.539062 C 138.472656 147.542969 132.050781 147.542969 125.628906 147.539062 C 123.609375 147.539062 122.917969 146.859375 122.917969 144.855469 C 122.917969 121.484375 122.917969 98.109375 122.917969 74.652344 M 127.027344 89.84375 C 127.027344 107.683594 127.027344 125.523438 127.027344 143.367188 C 132.550781 143.367188 137.96875 143.367188 143.375 143.367188 C 143.375 111.226562 143.375 79.152344 143.375 47.039062 C 137.921875 47.039062 132.527344 47.039062 127.027344 47.039062 C 127.027344 61.277344 127.027344 75.472656 127.027344 89.84375 Z M 127.027344 89.84375 "/>
<path style=" stroke:none;fill-rule:nonzero;fill:rgb(3.529412%,3.529412%,3.529412%);fill-opacity:1;" d="M 107.488281 133.855469 C 107.488281 137.617188 107.496094 141.289062 107.488281 144.964844 C 107.484375 146.828125 106.773438 147.539062 104.933594 147.539062 C 98.421875 147.542969 91.914062 147.542969 85.402344 147.539062 C 83.632812 147.539062 82.851562 146.777344 82.851562 145.015625 C 82.847656 119.960938 82.847656 94.902344 82.851562 69.847656 C 82.851562 68.152344 83.664062 67.335938 85.351562 67.335938 C 91.890625 67.328125 98.429688 67.328125 104.96875 67.335938 C 106.730469 67.335938 107.484375 68.09375 107.488281 69.882812 C 107.492188 76.21875 107.488281 82.554688 107.488281 88.890625 C 107.488281 103.851562 107.488281 118.808594 107.488281 133.855469 M 86.972656 84.460938 C 86.972656 104.089844 86.972656 123.714844 86.972656 143.378906 C 92.492188 143.378906 97.882812 143.378906 103.320312 143.378906 C 103.339844 143.109375 103.367188 142.882812 103.367188 142.660156 C 103.367188 119.230469 103.363281 95.804688 103.382812 72.375 C 103.382812 71.664062 103.1875 71.433594 102.457031 71.4375 C 97.625 71.464844 92.792969 71.46875 87.964844 71.433594 C 87.144531 71.429688 86.949219 71.707031 86.953125 72.488281 C 86.992188 76.421875 86.972656 80.355469 86.972656 84.460938 Z M 86.972656 84.460938 "/>
<path style=" stroke:none;fill-rule:nonzero;fill:rgb(3.529412%,3.529412%,3.529412%);fill-opacity:1;" d="M 67.496094 105.382812 C 67.496094 118.542969 67.496094 131.621094 67.496094 144.695312 C 67.496094 146.875 66.828125 147.542969 64.652344 147.542969 C 58.230469 147.542969 51.808594 147.542969 45.386719 147.539062 C 43.589844 147.539062 42.859375 146.824219 42.859375 145.03125 C 42.855469 128.136719 42.855469 111.242188 42.859375 94.347656 C 42.859375 92.550781 43.578125 91.859375 45.402344 91.859375 C 51.910156 91.855469 58.417969 91.855469 64.929688 91.859375 C 66.746094 91.859375 67.492188 92.609375 67.496094 94.445312 C 67.5 98.0625 67.496094 101.679688 67.496094 105.382812 M 46.976562 121.789062 C 46.976562 128.976562 46.976562 136.164062 46.976562 143.339844 C 52.511719 143.339844 57.925781 143.339844 63.324219 143.339844 C 63.324219 127.527344 63.324219 111.804688 63.324219 96.039062 C 57.855469 96.039062 52.441406 96.039062 46.976562 96.039062 C 46.976562 104.613281 46.976562 113.113281 46.976562 121.789062 Z M 46.976562 121.789062 "/>
<path style=" stroke:none;fill-rule:nonzero;fill:rgb(3.137255%,3.137255%,3.137255%);fill-opacity:1;" d="M 16.144531 116.339844 C 19.09375 116.339844 21.957031 116.335938 24.820312 116.34375 C 26.730469 116.347656 27.429688 117.046875 27.429688 118.957031 C 27.429688 127.605469 27.429688 136.25 27.429688 144.894531 C 27.429688 146.839844 26.722656 147.539062 24.761719 147.539062 C 18.3125 147.542969 11.867188 147.542969 5.417969 147.539062 C 3.527344 147.539062 2.808594 146.816406 2.808594 144.925781 C 2.804688 136.25 2.804688 127.574219 2.808594 118.898438 C 2.808594 117.066406 3.53125 116.347656 5.390625 116.34375 C 8.945312 116.335938 12.503906 116.339844 16.144531 116.339844 M 6.917969 128.386719 C 6.917969 133.378906 6.917969 138.371094 6.917969 143.367188 C 12.445312 143.367188 17.863281 143.367188 23.25 143.367188 C 23.25 135.710938 23.25 128.117188 23.25 120.523438 C 23.097656 120.496094 23.015625 120.46875 22.929688 120.46875 C 17.808594 120.464844 12.691406 120.46875 7.570312 120.449219 C 7 120.449219 6.90625 120.691406 6.910156 121.179688 C 6.925781 123.523438 6.917969 125.867188 6.917969 128.386719 Z M 6.917969 128.386719 "/>
<path style=" stroke:none;fill-rule:nonzero;fill:rgb(98.823529%,98.823529%,98.823529%);fill-opacity:1;" d="M 38.179688 50.488281 C 38.125 50.511719 38.066406 50.539062 37.90625 50.550781 C 37.695312 50.625 37.585938 50.71875 37.480469 50.808594 C 37.421875 50.835938 37.363281 50.867188 37.191406 50.886719 C 36.816406 51.050781 36.550781 51.222656 36.285156 51.390625 C 36.230469 51.417969 36.179688 51.445312 36.015625 51.453125 C 35.453125 51.707031 34.996094 51.972656 34.542969 52.242188 C 34.488281 52.269531 34.433594 52.300781 34.269531 52.308594 C 33.824219 52.496094 33.480469 52.699219 33.140625 52.902344 C 32.980469 52.992188 32.816406 53.085938 32.535156 53.164062 C 32.078125 53.351562 31.742188 53.554688 31.402344 53.757812 C 31.191406 53.867188 30.980469 53.976562 30.65625 54.066406 C 30.429688 54.144531 30.320312 54.246094 30.210938 54.34375 C 30.210938 54.34375 30.15625 54.378906 30.054688 54.363281 C 29.460938 54.628906 28.964844 54.914062 28.46875 55.195312 C 28.304688 55.285156 28.144531 55.375 27.875 55.449219 C 27.648438 55.519531 27.53125 55.605469 27.417969 55.691406 C 27.367188 55.726562 27.316406 55.761719 27.160156 55.78125 C 26.945312 55.859375 26.835938 55.953125 26.726562 56.050781 C 26.671875 56.078125 26.613281 56.105469 26.449219 56.117188 C 26.003906 56.300781 25.664062 56.503906 25.324219 56.707031 C 24.925781 56.910156 24.527344 57.109375 24 57.304688 C 23.378906 57.582031 22.886719 57.863281 22.390625 58.148438 C 22.230469 58.238281 22.066406 58.324219 21.792969 58.394531 C 21.570312 58.472656 21.457031 58.566406 21.34375 58.660156 C 21.292969 58.691406 21.238281 58.722656 21.082031 58.730469 C 20.867188 58.808594 20.757812 58.90625 20.648438 59.003906 C 20.59375 59.027344 20.539062 59.054688 20.371094 59.066406 C 20.015625 59.019531 19.773438 58.988281 19.535156 58.957031 C 19.683594 58.808594 19.835938 58.660156 20.097656 58.5 C 20.417969 58.269531 20.628906 58.046875 20.839844 57.824219 C 20.9375 57.730469 21.039062 57.632812 21.242188 57.515625 C 21.457031 57.355469 21.566406 57.21875 21.675781 57.082031 C 21.980469 56.808594 22.285156 56.53125 22.699219 56.246094 C 22.898438 56.113281 22.984375 55.992188 23.070312 55.875 C 23.371094 55.59375 23.671875 55.316406 24.082031 55.027344 C 24.40625 54.792969 24.617188 54.566406 24.824219 54.339844 C 25.472656 53.765625 26.117188 53.195312 26.875 52.605469 C 27.132812 52.417969 27.28125 52.25 27.429688 52.078125 C 27.730469 51.796875 28.03125 51.519531 28.441406 51.222656 C 28.640625 51.09375 28.730469 50.976562 28.816406 50.863281 C 28.996094 50.691406 29.179688 50.519531 29.46875 50.335938 C 29.667969 50.210938 29.753906 50.09375 29.839844 49.976562 C 29.839844 49.976562 29.859375 50 29.90625 50 C 30.039062 49.882812 30.125 49.773438 30.210938 49.660156 C 30.433594 49.457031 30.65625 49.253906 30.984375 49.023438 C 31.261719 48.8125 31.429688 48.625 31.601562 48.441406 C 32.179688 47.921875 32.757812 47.398438 33.449219 46.863281 C 33.648438 46.734375 33.738281 46.617188 33.824219 46.496094 C 33.824219 46.496094 33.851562 46.527344 33.898438 46.523438 C 34.027344 46.40625 34.113281 46.289062 34.199219 46.175781 C 34.445312 45.957031 34.6875 45.734375 35.042969 45.488281 C 35.296875 45.300781 35.445312 45.132812 35.59375 44.96875 C 35.769531 44.792969 35.949219 44.621094 36.242188 44.433594 C 36.5 44.253906 36.648438 44.078125 36.796875 43.90625 C 41.773438 39.554688 46.753906 35.203125 51.738281 30.855469 C 59.703125 23.90625 67.675781 16.964844 75.648438 10.023438 C 75.902344 9.804688 76.183594 9.613281 76.519531 9.359375 C 77.652344 12.738281 78.753906 16.015625 79.855469 19.292969 C 81.617188 24.539062 83.367188 29.789062 85.140625 35.03125 C 85.640625 36.503906 86.890625 36.914062 88.449219 36.15625 C 95.136719 32.90625 101.820312 29.652344 108.507812 26.402344 C 114.3125 23.582031 120.121094 20.769531 125.925781 17.949219 C 127.671875 17.101562 127.984375 16.132812 127.105469 14.378906 C 126.140625 12.445312 125.175781 10.511719 124.214844 8.578125 C 124.105469 8.355469 124.03125 8.113281 123.878906 7.714844 C 130.101562 8.949219 136.175781 10.152344 142.480469 11.398438 C 139.738281 17.113281 137.042969 22.722656 134.261719 28.523438 C 134.039062 28.148438 133.894531 27.929688 133.773438 27.695312 C 133.210938 26.589844 132.671875 25.472656 132.097656 24.375 C 131.308594 22.867188 130.023438 22.570312 128.671875 23.609375 C 124.320312 26.949219 119.980469 30.300781 115.636719 33.648438 C 113.535156 35.269531 111.433594 36.894531 109.214844 38.527344 C 108.90625 38.722656 108.714844 38.910156 108.527344 39.09375 C 108.398438 39.203125 108.269531 39.3125 108.03125 39.425781 C 107.832031 39.542969 107.738281 39.652344 107.644531 39.765625 C 107.226562 40.101562 106.808594 40.441406 106.28125 40.789062 C 106.078125 40.914062 105.988281 41.027344 105.898438 41.136719 C 105.765625 41.25 105.628906 41.359375 105.382812 41.480469 C 105.082031 41.671875 104.894531 41.859375 104.707031 42.042969 C 104.351562 42.328125 104 42.609375 103.53125 42.898438 C 103.324219 43.015625 103.226562 43.128906 103.132812 43.242188 C 102.941406 43.40625 102.753906 43.570312 102.457031 43.742188 C 102.257812 43.859375 102.164062 43.96875 102.074219 44.078125 C 101.847656 44.261719 101.617188 44.449219 101.277344 44.640625 C 101.070312 44.757812 100.976562 44.871094 100.878906 44.988281 C 100.300781 45.449219 99.722656 45.910156 99.03125 46.378906 C 98.820312 46.5 98.722656 46.613281 98.628906 46.726562 C 98.273438 47.011719 97.921875 47.296875 97.457031 47.585938 C 97.183594 47.753906 97.027344 47.917969 96.867188 48.078125 C 96.351562 48.492188 95.835938 48.90625 95.203125 49.324219 C 94.929688 49.492188 94.773438 49.652344 94.613281 49.816406 C 94.324219 50.054688 94.035156 50.292969 93.632812 50.539062 C 93.421875 50.652344 93.328125 50.765625 93.230469 50.875 C 92.652344 51.339844 92.074219 51.804688 91.375 52.273438 C 90.9375 52.570312 90.617188 52.859375 90.296875 53.152344 C 90.167969 53.261719 90.039062 53.371094 89.800781 53.484375 C 89.597656 53.601562 89.503906 53.710938 89.410156 53.820312 C 89.28125 53.929688 89.152344 54.042969 88.914062 54.167969 C 88.550781 54.421875 88.296875 54.65625 88.039062 54.890625 C 87.914062 55 87.785156 55.109375 87.546875 55.222656 C 87.34375 55.339844 87.25 55.453125 87.160156 55.566406 C 87.09375 55.628906 87.03125 55.695312 86.863281 55.757812 C 86.664062 55.871094 86.566406 55.988281 86.472656 56.101562 C 86.34375 56.210938 86.214844 56.316406 85.976562 56.433594 C 85.777344 56.546875 85.679688 56.65625 85.585938 56.765625 C 85.300781 57.003906 85.015625 57.242188 84.617188 57.488281 C 84.410156 57.609375 84.316406 57.726562 84.21875 57.839844 C 84.089844 57.949219 83.960938 58.058594 83.722656 58.171875 C 83.519531 58.285156 83.425781 58.398438 83.335938 58.507812 C 83.269531 58.574219 83.203125 58.636719 83.035156 58.703125 C 82.835938 58.816406 82.742188 58.929688 82.648438 59.046875 C 82.066406 59.503906 81.484375 59.964844 80.789062 60.429688 C 80.582031 60.554688 80.488281 60.671875 80.394531 60.785156 C 80.265625 60.894531 80.136719 61.003906 79.898438 61.121094 C 79.699219 61.238281 79.605469 61.347656 79.515625 61.457031 C 79.449219 61.523438 79.382812 61.589844 79.214844 61.652344 C 79.011719 61.761719 78.917969 61.875 78.824219 61.984375 C 78.757812 62.050781 78.695312 62.117188 78.53125 62.179688 C 78.269531 62.339844 78.109375 62.503906 77.949219 62.667969 C 77.660156 62.902344 77.371094 63.140625 76.96875 63.382812 C 76.761719 63.503906 76.664062 63.617188 76.570312 63.730469 C 76.535156 63.773438 76.492188 63.808594 76.34375 63.851562 C 76.058594 64.042969 75.875 64.222656 75.691406 64.402344 C 75.625 64.46875 75.558594 64.53125 75.390625 64.597656 C 75.191406 64.710938 75.09375 64.820312 75 64.929688 C 74.9375 64.996094 74.875 65.0625 74.707031 65.128906 C 74.507812 65.242188 74.414062 65.355469 74.316406 65.472656 C 74.085938 65.65625 73.859375 65.84375 73.527344 66.007812 C 73.242188 65.742188 73.054688 65.492188 72.867188 65.246094 C 72.84375 65.175781 72.816406 65.105469 72.828125 64.953125 C 72.785156 64.769531 72.699219 64.667969 72.617188 64.566406 C 72.585938 64.457031 72.554688 64.347656 72.542969 64.117188 C 72.375 63.542969 72.183594 63.09375 71.992188 62.644531 C 71.96875 62.574219 71.945312 62.503906 71.957031 62.351562 C 71.910156 62.167969 71.828125 62.066406 71.746094 61.960938 C 71.710938 61.855469 71.679688 61.746094 71.667969 61.515625 C 71.5 60.941406 71.308594 60.492188 71.117188 60.039062 C 71.09375 59.96875 71.070312 59.898438 71.082031 59.746094 C 71.039062 59.5625 70.957031 59.460938 70.871094 59.359375 C 70.839844 59.253906 70.804688 59.148438 70.796875 58.917969 C 70.628906 58.34375 70.433594 57.890625 70.242188 57.4375 C 70.21875 57.367188 70.195312 57.296875 70.210938 57.144531 C 70.167969 56.960938 70.085938 56.859375 70.003906 56.757812 C 69.96875 56.652344 69.933594 56.546875 69.921875 56.320312 C 69.753906 55.742188 69.558594 55.289062 69.367188 54.832031 C 69.34375 54.761719 69.320312 54.691406 69.335938 54.539062 C 69.292969 54.355469 69.214844 54.253906 69.132812 54.152344 C 69.097656 54.046875 69.0625 53.945312 69.050781 53.722656 C 68.976562 53.441406 68.878906 53.277344 68.78125 53.113281 C 68.75 53.007812 68.71875 52.898438 68.710938 52.683594 C 68.652344 52.460938 68.570312 52.347656 68.484375 52.230469 C 68.464844 52.160156 68.441406 52.089844 68.460938 51.9375 C 68.421875 51.753906 68.34375 51.652344 68.265625 51.546875 C 68.226562 51.445312 68.1875 51.34375 68.175781 51.121094 C 68.105469 50.839844 68.003906 50.675781 67.90625 50.511719 C 67.875 50.40625 67.847656 50.296875 67.839844 50.082031 C 67.78125 49.859375 67.695312 49.742188 67.613281 49.628906 C 67.589844 49.558594 67.566406 49.488281 67.585938 49.335938 C 67.546875 49.148438 67.472656 49.046875 67.394531 48.945312 C 67.332031 48.757812 67.269531 48.570312 67.246094 48.300781 C 67.199219 48.117188 67.117188 48.011719 67.03125 47.910156 C 67 47.804688 66.972656 47.695312 66.964844 47.480469 C 66.90625 47.253906 66.820312 47.140625 66.738281 47.027344 C 66.714844 46.953125 66.691406 46.882812 66.710938 46.730469 C 66.636719 46.421875 66.523438 46.203125 66.40625 45.980469 C 66.382812 45.910156 66.359375 45.839844 66.371094 45.691406 C 66.328125 45.511719 66.242188 45.410156 66.160156 45.308594 C 66.128906 45.199219 66.097656 45.09375 66.09375 44.878906 C 66.03125 44.652344 65.949219 44.539062 65.863281 44.421875 C 65.839844 44.351562 65.816406 44.28125 65.835938 44.125 C 65.761719 43.820312 65.644531 43.597656 65.53125 43.378906 C 65.507812 43.308594 65.484375 43.238281 65.5 43.085938 C 65.453125 42.90625 65.371094 42.804688 65.289062 42.703125 C 65.257812 42.597656 65.226562 42.492188 65.21875 42.265625 C 64.9375 41.398438 64.632812 40.648438 64.324219 39.902344 C 64.105469 39.675781 63.882812 39.449219 63.601562 39.128906 C 63.3125 38.980469 63.082031 38.921875 62.851562 38.867188 C 62.664062 38.871094 62.476562 38.875 62.1875 38.832031 C 61.9375 38.882812 61.785156 38.976562 61.636719 39.074219 C 61.582031 39.097656 61.527344 39.121094 61.367188 39.125 C 61.152344 39.203125 61.042969 39.300781 60.933594 39.398438 C 60.769531 39.484375 60.609375 39.574219 60.335938 39.648438 C 60.113281 39.722656 60 39.820312 59.886719 39.914062 C 59.835938 39.941406 59.78125 39.972656 59.625 39.980469 C 59.410156 40.058594 59.300781 40.15625 59.191406 40.253906 C 59.136719 40.28125 59.082031 40.308594 58.921875 40.320312 C 58.589844 40.457031 58.367188 40.609375 58.144531 40.761719 C 58.09375 40.796875 58.039062 40.828125 57.882812 40.84375 C 57.667969 40.917969 57.558594 41.011719 57.449219 41.105469 C 57.394531 41.136719 57.335938 41.164062 57.175781 41.175781 C 56.964844 41.253906 56.859375 41.347656 56.753906 41.441406 C 56.691406 41.464844 56.632812 41.492188 56.464844 41.511719 C 56.019531 41.699219 55.6875 41.894531 55.351562 42.09375 C 55.226562 42.171875 55.097656 42.253906 54.878906 42.300781 C 54.464844 42.46875 54.136719 42.667969 53.8125 42.867188 C 53.757812 42.894531 53.703125 42.921875 53.542969 42.933594 C 53.210938 43.058594 52.984375 43.207031 52.757812 43.355469 C 52.484375 43.503906 52.207031 43.652344 51.8125 43.785156 C 51.589844 43.867188 51.484375 43.964844 51.375 44.0625 C 51.320312 44.089844 51.261719 44.113281 51.101562 44.125 C 50.890625 44.203125 50.78125 44.292969 50.675781 44.382812 C 50.277344 44.585938 49.878906 44.789062 49.355469 44.980469 C 48.734375 45.257812 48.234375 45.542969 47.738281 45.824219 C 47.683594 45.851562 47.628906 45.875 47.464844 45.882812 C 47.136719 46.019531 46.914062 46.175781 46.691406 46.328125 C 46.640625 46.363281 46.585938 46.394531 46.433594 46.410156 C 46.21875 46.484375 46.109375 46.582031 46 46.683594 C 45.941406 46.707031 45.886719 46.734375 45.722656 46.742188 C 45.511719 46.816406 45.402344 46.910156 45.296875 47.003906 C 45.238281 47.03125 45.183594 47.0625 45.027344 47.078125 C 44.816406 47.152344 44.707031 47.242188 44.597656 47.328125 C 44.433594 47.421875 44.269531 47.515625 43.992188 47.597656 C 43.769531 47.675781 43.664062 47.769531 43.558594 47.863281 C 43.5 47.890625 43.441406 47.917969 43.265625 47.9375 C 42.65625 48.207031 42.160156 48.492188 41.660156 48.773438 C 41.5 48.863281 41.339844 48.953125 41.066406 49.027344 C 40.84375 49.101562 40.730469 49.195312 40.617188 49.285156 C 40.5625 49.316406 40.511719 49.347656 40.355469 49.359375 C 40.140625 49.4375 40.03125 49.535156 39.921875 49.632812 C 39.867188 49.65625 39.808594 49.683594 39.644531 49.691406 C 39.316406 49.828125 39.09375 49.980469 38.871094 50.132812 C 38.820312 50.164062 38.769531 50.199219 38.609375 50.214844 C 38.398438 50.292969 38.289062 50.390625 38.179688 50.488281 Z M 38.179688 50.488281 "/>
<path style=" stroke:none;fill-rule:nonzero;fill:rgb(72.156863%,72.156863%,72.156863%);fill-opacity:1;" d="M 64.3125 39.964844 C 64.632812 40.648438 64.9375 41.398438 65.21875 42.210938 C 64.890625 41.527344 64.59375 40.777344 64.3125 39.964844 Z M 64.3125 39.964844 "/>
<path style=" stroke:none;fill-rule:nonzero;fill:rgb(72.156863%,72.156863%,72.156863%);fill-opacity:1;" d="M 19.472656 58.96875 C 19.773438 58.988281 20.015625 59.019531 20.324219 59.074219 C 19.898438 59.375 19.402344 59.65625 18.910156 59.933594 C 18.832031 59.867188 18.757812 59.796875 18.679688 59.730469 C 18.921875 59.480469 19.164062 59.230469 19.472656 58.96875 Z M 19.472656 58.96875 "/>
<path style=" stroke:none;fill-rule:nonzero;fill:rgb(72.156863%,72.156863%,72.156863%);fill-opacity:1;" d="M 28.53125 55.203125 C 28.964844 54.914062 29.460938 54.628906 30.023438 54.363281 C 29.589844 54.660156 29.09375 54.933594 28.53125 55.203125 Z M 28.53125 55.203125 "/>
<path style=" stroke:none;fill-rule:nonzero;fill:rgb(72.156863%,72.156863%,72.156863%);fill-opacity:1;" d="M 41.726562 48.78125 C 42.160156 48.492188 42.65625 48.207031 43.21875 47.941406 C 42.785156 48.238281 42.285156 48.515625 41.726562 48.78125 Z M 41.726562 48.78125 "/>
<path style=" stroke:none;fill-rule:nonzero;fill:rgb(72.156863%,72.156863%,72.156863%);fill-opacity:1;" d="M 47.804688 45.835938 C 48.234375 45.542969 48.734375 45.257812 49.292969 44.992188 C 48.863281 45.285156 48.363281 45.566406 47.804688 45.835938 Z M 47.804688 45.835938 "/>
<path style=" stroke:none;fill-rule:nonzero;fill:rgb(72.156863%,72.156863%,72.156863%);fill-opacity:1;" d="M 22.453125 58.160156 C 22.886719 57.863281 23.378906 57.582031 23.941406 57.3125 C 23.511719 57.609375 23.015625 57.886719 22.453125 58.160156 Z M 22.453125 58.160156 "/>
<path style=" stroke:none;fill-rule:nonzero;fill:rgb(72.156863%,72.156863%,72.156863%);fill-opacity:1;" d="M 71.972656 62.703125 C 72.183594 63.09375 72.375 63.542969 72.542969 64.058594 C 72.328125 63.671875 72.140625 63.21875 71.972656 62.703125 Z M 71.972656 62.703125 "/>
<path style=" stroke:none;fill-rule:nonzero;fill:rgb(72.156863%,72.156863%,72.156863%);fill-opacity:1;" d="M 71.097656 60.101562 C 71.308594 60.492188 71.5 60.941406 71.667969 61.460938 C 71.457031 61.070312 71.265625 60.617188 71.097656 60.101562 Z M 71.097656 60.101562 "/>
<path style=" stroke:none;fill-rule:nonzero;fill:rgb(72.156863%,72.156863%,72.156863%);fill-opacity:1;" d="M 34.605469 52.25 C 34.996094 51.972656 35.453125 51.707031 35.96875 51.460938 C 35.578125 51.742188 35.125 52 34.605469 52.25 Z M 34.605469 52.25 "/>
<path style=" stroke:none;fill-rule:nonzero;fill:rgb(72.156863%,72.156863%,72.156863%);fill-opacity:1;" d="M 69.347656 54.894531 C 69.558594 55.289062 69.753906 55.742188 69.921875 56.261719 C 69.707031 55.871094 69.519531 55.414062 69.347656 54.894531 Z M 69.347656 54.894531 "/>
<path style=" stroke:none;fill-rule:nonzero;fill:rgb(72.156863%,72.156863%,72.156863%);fill-opacity:1;" d="M 70.222656 57.496094 C 70.433594 57.890625 70.628906 58.34375 70.792969 58.863281 C 70.582031 58.472656 70.394531 58.015625 70.222656 57.496094 Z M 70.222656 57.496094 "/>
<path style=" stroke:none;fill-rule:nonzero;fill:rgb(72.156863%,72.156863%,72.156863%);fill-opacity:1;" d="M 90.355469 53.148438 C 90.617188 52.859375 90.9375 52.570312 91.324219 52.292969 C 91.0625 52.585938 90.738281 52.867188 90.355469 53.148438 Z M 90.355469 53.148438 "/>
<path style=" stroke:none;fill-rule:nonzero;fill:rgb(72.156863%,72.156863%,72.156863%);fill-opacity:1;" d="M 72.847656 65.304688 C 73.054688 65.492188 73.242188 65.742188 73.476562 66.03125 C 73.117188 66.21875 73.117188 66.21875 72.847656 65.304688 Z M 72.847656 65.304688 "/>
<path style=" stroke:none;fill-rule:nonzero;fill:rgb(72.156863%,72.156863%,72.156863%);fill-opacity:1;" d="M 33.203125 52.914062 C 33.480469 52.699219 33.824219 52.496094 34.226562 52.3125 C 33.945312 52.53125 33.605469 52.730469 33.203125 52.914062 Z M 33.203125 52.914062 "/>
<path style=" stroke:none;fill-rule:nonzero;fill:rgb(72.156863%,72.156863%,72.156863%);fill-opacity:1;" d="M 31.460938 53.769531 C 31.742188 53.554688 32.078125 53.351562 32.480469 53.167969 C 32.199219 53.386719 31.863281 53.585938 31.460938 53.769531 Z M 31.460938 53.769531 "/>
<path style=" stroke:none;fill-rule:nonzero;fill:rgb(72.156863%,72.156863%,72.156863%);fill-opacity:1;" d="M 25.386719 56.71875 C 25.664062 56.503906 26.003906 56.300781 26.402344 56.121094 C 26.125 56.339844 25.785156 56.535156 25.386719 56.71875 Z M 25.386719 56.71875 "/>
<path style=" stroke:none;fill-rule:nonzero;fill:rgb(72.156863%,72.156863%,72.156863%);fill-opacity:1;" d="M 53.875 42.875 C 54.136719 42.667969 54.464844 42.46875 54.824219 42.304688 C 54.550781 42.523438 54.242188 42.703125 53.875 42.875 Z M 53.875 42.875 "/>
<path style=" stroke:none;fill-rule:nonzero;fill:rgb(72.156863%,72.156863%,72.156863%);fill-opacity:1;" d="M 55.414062 42.105469 C 55.6875 41.894531 56.019531 41.699219 56.417969 41.519531 C 56.144531 41.730469 55.808594 41.925781 55.414062 42.105469 Z M 55.414062 42.105469 "/>
<path style=" stroke:none;fill-rule:nonzero;fill:rgb(72.156863%,72.156863%,72.156863%);fill-opacity:1;" d="M 88.101562 54.890625 C 88.296875 54.65625 88.550781 54.421875 88.871094 54.191406 C 88.675781 54.429688 88.417969 54.660156 88.101562 54.890625 Z M 88.101562 54.890625 "/>
<path style=" stroke:none;fill-rule:nonzero;fill:rgb(72.156863%,72.156863%,72.156863%);fill-opacity:1;" d="M 20.78125 57.824219 C 20.628906 58.046875 20.417969 58.269531 20.148438 58.480469 C 20.300781 58.253906 20.511719 58.039062 20.78125 57.824219 Z M 20.78125 57.824219 "/>
<path style=" stroke:none;fill-rule:nonzero;fill:rgb(72.156863%,72.156863%,72.156863%);fill-opacity:1;" d="M 24.769531 54.339844 C 24.617188 54.566406 24.40625 54.792969 24.132812 55.003906 C 24.285156 54.773438 24.496094 54.558594 24.769531 54.339844 Z M 24.769531 54.339844 "/>
<path style=" stroke:none;fill-rule:nonzero;fill:rgb(72.156863%,72.156863%,72.156863%);fill-opacity:1;" d="M 36.347656 51.402344 C 36.550781 51.222656 36.816406 51.050781 37.144531 50.894531 C 36.941406 51.074219 36.675781 51.242188 36.347656 51.402344 Z M 36.347656 51.402344 "/>
<path style=" stroke:none;fill-rule:nonzero;fill:rgb(72.156863%,72.156863%,72.156863%);fill-opacity:1;" d="M 62.886719 38.914062 C 63.082031 38.921875 63.3125 38.980469 63.558594 39.089844 C 63.355469 39.078125 63.140625 39.019531 62.886719 38.914062 Z M 62.886719 38.914062 "/>
<path style=" stroke:none;fill-rule:nonzero;fill:rgb(72.156863%,72.156863%,72.156863%);fill-opacity:1;" d="M 38.929688 50.140625 C 39.09375 49.980469 39.316406 49.828125 39.597656 49.695312 C 39.4375 49.859375 39.214844 50.003906 38.929688 50.140625 Z M 38.929688 50.140625 "/>
<path style=" stroke:none;fill-rule:nonzero;fill:rgb(72.156863%,72.156863%,72.156863%);fill-opacity:1;" d="M 31.542969 48.445312 C 31.429688 48.625 31.261719 48.8125 31.03125 48.992188 C 31.144531 48.804688 31.316406 48.625 31.542969 48.445312 Z M 31.542969 48.445312 "/>
<path style=" stroke:none;fill-rule:nonzero;fill:rgb(72.156863%,72.156863%,72.156863%);fill-opacity:1;" d="M 108.585938 39.09375 C 108.714844 38.910156 108.90625 38.722656 109.160156 38.546875 C 109.03125 38.734375 108.835938 38.914062 108.585938 39.09375 Z M 108.585938 39.09375 "/>
<path style=" stroke:none;fill-rule:nonzero;fill:rgb(72.156863%,72.156863%,72.156863%);fill-opacity:1;" d="M 65.511719 43.433594 C 65.644531 43.597656 65.761719 43.820312 65.835938 44.070312 C 65.695312 43.894531 65.59375 43.691406 65.511719 43.433594 Z M 65.511719 43.433594 "/>
<path style=" stroke:none;fill-rule:nonzero;fill:rgb(72.156863%,72.156863%,72.156863%);fill-opacity:1;" d="M 58.203125 40.769531 C 58.367188 40.609375 58.589844 40.457031 58.875 40.328125 C 58.710938 40.492188 58.488281 40.632812 58.203125 40.769531 Z M 58.203125 40.769531 "/>
<path style=" stroke:none;fill-rule:nonzero;fill:rgb(72.156863%,72.156863%,72.156863%);fill-opacity:1;" d="M 104.765625 42.046875 C 104.894531 41.859375 105.082031 41.671875 105.332031 41.496094 C 105.203125 41.683594 105.015625 41.867188 104.765625 42.046875 Z M 104.765625 42.046875 "/>
<path style=" stroke:none;fill-rule:nonzero;fill:rgb(72.156863%,72.156863%,72.156863%);fill-opacity:1;" d="M 52.816406 43.367188 C 52.984375 43.207031 53.210938 43.058594 53.496094 42.9375 C 53.328125 43.097656 53.101562 43.238281 52.816406 43.367188 Z M 52.816406 43.367188 "/>
<path style=" stroke:none;fill-rule:nonzero;fill:rgb(72.156863%,72.156863%,72.156863%);fill-opacity:1;" d="M 75.746094 64.402344 C 75.875 64.222656 76.058594 64.042969 76.304688 63.871094 C 76.179688 64.050781 75.992188 64.226562 75.746094 64.402344 Z M 75.746094 64.402344 "/>
<path style=" stroke:none;fill-rule:nonzero;fill:rgb(72.156863%,72.156863%,72.156863%);fill-opacity:1;" d="M 66.390625 46.035156 C 66.523438 46.203125 66.636719 46.421875 66.707031 46.671875 C 66.570312 46.5 66.46875 46.296875 66.390625 46.035156 Z M 66.390625 46.035156 "/>
<path style=" stroke:none;fill-rule:nonzero;fill:rgb(72.156863%,72.156863%,72.156863%);fill-opacity:1;" d="M 46.75 46.335938 C 46.914062 46.175781 47.136719 46.019531 47.417969 45.886719 C 47.257812 46.054688 47.03125 46.199219 46.75 46.335938 Z M 46.75 46.335938 "/>
<path style=" stroke:none;fill-rule:nonzero;fill:rgb(72.156863%,72.156863%,72.156863%);fill-opacity:1;" d="M 78.003906 62.667969 C 78.109375 62.503906 78.269531 62.339844 78.492188 62.199219 C 78.386719 62.371094 78.222656 62.523438 78.003906 62.667969 Z M 78.003906 62.667969 "/>
<path style=" stroke:none;fill-rule:nonzero;fill:rgb(72.156863%,72.156863%,72.156863%);fill-opacity:1;" d="M 35.535156 44.96875 C 35.445312 45.132812 35.296875 45.300781 35.089844 45.460938 C 35.179688 45.296875 35.328125 45.132812 35.535156 44.96875 Z M 35.535156 44.96875 "/>
<path style=" stroke:none;fill-rule:nonzero;fill:rgb(72.156863%,72.156863%,72.156863%);fill-opacity:1;" d="M 94.667969 49.820312 C 94.773438 49.652344 94.929688 49.492188 95.152344 49.347656 C 95.050781 49.519531 94.886719 49.671875 94.667969 49.820312 Z M 94.667969 49.820312 "/>
<path style=" stroke:none;fill-rule:nonzero;fill:rgb(72.156863%,72.156863%,72.156863%);fill-opacity:1;" d="M 27.371094 52.082031 C 27.28125 52.25 27.132812 52.417969 26.925781 52.582031 C 27.015625 52.410156 27.164062 52.246094 27.371094 52.082031 Z M 27.371094 52.082031 "/>
<path style=" stroke:none;fill-rule:nonzero;fill:rgb(72.156863%,72.156863%,72.156863%);fill-opacity:1;" d="M 36.738281 43.910156 C 36.648438 44.078125 36.5 44.253906 36.292969 44.414062 C 36.378906 44.242188 36.53125 44.078125 36.738281 43.910156 Z M 36.738281 43.910156 "/>
<path style=" stroke:none;fill-rule:nonzero;fill:rgb(72.156863%,72.156863%,72.156863%);fill-opacity:1;" d="M 96.925781 48.078125 C 97.027344 47.917969 97.183594 47.753906 97.402344 47.605469 C 97.304688 47.773438 97.144531 47.925781 96.925781 48.078125 Z M 96.925781 48.078125 "/>
<path style=" stroke:none;fill-rule:nonzero;fill:rgb(72.156863%,72.156863%,72.156863%);fill-opacity:1;" d="M 68.765625 53.167969 C 68.878906 53.277344 68.976562 53.441406 69.050781 53.667969 C 68.929688 53.5625 68.839844 53.394531 68.765625 53.167969 Z M 68.765625 53.167969 "/>
<path style=" stroke:none;fill-rule:nonzero;fill:rgb(72.156863%,72.156863%,72.156863%);fill-opacity:1;" d="M 61.695312 39.089844 C 61.785156 38.976562 61.9375 38.882812 62.117188 38.828125 C 62.015625 38.949219 61.886719 39.027344 61.695312 39.089844 Z M 61.695312 39.089844 "/>
<path style=" stroke:none;fill-rule:nonzero;fill:rgb(72.156863%,72.156863%,72.156863%);fill-opacity:1;" d="M 67.890625 50.566406 C 68.003906 50.675781 68.105469 50.839844 68.175781 51.066406 C 68.054688 50.960938 67.964844 50.792969 67.890625 50.566406 Z M 67.890625 50.566406 "/>
<path style=" stroke:none;fill-rule:nonzero;fill:rgb(72.156863%,72.156863%,72.156863%);fill-opacity:1;" d="M 21.621094 57.085938 C 21.566406 57.21875 21.457031 57.355469 21.289062 57.488281 C 21.339844 57.351562 21.453125 57.21875 21.621094 57.085938 Z M 21.621094 57.085938 "/>
<path style=" stroke:none;fill-rule:nonzero;fill:rgb(72.156863%,72.156863%,72.156863%);fill-opacity:1;" d="M 26.78125 56.0625 C 26.835938 55.953125 26.945312 55.859375 27.113281 55.785156 C 27.058594 55.898438 26.945312 55.984375 26.78125 56.0625 Z M 26.78125 56.0625 "/>
<path style=" stroke:none;fill-rule:nonzero;fill:rgb(72.156863%,72.156863%,72.156863%);fill-opacity:1;" d="M 69.984375 56.808594 C 70.085938 56.859375 70.167969 56.960938 70.207031 57.085938 C 70.101562 57.03125 70.035156 56.945312 69.984375 56.808594 Z M 69.984375 56.808594 "/>
<path style=" stroke:none;fill-rule:nonzero;fill:rgb(72.156863%,72.156863%,72.156863%);fill-opacity:1;" d="M 107.699219 39.765625 C 107.738281 39.652344 107.832031 39.542969 107.984375 39.441406 C 107.949219 39.558594 107.851562 39.664062 107.699219 39.765625 Z M 107.699219 39.765625 "/>
<path style=" stroke:none;fill-rule:nonzero;fill:rgb(72.156863%,72.156863%,72.156863%);fill-opacity:1;" d="M 85.644531 56.769531 C 85.679688 56.65625 85.777344 56.546875 85.929688 56.449219 C 85.894531 56.566406 85.796875 56.667969 85.644531 56.769531 Z M 85.644531 56.769531 "/>
<path style=" stroke:none;fill-rule:nonzero;fill:rgb(72.156863%,72.156863%,72.156863%);fill-opacity:1;" d="M 60.988281 39.410156 C 61.042969 39.300781 61.152344 39.203125 61.320312 39.128906 C 61.265625 39.246094 61.152344 39.335938 60.988281 39.410156 Z M 60.988281 39.410156 "/>
<path style=" stroke:none;fill-rule:nonzero;fill:rgb(72.156863%,72.156863%,72.156863%);fill-opacity:1;" d="M 23.015625 55.875 C 22.984375 55.992188 22.898438 56.113281 22.746094 56.21875 C 22.777344 56.097656 22.867188 55.988281 23.015625 55.875 Z M 23.015625 55.875 "/>
<path style=" stroke:none;fill-rule:nonzero;fill:rgb(72.156863%,72.156863%,72.156863%);fill-opacity:1;" d="M 86.527344 56.101562 C 86.566406 55.988281 86.664062 55.871094 86.820312 55.773438 C 86.78125 55.894531 86.683594 56 86.527344 56.101562 Z M 86.527344 56.101562 "/>
<path style=" stroke:none;fill-rule:nonzero;fill:rgb(72.156863%,72.156863%,72.156863%);fill-opacity:1;" d="M 68.246094 51.601562 C 68.34375 51.652344 68.421875 51.753906 68.457031 51.882812 C 68.355469 51.820312 68.292969 51.738281 68.246094 51.601562 Z M 68.246094 51.601562 "/>
<path style=" stroke:none;fill-rule:nonzero;fill:rgb(72.156863%,72.156863%,72.156863%);fill-opacity:1;" d="M 59.941406 39.921875 C 60 39.820312 60.113281 39.722656 60.28125 39.660156 C 60.222656 39.769531 60.109375 39.851562 59.941406 39.921875 Z M 59.941406 39.921875 "/>
<path style=" stroke:none;fill-rule:nonzero;fill:rgb(72.156863%,72.156863%,72.156863%);fill-opacity:1;" d="M 74.375 65.476562 C 74.414062 65.355469 74.507812 65.242188 74.664062 65.144531 C 74.625 65.269531 74.527344 65.375 74.375 65.476562 Z M 74.375 65.476562 "/>
<path style=" stroke:none;fill-rule:nonzero;fill:rgb(72.156863%,72.156863%,72.156863%);fill-opacity:1;" d="M 75.054688 64.933594 C 75.09375 64.820312 75.191406 64.710938 75.34375 64.613281 C 75.308594 64.730469 75.210938 64.835938 75.054688 64.933594 Z M 75.054688 64.933594 "/>
<path style=" stroke:none;fill-rule:nonzero;fill:rgb(72.156863%,72.156863%,72.156863%);fill-opacity:1;" d="M 84.277344 57.84375 C 84.316406 57.726562 84.410156 57.609375 84.566406 57.511719 C 84.527344 57.632812 84.429688 57.742188 84.277344 57.84375 Z M 84.277344 57.84375 "/>
<path style=" stroke:none;fill-rule:nonzero;fill:rgb(72.156863%,72.156863%,72.156863%);fill-opacity:1;" d="M 83.390625 58.511719 C 83.425781 58.398438 83.519531 58.285156 83.671875 58.1875 C 83.636719 58.304688 83.542969 58.40625 83.390625 58.511719 Z M 83.390625 58.511719 "/>
<path style=" stroke:none;fill-rule:nonzero;fill:rgb(72.156863%,72.156863%,72.156863%);fill-opacity:1;" d="M 72.601562 64.621094 C 72.699219 64.667969 72.785156 64.769531 72.828125 64.898438 C 72.71875 64.839844 72.652344 64.757812 72.601562 64.621094 Z M 72.601562 64.621094 "/>
<path style=" stroke:none;fill-rule:nonzero;fill:rgb(72.156863%,72.156863%,72.156863%);fill-opacity:1;" d="M 21.398438 58.671875 C 21.457031 58.566406 21.570312 58.472656 21.738281 58.40625 C 21.679688 58.515625 21.566406 58.601562 21.398438 58.671875 Z M 21.398438 58.671875 "/>
<path style=" stroke:none;fill-rule:nonzero;fill:rgb(72.156863%,72.156863%,72.156863%);fill-opacity:1;" d="M 20.703125 59.015625 C 20.757812 58.90625 20.867188 58.808594 21.035156 58.734375 C 20.980469 58.847656 20.867188 58.9375 20.703125 59.015625 Z M 20.703125 59.015625 "/>
<path style=" stroke:none;fill-rule:nonzero;fill:rgb(72.156863%,72.156863%,72.156863%);fill-opacity:1;" d="M 82.703125 59.046875 C 82.742188 58.929688 82.835938 58.816406 82.992188 58.71875 C 82.953125 58.839844 82.859375 58.945312 82.703125 59.046875 Z M 82.703125 59.046875 "/>
<path style=" stroke:none;fill-rule:nonzero;fill:rgb(72.156863%,72.156863%,72.156863%);fill-opacity:1;" d="M 70.855469 59.414062 C 70.957031 59.460938 71.039062 59.5625 71.082031 59.691406 C 70.972656 59.632812 70.90625 59.550781 70.855469 59.414062 Z M 70.855469 59.414062 "/>
<path style=" stroke:none;fill-rule:nonzero;fill:rgb(72.156863%,72.156863%,72.156863%);fill-opacity:1;" d="M 76.625 63.734375 C 76.664062 63.617188 76.761719 63.503906 76.917969 63.40625 C 76.878906 63.527344 76.78125 63.632812 76.625 63.734375 Z M 76.625 63.734375 "/>
<path style=" stroke:none;fill-rule:nonzero;fill:rgb(72.156863%,72.156863%,72.156863%);fill-opacity:1;" d="M 80.449219 60.789062 C 80.488281 60.671875 80.582031 60.554688 80.738281 60.453125 C 80.699219 60.578125 80.605469 60.683594 80.449219 60.789062 Z M 80.449219 60.789062 "/>
<path style=" stroke:none;fill-rule:nonzero;fill:rgb(72.156863%,72.156863%,72.156863%);fill-opacity:1;" d="M 79.570312 61.457031 C 79.605469 61.347656 79.699219 61.238281 79.851562 61.136719 C 79.816406 61.25 79.71875 61.355469 79.570312 61.457031 Z M 79.570312 61.457031 "/>
<path style=" stroke:none;fill-rule:nonzero;fill:rgb(72.156863%,72.156863%,72.156863%);fill-opacity:1;" d="M 78.878906 61.988281 C 78.917969 61.875 79.011719 61.761719 79.167969 61.664062 C 79.128906 61.785156 79.03125 61.890625 78.878906 61.988281 Z M 78.878906 61.988281 "/>
<path style=" stroke:none;fill-rule:nonzero;fill:rgb(72.156863%,72.156863%,72.156863%);fill-opacity:1;" d="M 71.730469 62.015625 C 71.828125 62.066406 71.910156 62.167969 71.953125 62.292969 C 71.847656 62.238281 71.78125 62.152344 71.730469 62.015625 Z M 71.730469 62.015625 "/>
<path style=" stroke:none;fill-rule:nonzero;fill:rgb(72.156863%,72.156863%,72.156863%);fill-opacity:1;" d="M 100.9375 44.992188 C 100.976562 44.871094 101.070312 44.757812 101.222656 44.660156 C 101.1875 44.78125 101.089844 44.886719 100.9375 44.992188 Z M 100.9375 44.992188 "/>
<path style=" stroke:none;fill-rule:nonzero;fill:rgb(72.156863%,72.156863%,72.156863%);fill-opacity:1;" d="M 59.246094 40.265625 C 59.300781 40.15625 59.410156 40.058594 59.578125 39.984375 C 59.523438 40.101562 59.410156 40.1875 59.246094 40.265625 Z M 59.246094 40.265625 "/>
<path style=" stroke:none;fill-rule:nonzero;fill:rgb(72.156863%,72.156863%,72.156863%);fill-opacity:1;" d="M 66.71875 47.078125 C 66.820312 47.140625 66.90625 47.253906 66.964844 47.425781 C 66.859375 47.363281 66.78125 47.246094 66.71875 47.078125 Z M 66.71875 47.078125 "/>
<path style=" stroke:none;fill-rule:nonzero;fill:rgb(72.156863%,72.156863%,72.156863%);fill-opacity:1;" d="M 44.652344 47.347656 C 44.707031 47.242188 44.816406 47.152344 44.980469 47.082031 C 44.925781 47.191406 44.816406 47.277344 44.652344 47.347656 Z M 44.652344 47.347656 "/>
<path style=" stroke:none;fill-rule:nonzero;fill:rgb(72.156863%,72.156863%,72.156863%);fill-opacity:1;" d="M 45.351562 47.019531 C 45.402344 46.910156 45.511719 46.816406 45.675781 46.742188 C 45.625 46.855469 45.515625 46.941406 45.351562 47.019531 Z M 45.351562 47.019531 "/>
<path style=" stroke:none;fill-rule:nonzero;fill:rgb(72.156863%,72.156863%,72.156863%);fill-opacity:1;" d="M 33.769531 46.496094 C 33.738281 46.617188 33.648438 46.734375 33.5 46.835938 C 33.53125 46.710938 33.625 46.601562 33.769531 46.496094 Z M 33.769531 46.496094 "/>
<path style=" stroke:none;fill-rule:nonzero;fill:rgb(72.156863%,72.156863%,72.156863%);fill-opacity:1;" d="M 98.683594 46.730469 C 98.722656 46.613281 98.820312 46.5 98.980469 46.40625 C 98.9375 46.527344 98.839844 46.632812 98.683594 46.730469 Z M 98.683594 46.730469 "/>
<path style=" stroke:none;fill-rule:nonzero;fill:rgb(72.156863%,72.156863%,72.156863%);fill-opacity:1;" d="M 46.050781 46.691406 C 46.109375 46.582031 46.21875 46.484375 46.386719 46.414062 C 46.332031 46.527344 46.21875 46.617188 46.050781 46.691406 Z M 46.050781 46.691406 "/>
<path style=" stroke:none;fill-rule:nonzero;fill:rgb(72.156863%,72.156863%,72.156863%);fill-opacity:1;" d="M 34.144531 46.175781 C 34.113281 46.289062 34.027344 46.40625 33.882812 46.507812 C 33.914062 46.390625 34 46.28125 34.144531 46.175781 Z M 34.144531 46.175781 "/>
<path style=" stroke:none;fill-rule:nonzero;fill:rgb(72.156863%,72.156863%,72.156863%);fill-opacity:1;" d="M 66.144531 45.359375 C 66.242188 45.410156 66.328125 45.511719 66.367188 45.636719 C 66.257812 45.578125 66.191406 45.496094 66.144531 45.359375 Z M 66.144531 45.359375 "/>
<path style=" stroke:none;fill-rule:nonzero;fill:rgb(72.156863%,72.156863%,72.156863%);fill-opacity:1;" d="M 43.609375 47.875 C 43.664062 47.769531 43.769531 47.675781 43.933594 47.605469 C 43.882812 47.714844 43.773438 47.800781 43.609375 47.875 Z M 43.609375 47.875 "/>
<path style=" stroke:none;fill-rule:nonzero;fill:rgb(72.156863%,72.156863%,72.156863%);fill-opacity:1;" d="M 65.84375 44.476562 C 65.949219 44.539062 66.03125 44.652344 66.089844 44.824219 C 65.984375 44.761719 65.90625 44.644531 65.84375 44.476562 Z M 65.84375 44.476562 "/>
<path style=" stroke:none;fill-rule:nonzero;fill:rgb(72.156863%,72.156863%,72.156863%);fill-opacity:1;" d="M 50.726562 44.398438 C 50.78125 44.292969 50.890625 44.203125 51.054688 44.132812 C 51 44.242188 50.890625 44.328125 50.726562 44.398438 Z M 50.726562 44.398438 "/>
<path style=" stroke:none;fill-rule:nonzero;fill:rgb(72.156863%,72.156863%,72.156863%);fill-opacity:1;" d="M 102.128906 44.082031 C 102.164062 43.96875 102.257812 43.859375 102.40625 43.761719 C 102.371094 43.878906 102.277344 43.980469 102.128906 44.082031 Z M 102.128906 44.082031 "/>
<path style=" stroke:none;fill-rule:nonzero;fill:rgb(72.156863%,72.156863%,72.156863%);fill-opacity:1;" d="M 51.429688 44.074219 C 51.484375 43.964844 51.589844 43.867188 51.753906 43.792969 C 51.703125 43.90625 51.59375 43.996094 51.429688 44.074219 Z M 51.429688 44.074219 "/>
<path style=" stroke:none;fill-rule:nonzero;fill:rgb(72.156863%,72.156863%,72.156863%);fill-opacity:1;" d="M 103.1875 43.246094 C 103.226562 43.128906 103.324219 43.015625 103.480469 42.921875 C 103.441406 43.039062 103.34375 43.144531 103.1875 43.246094 Z M 103.1875 43.246094 "/>
<path style=" stroke:none;fill-rule:nonzero;fill:rgb(72.156863%,72.156863%,72.156863%);fill-opacity:1;" d="M 65.269531 42.757812 C 65.371094 42.804688 65.453125 42.90625 65.496094 43.03125 C 65.386719 42.972656 65.320312 42.894531 65.269531 42.757812 Z M 65.269531 42.757812 "/>
<path style=" stroke:none;fill-rule:nonzero;fill:rgb(72.156863%,72.156863%,72.156863%);fill-opacity:1;" d="M 56.804688 41.457031 C 56.859375 41.347656 56.964844 41.253906 57.128906 41.179688 C 57.078125 41.289062 56.96875 41.378906 56.804688 41.457031 Z M 56.804688 41.457031 "/>
<path style=" stroke:none;fill-rule:nonzero;fill:rgb(72.156863%,72.156863%,72.156863%);fill-opacity:1;" d="M 105.953125 41.140625 C 105.988281 41.027344 106.078125 40.914062 106.226562 40.8125 C 106.195312 40.929688 106.101562 41.035156 105.953125 41.140625 Z M 105.953125 41.140625 "/>
<path style=" stroke:none;fill-rule:nonzero;fill:rgb(72.156863%,72.156863%,72.156863%);fill-opacity:1;" d="M 37.53125 50.824219 C 37.585938 50.71875 37.695312 50.625 37.859375 50.554688 C 37.804688 50.664062 37.695312 50.75 37.53125 50.824219 Z M 37.53125 50.824219 "/>
<path style=" stroke:none;fill-rule:nonzero;fill:rgb(72.156863%,72.156863%,72.156863%);fill-opacity:1;" d="M 87.214844 55.566406 C 87.25 55.453125 87.34375 55.339844 87.496094 55.238281 C 87.460938 55.359375 87.367188 55.464844 87.214844 55.566406 Z M 87.214844 55.566406 "/>
<path style=" stroke:none;fill-rule:nonzero;fill:rgb(72.156863%,72.156863%,72.156863%);fill-opacity:1;" d="M 69.117188 54.203125 C 69.214844 54.253906 69.292969 54.355469 69.332031 54.484375 C 69.226562 54.425781 69.164062 54.339844 69.117188 54.203125 Z M 69.117188 54.203125 "/>
<path style=" stroke:none;fill-rule:nonzero;fill:rgb(72.156863%,72.156863%,72.156863%);fill-opacity:1;" d="M 30.265625 54.355469 C 30.320312 54.246094 30.429688 54.144531 30.597656 54.074219 C 30.542969 54.191406 30.433594 54.28125 30.265625 54.355469 Z M 30.265625 54.355469 "/>
<path style=" stroke:none;fill-rule:nonzero;fill:rgb(72.156863%,72.156863%,72.156863%);fill-opacity:1;" d="M 89.46875 53.824219 C 89.503906 53.710938 89.597656 53.601562 89.753906 53.503906 C 89.71875 53.617188 89.621094 53.722656 89.46875 53.824219 Z M 89.46875 53.824219 "/>
<path style=" stroke:none;fill-rule:nonzero;fill:rgb(72.156863%,72.156863%,72.156863%);fill-opacity:1;" d="M 68.46875 52.285156 C 68.570312 52.347656 68.652344 52.460938 68.707031 52.628906 C 68.605469 52.566406 68.527344 52.453125 68.46875 52.285156 Z M 68.46875 52.285156 "/>
<path style=" stroke:none;fill-rule:nonzero;fill:rgb(72.156863%,72.156863%,72.156863%);fill-opacity:1;" d="M 57.503906 41.117188 C 57.558594 41.011719 57.667969 40.917969 57.835938 40.847656 C 57.78125 40.957031 57.667969 41.042969 57.503906 41.117188 Z M 57.503906 41.117188 "/>
<path style=" stroke:none;fill-rule:nonzero;fill:rgb(72.156863%,72.156863%,72.156863%);fill-opacity:1;" d="M 28.761719 50.863281 C 28.730469 50.976562 28.640625 51.09375 28.492188 51.199219 C 28.523438 51.078125 28.617188 50.96875 28.761719 50.863281 Z M 28.761719 50.863281 "/>
<path style=" stroke:none;fill-rule:nonzero;fill:rgb(72.156863%,72.156863%,72.156863%);fill-opacity:1;" d="M 93.289062 50.878906 C 93.328125 50.765625 93.421875 50.652344 93.578125 50.554688 C 93.542969 50.675781 93.445312 50.78125 93.289062 50.878906 Z M 93.289062 50.878906 "/>
<path style=" stroke:none;fill-rule:nonzero;fill:rgb(72.156863%,72.156863%,72.156863%);fill-opacity:1;" d="M 27.46875 55.703125 C 27.53125 55.605469 27.648438 55.519531 27.820312 55.460938 C 27.757812 55.566406 27.636719 55.640625 27.46875 55.703125 Z M 27.46875 55.703125 "/>
<path style=" stroke:none;fill-rule:nonzero;fill:rgb(72.156863%,72.156863%,72.156863%);fill-opacity:1;" d="M 38.234375 50.496094 C 38.289062 50.390625 38.398438 50.292969 38.5625 50.21875 C 38.511719 50.332031 38.398438 50.417969 38.234375 50.496094 Z M 38.234375 50.496094 "/>
<path style=" stroke:none;fill-rule:nonzero;fill:rgb(72.156863%,72.156863%,72.156863%);fill-opacity:1;" d="M 29.785156 49.976562 C 29.753906 50.09375 29.667969 50.210938 29.519531 50.316406 C 29.546875 50.195312 29.636719 50.085938 29.785156 49.976562 Z M 29.785156 49.976562 "/>
<path style=" stroke:none;fill-rule:nonzero;fill:rgb(72.156863%,72.156863%,72.156863%);fill-opacity:1;" d="M 67.59375 49.679688 C 67.695312 49.742188 67.78125 49.859375 67.835938 50.027344 C 67.730469 49.964844 67.652344 49.851562 67.59375 49.679688 Z M 67.59375 49.679688 "/>
<path style=" stroke:none;fill-rule:nonzero;fill:rgb(72.156863%,72.156863%,72.156863%);fill-opacity:1;" d="M 30.15625 49.660156 C 30.125 49.773438 30.039062 49.882812 29.894531 49.988281 C 29.925781 49.871094 30.015625 49.761719 30.15625 49.660156 Z M 30.15625 49.660156 "/>
<path style=" stroke:none;fill-rule:nonzero;fill:rgb(72.156863%,72.156863%,72.156863%);fill-opacity:1;" d="M 39.976562 49.644531 C 40.03125 49.535156 40.140625 49.4375 40.308594 49.363281 C 40.253906 49.476562 40.140625 49.566406 39.976562 49.644531 Z M 39.976562 49.644531 "/>
<path style=" stroke:none;fill-rule:nonzero;fill:rgb(72.156863%,72.156863%,72.156863%);fill-opacity:1;" d="M 67.375 48.996094 C 67.472656 49.046875 67.546875 49.148438 67.582031 49.277344 C 67.480469 49.21875 67.417969 49.132812 67.375 48.996094 Z M 67.375 48.996094 "/>
<path style=" stroke:none;fill-rule:nonzero;fill:rgb(72.156863%,72.156863%,72.156863%);fill-opacity:1;" d="M 40.667969 49.296875 C 40.730469 49.195312 40.84375 49.101562 41.011719 49.039062 C 40.953125 49.148438 40.835938 49.230469 40.667969 49.296875 Z M 40.667969 49.296875 "/>
<path style=" stroke:none;fill-rule:nonzero;fill:rgb(72.156863%,72.156863%,72.156863%);fill-opacity:1;" d="M 67.015625 47.964844 C 67.117188 48.011719 67.199219 48.117188 67.238281 48.242188 C 67.128906 48.179688 67.0625 48.097656 67.015625 47.964844 Z M 67.015625 47.964844 "/>
<path style=" stroke:none;fill-rule:nonzero;fill:rgb(100%,100%,100%);fill-opacity:1;" d="M 127.027344 89.757812 C 127.027344 75.472656 127.027344 61.277344 127.027344 47.039062 C 132.527344 47.039062 137.921875 47.039062 143.375 47.039062 C 143.375 79.152344 143.375 111.226562 143.375 143.367188 C 137.96875 143.367188 132.550781 143.367188 127.027344 143.367188 C 127.027344 125.523438 127.027344 107.683594 127.027344 89.757812 Z M 127.027344 89.757812 "/>
<path style=" stroke:none;fill-rule:nonzero;fill:rgb(99.215686%,99.215686%,99.215686%);fill-opacity:1;" d="M 86.972656 84.375 C 86.972656 80.355469 86.992188 76.421875 86.953125 72.488281 C 86.949219 71.707031 87.144531 71.429688 87.964844 71.433594 C 92.792969 71.46875 97.625 71.464844 102.457031 71.4375 C 103.1875 71.433594 103.382812 71.664062 103.382812 72.375 C 103.363281 95.804688 103.367188 119.230469 103.367188 142.660156 C 103.367188 142.882812 103.339844 143.109375 103.320312 143.378906 C 97.882812 143.378906 92.492188 143.378906 86.972656 143.378906 C 86.972656 123.714844 86.972656 104.089844 86.972656 84.375 Z M 86.972656 84.375 "/>
<path style=" stroke:none;fill-rule:nonzero;fill:rgb(99.215686%,99.215686%,99.215686%);fill-opacity:1;" d="M 46.976562 121.703125 C 46.976562 113.113281 46.976562 104.613281 46.976562 96.039062 C 52.441406 96.039062 57.855469 96.039062 63.324219 96.039062 C 63.324219 111.804688 63.324219 127.527344 63.324219 143.339844 C 57.925781 143.339844 52.511719 143.339844 46.976562 143.339844 C 46.976562 136.164062 46.976562 128.976562 46.976562 121.703125 Z M 46.976562 121.703125 "/>
<path style=" stroke:none;fill-rule:nonzero;fill:rgb(99.607843%,99.607843%,99.607843%);fill-opacity:1;" d="M 6.917969 128.296875 C 6.917969 125.867188 6.925781 123.523438 6.910156 121.179688 C 6.90625 120.691406 7 120.449219 7.570312 120.449219 C 12.691406 120.46875 17.808594 120.464844 22.929688 120.46875 C 23.015625 120.46875 23.097656 120.496094 23.25 120.523438 C 23.25 128.117188 23.25 135.710938 23.25 143.367188 C 17.863281 143.367188 12.445312 143.367188 6.917969 143.367188 C 6.917969 138.371094 6.917969 133.378906 6.917969 128.296875 Z M 6.917969 128.296875 "/>
</g>
</svg>
