<?xml version="1.0" encoding="UTF-8"?>
<svg xmlns="http://www.w3.org/2000/svg" xmlns:xlink="http://www.w3.org/1999/xlink" width="150px" height="150px" viewBox="0 0 150 150" version="1.1">
<g id="surface1">
<path style=" stroke:none;fill-rule:nonzero;fill:rgb(0%,0%,0%);fill-opacity:1;" d="M 94.445312 112.828125 C 76.648438 112.828125 58.941406 112.832031 41.234375 112.820312 C 38.429688 112.820312 35.621094 112.710938 32.871094 112.144531 C 28.335938 111.210938 24.050781 109.601562 20.128906 107.113281 C 14.023438 103.242188 9.339844 98.066406 6.15625 91.570312 C 4.332031 87.847656 3.171875 83.921875 2.671875 79.777344 C 2.425781 77.722656 2.371094 75.683594 2.417969 73.632812 C 2.496094 70.125 3.160156 66.695312 4.265625 63.371094 C 6.039062 58.03125 8.855469 53.296875 12.75 49.21875 C 16.1875 45.621094 20.167969 42.800781 24.714844 40.761719 C 27.25 39.625 29.890625 38.796875 32.59375 38.21875 C 34.960938 37.714844 37.386719 37.519531 39.8125 37.519531 C 63.363281 37.511719 86.917969 37.453125 110.46875 37.542969 C 121.324219 37.585938 130.527344 41.707031 137.957031 49.636719 C 142.164062 54.121094 145.03125 59.390625 146.675781 65.308594 C 147.828125 69.460938 148.265625 73.726562 147.902344 78.003906 C 147.199219 86.199219 144.230469 93.5 138.789062 99.746094 C 134.140625 105.082031 128.484375 108.859375 121.734375 111.035156 C 117.957031 112.253906 114.097656 112.796875 110.15625 112.820312 C 104.945312 112.855469 99.738281 112.828125 94.445312 112.828125 M 16.164062 52.882812 C 12.117188 57.265625 9.394531 62.332031 8.152344 68.191406 C 7.445312 71.515625 7.136719 74.839844 7.496094 78.246094 C 7.835938 81.453125 8.546875 84.554688 9.769531 87.523438 C 12.261719 93.59375 16.21875 98.5 21.648438 102.210938 C 25.820312 105.058594 30.4375 106.8125 35.410156 107.546875 C 37.515625 107.855469 39.664062 107.9375 41.808594 107.925781 C 59.457031 107.855469 77.109375 108.011719 94.757812 107.839844 C 99.761719 107.792969 104.765625 107.828125 109.773438 107.835938 C 113.195312 107.839844 116.550781 107.433594 119.835938 106.414062 C 124.78125 104.882812 129.160156 102.375 132.882812 98.785156 C 138.113281 93.734375 141.316406 87.609375 142.5625 80.421875 C 143.445312 75.328125 143.027344 70.332031 141.53125 65.445312 C 140.210938 61.128906 138.050781 57.222656 135.027344 53.8125 C 128.671875 46.636719 120.707031 42.640625 111.148438 42.578125 C 87.304688 42.417969 63.464844 42.515625 39.621094 42.53125 C 36.582031 42.53125 33.605469 43.015625 30.679688 43.890625 C 25.0625 45.574219 20.273438 48.558594 16.164062 52.882812 Z M 16.164062 52.882812 "/>
<path style=" stroke:none;fill-rule:nonzero;fill:rgb(0%,0%,0%);fill-opacity:1;" d="M 29.496094 48.933594 C 32.941406 47.519531 36.472656 46.894531 40.117188 46.894531 C 63.582031 46.890625 87.046875 46.742188 110.511719 46.953125 C 122.226562 47.054688 130.699219 52.851562 135.960938 63.296875 C 137.210938 65.78125 137.882812 68.445312 138.316406 71.210938 C 138.667969 73.441406 138.722656 75.671875 138.507812 77.859375 C 138.019531 82.820312 136.355469 87.414062 133.421875 91.484375 C 129.554688 96.847656 124.464844 100.507812 118.097656 102.367188 C 115.472656 103.132812 112.789062 103.445312 110.066406 103.449219 C 104.074219 103.460938 98.085938 103.503906 92.097656 103.4375 C 80.324219 103.304688 68.546875 103.34375 56.773438 103.402344 C 51.042969 103.429688 45.3125 103.5 39.59375 103.339844 C 27.925781 103.011719 19.597656 97.351562 14.386719 87.015625 C 13.113281 84.484375 12.378906 81.769531 12.058594 78.921875 C 10.773438 67.550781 14.890625 58.597656 24.027344 51.863281 C 25.679688 50.644531 27.511719 49.703125 29.496094 48.933594 M 89.808594 86.152344 C 93.480469 92.847656 99.15625 96.804688 106.601562 98.164062 C 109.355469 98.667969 112.152344 98.53125 114.941406 97.953125 C 118.703125 97.171875 122.066406 95.625 125.015625 93.199219 C 130.5625 88.636719 133.3125 82.675781 133.625 75.558594 C 133.722656 73.417969 133.332031 71.316406 132.796875 69.242188 C 131.472656 64.097656 128.695312 59.914062 124.492188 56.703125 C 121.101562 54.113281 117.277344 52.574219 113 52.070312 C 110.816406 51.816406 108.652344 51.851562 106.527344 52.191406 C 103.492188 52.683594 100.617188 53.746094 98.007812 55.425781 C 90.964844 59.964844 87.40625 66.523438 87.050781 74.804688 C 86.882812 78.761719 87.917969 82.519531 89.808594 86.152344 M 93.707031 97.992188 C 87.703125 93.550781 83.824219 87.671875 82.578125 80.332031 C 80.601562 68.691406 84.746094 59.324219 94.058594 51.929688 C 81.324219 51.929688 68.824219 51.929688 56.164062 51.929688 C 63.972656 57.855469 68.253906 65.476562 68.238281 75.191406 C 68.226562 84.917969 63.917969 92.546875 56.195312 98.398438 C 56.359375 98.429688 56.414062 98.453125 56.46875 98.453125 C 68.675781 98.453125 80.882812 98.453125 93.085938 98.453125 C 93.347656 98.453125 93.628906 98.484375 93.859375 98.398438 C 94.167969 98.277344 93.902344 98.160156 93.707031 97.992188 M 18.71875 65.84375 C 17.460938 68.613281 16.867188 71.546875 16.722656 74.5625 C 16.613281 76.789062 16.96875 78.984375 17.535156 81.148438 C 18.75 85.789062 21.179688 89.675781 24.8125 92.789062 C 28.410156 95.871094 32.546875 97.726562 37.292969 98.28125 C 40.390625 98.644531 43.425781 98.429688 46.378906 97.582031 C 50.78125 96.320312 54.519531 93.933594 57.5625 90.472656 C 60.160156 87.519531 61.867188 84.109375 62.742188 80.320312 C 63.363281 77.617188 63.53125 74.863281 63.082031 72.0625 C 62.628906 69.238281 61.871094 66.53125 60.472656 64.066406 C 56.53125 57.128906 50.617188 53.082031 42.644531 52.085938 C 38.921875 51.621094 35.324219 52.054688 31.851562 53.386719 C 25.816406 55.707031 21.445312 59.828125 18.71875 65.84375 Z M 18.71875 65.84375 "/>
<path style=" stroke:none;fill-rule:nonzero;fill:rgb(0%,0%,0%);fill-opacity:1;" d="M 125.832031 80.835938 C 123.609375 86.257812 119.753906 89.789062 114.136719 91.226562 C 106.277344 93.234375 98.160156 89.21875 94.785156 81.78125 C 94.425781 80.992188 94.140625 80.179688 93.914062 79.347656 C 93.644531 78.355469 93.773438 77.433594 94.550781 76.710938 C 95.308594 76.003906 96.214844 75.753906 97.191406 76.199219 C 98.945312 77.003906 100.785156 77.160156 102.683594 77.09375 C 106.789062 76.949219 111.019531 73.433594 111.964844 69.4375 C 112.5625 66.902344 112.433594 64.453125 111.355469 62.097656 C 110.875 61.054688 111.175781 60.234375 111.808594 59.464844 C 112.511719 58.613281 113.488281 58.4375 114.492188 58.742188 C 120.324219 60.515625 124.285156 64.273438 126.171875 70.082031 C 127.328125 73.65625 127.164062 77.246094 125.832031 80.835938 M 115.699219 73.585938 C 112.558594 79.417969 107.578125 82.171875 101 82.242188 C 102.476562 84.75 107.570312 87.597656 112.484375 86.492188 C 116.066406 85.6875 121.078125 82.644531 121.820312 75.972656 C 122.210938 72.464844 120.460938 67.777344 117.414062 65.847656 C 117.386719 68.527344 116.976562 71.089844 115.699219 73.585938 Z M 115.699219 73.585938 "/>
<path style=" stroke:none;fill-rule:nonzero;fill:rgb(0%,0%,0%);fill-opacity:1;" d="M 37.511719 60.042969 C 37.535156 58.976562 37.574219 57.992188 37.574219 57.011719 C 37.570312 56.488281 37.816406 56.273438 38.304688 56.273438 C 39.460938 56.269531 40.617188 56.273438 41.773438 56.273438 C 42.324219 56.277344 42.53125 56.582031 42.523438 57.109375 C 42.511719 58.179688 42.535156 59.25 42.515625 60.316406 C 42.507812 60.875 42.640625 61.160156 43.273438 61.335938 C 44.773438 61.753906 46.246094 62.289062 47.546875 63.175781 C 48.007812 63.484375 48.300781 63.417969 48.660156 63.035156 C 49.457031 62.199219 50.300781 61.402344 51.105469 60.574219 C 51.457031 60.214844 51.738281 60.171875 52.117188 60.5625 C 52.9375 61.414062 53.78125 62.25 54.640625 63.0625 C 55.070312 63.472656 54.980469 63.769531 54.59375 64.136719 C 53.800781 64.894531 53.050781 65.699219 52.25 66.453125 C 51.820312 66.855469 51.75 67.199219 52.078125 67.722656 C 52.933594 69.101562 53.605469 70.570312 53.875 72.1875 C 53.957031 72.660156 54.261719 72.703125 54.632812 72.703125 C 55.730469 72.703125 56.832031 72.734375 57.929688 72.699219 C 58.617188 72.675781 58.941406 72.882812 58.910156 73.628906 C 58.863281 74.667969 58.867188 75.710938 58.902344 76.75 C 58.925781 77.4375 58.644531 77.671875 57.980469 77.652344 C 56.882812 77.617188 55.78125 77.65625 54.683594 77.640625 C 54.160156 77.628906 53.941406 77.8125 53.835938 78.363281 C 53.550781 79.847656 52.964844 81.234375 52.140625 82.503906 C 51.757812 83.089844 51.785156 83.507812 52.324219 83.992188 C 53.144531 84.722656 53.882812 85.542969 54.675781 86.304688 C 55.015625 86.632812 55.039062 86.898438 54.683594 87.238281 C 53.824219 88.058594 52.976562 88.886719 52.152344 89.738281 C 51.761719 90.140625 51.464844 90.144531 51.074219 89.738281 C 50.296875 88.921875 49.476562 88.148438 48.6875 87.339844 C 48.339844 86.980469 48.015625 86.855469 47.554688 87.167969 C 46.226562 88.070312 44.734375 88.613281 43.195312 89.015625 C 42.660156 89.152344 42.503906 89.425781 42.511719 89.929688 C 42.527344 91 42.503906 92.070312 42.519531 93.140625 C 42.527344 93.789062 42.25 94.089844 41.585938 94.078125 C 40.515625 94.058594 39.445312 94.066406 38.375 94.074219 C 37.761719 94.078125 37.488281 93.808594 37.511719 93.175781 C 37.554688 92.136719 37.539062 91.09375 37.578125 90.054688 C 37.601562 89.488281 37.464844 89.164062 36.832031 89.015625 C 35.28125 88.644531 33.808594 88.050781 32.46875 87.171875 C 32 86.867188 31.699219 86.976562 31.347656 87.34375 C 30.570312 88.160156 29.75 88.9375 28.96875 89.75 C 28.589844 90.144531 28.292969 90.175781 27.894531 89.757812 C 27.117188 88.941406 26.308594 88.152344 25.484375 87.382812 C 25.027344 86.957031 24.984375 86.632812 25.476562 86.179688 C 26.308594 85.421875 27.074219 84.589844 27.882812 83.804688 C 28.21875 83.476562 28.304688 83.191406 28.027344 82.75 C 27.128906 81.328125 26.464844 79.796875 26.152344 78.132812 C 26.066406 77.664062 25.726562 77.644531 25.367188 77.644531 C 24.269531 77.640625 23.167969 77.617188 22.070312 77.648438 C 21.414062 77.667969 21.113281 77.449219 21.136719 76.753906 C 21.171875 75.6875 21.167969 74.613281 21.136719 73.546875 C 21.117188 72.890625 21.398438 72.683594 22.019531 72.699219 C 23.058594 72.730469 24.101562 72.6875 25.140625 72.71875 C 25.78125 72.738281 26.085938 72.597656 26.226562 71.855469 C 26.515625 70.347656 27.152344 68.941406 28 67.652344 C 28.300781 67.191406 28.242188 66.886719 27.867188 66.527344 C 27.050781 65.75 26.28125 64.925781 25.460938 64.152344 C 25.035156 63.753906 24.964844 63.445312 25.421875 63.015625 C 26.246094 62.246094 27.054688 61.457031 27.820312 60.628906 C 28.277344 60.136719 28.597656 60.207031 29.023438 60.65625 C 29.757812 61.4375 30.542969 62.164062 31.285156 62.9375 C 31.6875 63.359375 32.070312 63.4375 32.578125 63.109375 C 33.824219 62.308594 35.179688 61.714844 36.617188 61.394531 C 37.402344 61.222656 37.597656 60.820312 37.511719 60.042969 M 32.671875 69.566406 C 31.109375 71.820312 30.496094 74.21875 30.992188 77.003906 C 31.878906 82.023438 37.601562 85.878906 43.128906 83.851562 C 48.691406 81.8125 51.378906 74.824219 47.308594 69.523438 C 43.652344 64.761719 36.59375 64.6875 32.671875 69.566406 Z M 32.671875 69.566406 "/>
</g>
</svg>
