<?xml version="1.0" encoding="UTF-8"?>
<svg xmlns="http://www.w3.org/2000/svg" xmlns:xlink="http://www.w3.org/1999/xlink" width="150px" height="150px" viewBox="0 0 150 150" version="1.1">
<g id="surface1">
<path style=" stroke:none;fill-rule:nonzero;fill:rgb(0%,0%,0%);fill-opacity:1;" d="M 0.171875 79.6875 C 0.171875 76.789062 0.171875 73.894531 0.183594 70.84375 C 0.34375 70.394531 0.324219 70.074219 0.335938 69.757812 C 0.441406 66.429688 0.917969 63.140625 1.597656 59.894531 C 2.472656 55.714844 3.699219 51.636719 5.261719 47.652344 C 8.15625 40.269531 12.152344 33.539062 17.191406 27.433594 C 23.386719 19.921875 30.765625 13.816406 39.3125 9.140625 C 44.832031 6.125 50.636719 3.832031 56.75 2.328125 C 59.804688 1.574219 62.882812 0.988281 66.011719 0.597656 C 67.269531 0.441406 68.546875 0.460938 69.792969 0.171875 C 73.324219 0.171875 76.859375 0.171875 80.539062 0.199219 C 80.886719 0.257812 81.085938 0.308594 81.285156 0.316406 C 84.378906 0.460938 87.429688 0.96875 90.449219 1.582031 C 94.234375 2.347656 97.933594 3.460938 101.550781 4.824219 C 109.410156 7.785156 116.578125 11.957031 123.039062 17.304688 C 129.480469 22.640625 134.902344 28.886719 139.273438 36.027344 C 141.964844 40.421875 144.183594 45.042969 145.921875 49.902344 C 147.234375 53.570312 148.277344 57.316406 148.980469 61.144531 C 149.492188 63.921875 150.015625 66.707031 150.003906 69.554688 C 150.003906 70.042969 149.984375 70.539062 150.171875 71.007812 C 150.171875 73.730469 150.171875 76.453125 150.164062 79.332031 C 149.972656 79.863281 150.035156 80.277344 150.007812 80.679688 C 149.886719 82.320312 149.867188 83.972656 149.625 85.597656 C 149.164062 88.734375 148.472656 91.828125 147.648438 94.890625 C 146.492188 99.1875 144.957031 103.351562 143.035156 107.367188 C 140.542969 112.570312 137.476562 117.417969 133.90625 121.957031 C 128.707031 128.570312 122.53125 134.085938 115.445312 138.597656 C 109.886719 142.136719 103.972656 144.90625 97.671875 146.867188 C 92.472656 148.480469 87.1875 149.601562 81.742188 149.921875 C 80.941406 149.96875 80.113281 149.851562 79.339844 150.171875 C 76.617188 150.171875 73.894531 150.171875 71.019531 150.148438 C 70.644531 150.089844 70.417969 150.023438 70.1875 150.019531 C 66.738281 149.96875 63.339844 149.460938 59.972656 148.78125 C 56.917969 148.160156 53.914062 147.328125 50.960938 146.316406 C 44.746094 144.191406 38.914062 141.285156 33.460938 137.636719 C 26.429688 132.929688 20.359375 127.207031 15.28125 120.414062 C 11.925781 115.925781 9.058594 111.160156 6.738281 106.066406 C 4.808594 101.832031 3.273438 97.449219 2.207031 92.917969 C 1.519531 90 0.808594 87.085938 0.617188 84.078125 C 0.523438 82.609375 0.324219 81.148438 0.171875 79.6875 M 45.347656 41.988281 C 46.976562 38.257812 49.257812 34.960938 52.136719 32.105469 C 57.605469 26.6875 64.207031 23.519531 71.859375 22.730469 C 76.710938 22.230469 81.480469 22.792969 86.101562 24.453125 C 91.910156 26.542969 96.757812 30.003906 100.605469 34.792969 C 104.546875 39.695312 106.824219 45.304688 107.582031 51.589844 C 108.164062 56.40625 107.550781 61.046875 106.054688 65.585938 C 104.417969 70.554688 101.644531 74.851562 97.882812 78.503906 C 97.671875 78.710938 97.335938 78.871094 97.421875 79.316406 C 114.0625 86.375 125.621094 98.375 132.050781 115.492188 C 134.179688 112.71875 135.816406 109.867188 137.320312 106.957031 C 142.183594 97.523438 144.734375 87.453125 145.042969 76.863281 C 145.328125 67.164062 143.5625 57.785156 139.855469 48.8125 C 134.078125 34.828125 124.777344 23.746094 111.898438 15.8125 C 97.328125 6.835938 81.480469 3.597656 64.542969 6.152344 C 51.914062 8.054688 40.625 13.132812 30.808594 21.289062 C 17.414062 32.414062 9.1875 46.644531 6.246094 63.796875 C 4.027344 76.753906 5.621094 89.386719 10.542969 101.570312 C 12.519531 106.460938 15.023438 111.089844 18.300781 115.496094 C 24.734375 98.324219 36.320312 86.34375 52.984375 79.273438 C 52.933594 79.113281 52.929688 79.019531 52.882812 78.957031 C 52.757812 78.796875 52.621094 78.648438 52.476562 78.507812 C 46.953125 72.988281 43.640625 66.414062 42.765625 58.601562 C 42.121094 52.851562 43.070312 47.394531 45.347656 41.988281 M 122.816406 126.203125 C 124.503906 124.574219 126.140625 122.898438 127.691406 121.140625 C 127.96875 120.824219 128.035156 120.554688 127.90625 120.132812 C 127.148438 117.585938 126.253906 115.097656 125.15625 112.671875 C 120.976562 103.441406 114.703125 95.957031 106.410156 90.15625 C 102.261719 87.257812 97.777344 85.015625 93.003906 83.34375 C 92.484375 83.164062 92.007812 83.125 91.507812 83.410156 C 87.296875 85.78125 82.792969 87.160156 77.976562 87.667969 C 74.46875 88.039062 71.046875 87.65625 67.660156 86.890625 C 64.578125 86.195312 61.640625 85.050781 58.902344 83.449219 C 58.441406 83.179688 57.984375 83.125 57.492188 83.300781 C 56.675781 83.597656 55.851562 83.867188 55.050781 84.191406 C 47.152344 87.386719 40.289062 92.066406 34.566406 98.398438 C 28.933594 104.632812 24.9375 111.777344 22.519531 119.820312 C 22.328125 120.457031 22.417969 120.867188 22.851562 121.363281 C 28.949219 128.292969 36.15625 133.753906 44.417969 137.855469 C 48.226562 139.75 52.199219 141.230469 56.269531 142.421875 C 58.871094 143.1875 61.53125 143.761719 64.207031 144.160156 C 66.425781 144.496094 68.679688 144.65625 70.921875 144.867188 C 76.121094 145.355469 81.261719 144.84375 86.378906 144.117188 C 89.222656 143.714844 92.03125 143.015625 94.800781 142.1875 C 99.695312 140.726562 104.378906 138.796875 108.84375 136.332031 C 113.882812 133.554688 118.480469 130.160156 122.816406 126.203125 M 54.78125 36.984375 C 51.3125 40.914062 49.175781 45.457031 48.234375 50.621094 C 47.527344 54.515625 47.761719 58.335938 48.738281 62.109375 C 49.886719 66.550781 52.066406 70.484375 55.21875 73.820312 C 59.933594 78.816406 65.78125 81.632812 72.574219 82.347656 C 76.488281 82.761719 80.367188 82.257812 84.105469 80.960938 C 89.035156 79.25 93.109375 76.320312 96.421875 72.289062 C 99.679688 68.320312 101.582031 63.746094 102.3125 58.714844 C 102.792969 55.417969 102.570312 52.113281 101.75 48.835938 C 100.804688 45.046875 99.300781 41.535156 96.820312 38.523438 C 89.460938 29.585938 80.09375 26.171875 68.726562 28.660156 C 63.222656 29.863281 58.644531 32.738281 54.78125 36.984375 Z M 54.78125 36.984375 "/>
</g>
</svg>
