<?xml version="1.0" encoding="UTF-8"?>
<svg xmlns="http://www.w3.org/2000/svg" xmlns:xlink="http://www.w3.org/1999/xlink" width="150px" height="150px" viewBox="0 0 150 150" version="1.1">
<g id="surface1">
<path style=" stroke:none;fill-rule:nonzero;fill:rgb(0%,0%,0%);fill-opacity:1;" d="M 150.171875 70.140625 C 150.171875 73.382812 150.171875 76.628906 150.164062 80.023438 C 150.113281 80.429688 150.046875 80.683594 150.039062 80.941406 C 149.917969 84.265625 149.472656 87.550781 148.773438 90.792969 C 147.84375 95.105469 146.597656 99.332031 144.929688 103.421875 C 141.238281 112.46875 135.976562 120.492188 129.1875 127.511719 C 123.285156 133.613281 116.546875 138.582031 108.964844 142.40625 C 104.757812 144.527344 100.378906 146.210938 95.855469 147.523438 C 93.667969 148.15625 91.449219 148.660156 89.21875 149.078125 C 87.71875 149.359375 86.210938 149.601562 84.679688 149.746094 C 83.25 149.886719 81.792969 149.8125 80.382812 150.171875 C 77.078125 150.171875 73.777344 150.171875 70.328125 150.148438 C 69.921875 150.082031 69.667969 150.019531 69.410156 150.007812 C 65.855469 149.855469 62.359375 149.316406 58.875 148.574219 C 53.886719 147.507812 49.074219 145.933594 44.445312 143.832031 C 29.8125 137.183594 18.429688 126.882812 10.230469 113.070312 C 7.210938 107.988281 4.871094 102.597656 3.195312 96.925781 C 2.640625 95.046875 2.152344 93.152344 1.71875 91.242188 C 1.242188 89.160156 0.925781 87.058594 0.644531 84.945312 C 0.414062 83.199219 0.496094 81.425781 0.171875 79.6875 C 0.171875 76.847656 0.171875 74.007812 0.1875 71.019531 C 0.242188 70.613281 0.320312 70.359375 0.328125 70.105469 C 0.5 65.015625 1.328125 60.035156 2.675781 55.121094 C 4.109375 49.894531 6.050781 44.878906 8.605469 40.113281 C 15.8125 26.6875 26.105469 16.292969 39.460938 8.953125 C 43.136719 6.9375 46.964844 5.261719 50.953125 3.953125 C 53.550781 3.101562 56.160156 2.324219 58.847656 1.773438 C 61.136719 1.300781 63.414062 0.820312 65.75 0.625 C 67.101562 0.507812 68.445312 0.324219 69.792969 0.171875 C 73.382812 0.171875 76.976562 0.171875 80.714844 0.199219 C 82.527344 0.386719 84.203125 0.46875 85.855469 0.722656 C 90.015625 1.359375 94.109375 2.28125 98.125 3.566406 C 104.15625 5.496094 109.84375 8.132812 115.191406 11.503906 C 123.65625 16.84375 130.785156 23.609375 136.59375 31.765625 C 140.773438 37.632812 144.027344 43.980469 146.34375 50.804688 C 147.242188 53.445312 147.984375 56.132812 148.5625 58.871094 C 149.0625 61.238281 149.453125 63.613281 149.765625 66.011719 C 149.945312 67.386719 149.871094 68.78125 150.171875 70.140625 M 111.679688 106.8125 C 115.394531 111.394531 118.199219 116.460938 119.90625 122.121094 C 120.195312 123.078125 120.429688 123.132812 121.167969 122.421875 C 125.8125 117.925781 129.679688 112.839844 132.851562 107.203125 C 135.285156 102.882812 137.191406 98.339844 138.582031 93.59375 C 139.417969 90.753906 140.03125 87.855469 140.464844 84.914062 C 140.875 82.132812 141.160156 79.34375 141.234375 76.550781 C 141.34375 72.183594 140.871094 67.855469 140.140625 63.542969 C 139.515625 59.832031 138.523438 56.238281 137.269531 52.710938 C 135.601562 48.015625 133.363281 43.582031 130.648438 39.394531 C 125.058594 30.78125 117.867188 23.808594 109.074219 18.519531 C 101.5625 14.007812 93.460938 11.125 84.769531 9.875 C 81.675781 9.433594 78.5625 9.121094 75.449219 9.128906 C 71.503906 9.140625 67.566406 9.507812 63.65625 10.210938 C 60.011719 10.867188 56.445312 11.777344 52.972656 13.019531 C 47.457031 14.996094 42.289062 17.675781 37.480469 21.046875 C 30.679688 25.816406 24.921875 31.613281 20.320312 38.53125 C 14.855469 46.742188 11.324219 55.710938 9.882812 65.496094 C 9.449219 68.449219 9.140625 71.410156 9.117188 74.378906 C 9.070312 79.984375 9.742188 85.523438 11.101562 90.984375 C 12.019531 94.664062 13.207031 98.242188 14.746094 101.6875 C 18.222656 109.476562 22.945312 116.417969 29.121094 122.335938 C 29.378906 122.582031 29.582031 122.960938 30.117188 122.859375 C 34.589844 109.101562 43.472656 99.1875 56.84375 93.050781 C 48.46875 86.890625 43.476562 78.980469 42.523438 68.804688 C 41.566406 58.621094 44.808594 49.824219 51.984375 42.589844 C 63.289062 31.183594 81.304688 29.460938 94.78125 39.480469 C 102.039062 44.878906 106.46875 52.164062 107.632812 61.160156 C 109.359375 74.484375 104.199219 84.960938 93.542969 93.117188 C 100.746094 96.3125 106.757812 100.757812 111.679688 106.8125 M 108.5625 132.074219 C 109.59375 131.433594 110.617188 130.777344 111.660156 130.164062 C 112.234375 129.824219 112.410156 129.339844 112.21875 128.769531 C 111.78125 127.457031 111.535156 126.097656 111.113281 124.78125 C 108.992188 118.148438 105.339844 112.535156 100.101562 107.960938 C 94.070312 102.691406 87.054688 99.621094 79.101562 98.828125 C 73.140625 98.238281 67.304688 98.9375 61.671875 101.097656 C 57.023438 102.882812 52.882812 105.460938 49.257812 108.855469 C 43.421875 114.316406 39.859375 121.058594 38.113281 128.808594 C 37.984375 129.382812 38.167969 129.792969 38.675781 130.125 C 39.980469 130.984375 41.316406 131.789062 42.664062 132.574219 C 47.152344 135.183594 51.910156 137.167969 56.882812 138.609375 C 59.753906 139.445312 62.6875 140.035156 65.652344 140.472656 C 68.542969 140.902344 71.449219 141.183594 74.355469 141.226562 C 78.542969 141.285156 82.707031 140.886719 86.835938 140.121094 C 89.554688 139.617188 92.246094 138.996094 94.878906 138.167969 C 99.632812 136.675781 104.164062 134.671875 108.5625 132.074219 M 98.207031 71.074219 C 98.390625 70.347656 98.511719 69.617188 98.597656 68.867188 C 99 65.386719 98.84375 61.953125 97.722656 58.617188 C 94.964844 50.398438 89.328125 45.109375 81.015625 42.851562 C 76.929688 41.742188 72.710938 41.792969 68.617188 43.082031 C 59.785156 45.867188 54.238281 51.757812 52.105469 60.792969 C 51.171875 64.753906 51.363281 68.71875 52.5625 72.582031 C 55.503906 82.058594 63.378906 88.375 73.207031 89.332031 C 76.839844 89.6875 80.421875 89.148438 83.8125 87.753906 C 91.359375 84.652344 96.105469 79.078125 98.207031 71.074219 Z M 98.207031 71.074219 "/>
</g>
</svg>
