<?xml version="1.0" encoding="UTF-8"?>
<svg xmlns="http://www.w3.org/2000/svg" xmlns:xlink="http://www.w3.org/1999/xlink" width="150px" height="150px" viewBox="0 0 150 150" version="1.1">
<g id="surface1">
<path style=" stroke:none;fill-rule:nonzero;fill:rgb(0%,0%,0%);fill-opacity:1;" d="M 2.683594 150.171875 C 0.847656 149.214844 0.289062 147.925781 0.910156 145.738281 C 2.074219 141.613281 3.226562 137.484375 4.414062 133.363281 C 5.714844 128.855469 6.96875 124.335938 8.234375 119.820312 C 9.007812 117.050781 9.753906 114.269531 10.546875 111.503906 C 10.695312 110.980469 10.492188 110.605469 10.273438 110.203125 C 8.164062 106.3125 6.382812 102.277344 5 98.070312 C 3.515625 93.546875 2.503906 88.921875 1.804688 84.203125 C 1.09375 79.394531 1.085938 74.578125 1.257812 69.761719 C 1.359375 66.949219 1.796875 64.136719 2.289062 61.347656 C 2.832031 58.25 3.5625 55.203125 4.5 52.210938 C 5.773438 48.164062 7.355469 44.230469 9.316406 40.457031 C 10.960938 37.300781 12.792969 34.257812 14.863281 31.363281 C 16.394531 29.21875 19.257812 29.417969 20.328125 31.796875 C 20.855469 32.964844 20.515625 34.089844 19.78125 35.125 C 17.167969 38.816406 14.941406 42.726562 13.109375 46.859375 C 11.539062 50.398438 10.332031 54.054688 9.34375 57.796875 C 7.515625 64.734375 7.015625 71.804688 7.375 78.921875 C 7.578125 82.996094 8.316406 87.023438 9.300781 91.007812 C 10.625 96.367188 12.601562 101.445312 15.140625 106.324219 C 15.542969 107.09375 15.929688 107.875 16.410156 108.59375 C 17.238281 109.832031 17.054688 111.089844 16.679688 112.414062 C 15.375 117.011719 14.117188 121.625 12.824219 126.226562 C 11.3125 131.605469 9.78125 136.980469 8.261719 142.355469 C 8.246094 142.402344 8.285156 142.464844 8.304688 142.546875 C 8.785156 142.851562 9.265625 142.550781 9.699219 142.4375 C 14.429688 141.1875 19.152344 139.910156 23.871094 138.621094 C 27.699219 137.574219 31.515625 136.492188 35.339844 135.441406 C 37.089844 134.957031 38.851562 134.515625 40.609375 134.058594 C 41.351562 133.863281 42.042969 134.027344 42.699219 134.375 C 46.40625 136.339844 50.21875 138.054688 54.210938 139.339844 C 56.648438 140.128906 59.117188 140.78125 61.625 141.324219 C 63.769531 141.792969 65.941406 142.027344 68.097656 142.390625 C 69.316406 142.59375 70.570312 142.671875 71.808594 142.6875 C 75.332031 142.742188 78.871094 142.871094 82.378906 142.449219 C 84.6875 142.167969 86.992188 141.828125 89.28125 141.34375 C 92.332031 140.699219 95.324219 139.886719 98.257812 138.855469 C 102.605469 137.332031 106.742188 135.363281 110.6875 132.996094 C 118.144531 128.519531 124.460938 122.78125 129.777344 115.910156 C 133.367188 111.269531 136.28125 106.222656 138.566406 100.828125 C 139.667969 98.230469 140.574219 95.558594 141.332031 92.828125 C 141.925781 90.6875 142.425781 88.535156 142.820312 86.351562 C 143.238281 84.023438 143.46875 81.675781 143.703125 79.324219 C 144.089844 75.445312 143.933594 71.578125 143.539062 67.722656 C 143.144531 63.828125 142.414062 59.992188 141.371094 56.203125 C 140.007812 51.25 138.109375 46.523438 135.667969 42.035156 C 131.75 34.832031 126.695312 28.507812 120.515625 23.097656 C 113.910156 17.316406 106.457031 12.972656 98.199219 10.050781 C 94.726562 8.824219 91.167969 7.878906 87.511719 7.273438 C 83.226562 6.566406 78.933594 6.066406 74.59375 6.164062 C 71.625 6.230469 68.664062 6.511719 65.710938 6.925781 C 59.851562 7.742188 54.230469 9.367188 48.792969 11.664062 C 44.628906 13.425781 40.699219 15.617188 36.96875 18.171875 C 36.308594 18.625 35.699219 19.164062 34.875 19.347656 C 33.257812 19.710938 31.902344 19.082031 31.226562 17.617188 C 30.636719 16.339844 31.105469 14.738281 32.339844 13.851562 C 36.867188 10.601562 41.703125 7.902344 46.835938 5.746094 C 50.636719 4.144531 54.558594 2.875 58.566406 1.9375 C 62.074219 1.113281 65.628906 0.507812 69.242188 0.324219 C 69.441406 0.316406 69.640625 0.265625 69.902344 0.203125 C 73.671875 0.171875 77.378906 0.171875 81.230469 0.207031 C 81.574219 0.269531 81.773438 0.320312 81.972656 0.332031 C 85.546875 0.550781 89.078125 1.109375 92.554688 1.9375 C 96.480469 2.875 100.320312 4.101562 104.054688 5.65625 C 110.746094 8.441406 116.898438 12.113281 122.507812 16.695312 C 131.335938 23.910156 138.21875 32.648438 143.050781 42.980469 C 145.574219 48.375 147.386719 54.003906 148.542969 59.863281 C 149.238281 63.382812 149.671875 66.917969 149.890625 70.484375 C 150.09375 73.808594 149.953125 77.121094 149.746094 80.445312 C 149.542969 83.65625 149.066406 86.808594 148.410156 89.9375 C 147.539062 94.085938 146.292969 98.125 144.734375 102.078125 C 142.066406 108.824219 138.457031 115.015625 133.957031 120.683594 C 127.546875 128.757812 119.785156 135.242188 110.703125 140.144531 C 105.988281 142.6875 101.050781 144.707031 95.894531 146.144531 C 93.046875 146.9375 90.148438 147.566406 87.210938 148.03125 C 85.070312 148.367188 82.910156 148.695312 80.769531 148.753906 C 76.617188 148.867188 72.457031 148.96875 68.292969 148.550781 C 63.507812 148.070312 58.828125 147.148438 54.230469 145.808594 C 49.789062 144.515625 45.515625 142.769531 41.410156 140.625 C 41.160156 140.496094 40.9375 140.355469 40.601562 140.449219 C 38.050781 141.160156 35.492188 141.851562 32.9375 142.539062 C 29.820312 143.378906 26.703125 144.203125 23.589844 145.042969 C 21.339844 145.648438 19.089844 146.257812 16.839844 146.871094 C 14.484375 147.515625 12.121094 148.148438 9.773438 148.828125 C 8.140625 149.296875 6.460938 149.582031 4.859375 150.171875 C 4.164062 150.171875 3.464844 150.171875 2.683594 150.171875 Z M 2.683594 150.171875 "/>
<path style=" stroke:none;fill-rule:nonzero;fill:rgb(0%,0%,0%);fill-opacity:1;" d="M 105.949219 129.394531 C 101.085938 132.050781 96.035156 134.023438 90.710938 135.367188 C 84.117188 137.027344 77.445312 137.496094 70.695312 137.003906 C 66.636719 136.710938 62.640625 135.984375 58.707031 134.886719 C 53.589844 133.464844 48.714844 131.464844 44.152344 128.761719 C 42.8125 127.96875 41.628906 127.988281 40.226562 128.394531 C 36.1875 129.566406 32.121094 130.644531 28.066406 131.753906 C 25.921875 132.335938 23.78125 132.910156 21.632812 133.472656 C 19.53125 134.023438 17.710938 132.882812 17.4375 130.753906 C 17.3125 129.773438 17.828125 128.851562 18.082031 127.917969 C 19.386719 123.113281 20.742188 118.324219 22.085938 113.53125 C 22.421875 112.339844 22.789062 111.160156 23.148438 109.976562 C 23.304688 109.457031 23.136719 109.027344 22.871094 108.585938 C 21.03125 105.511719 19.261719 102.394531 17.882812 99.078125 C 16.585938 95.960938 15.519531 92.773438 14.691406 89.496094 C 13.453125 84.597656 12.871094 79.625 12.894531 74.589844 C 12.914062 70.980469 13.117188 67.386719 13.773438 63.816406 C 14.246094 61.265625 14.804688 58.746094 15.535156 56.261719 C 17.050781 51.113281 19.234375 46.253906 22.046875 41.695312 C 26.441406 34.570312 32.054688 28.554688 38.808594 23.609375 C 43.59375 20.101562 48.804688 17.363281 54.378906 15.367188 C 57.378906 14.296875 60.46875 13.496094 63.625 12.910156 C 68.191406 12.058594 72.773438 11.660156 77.40625 11.78125 C 80.207031 11.855469 82.984375 12.148438 85.753906 12.589844 C 88.746094 13.0625 91.675781 13.757812 94.566406 14.671875 C 101.578125 16.894531 107.988281 20.257812 113.789062 24.765625 C 120.941406 30.320312 126.730469 37.050781 130.988281 45.0625 C 133.230469 49.277344 134.972656 53.691406 136.175781 58.320312 C 137.144531 62.035156 137.785156 65.800781 138.058594 69.636719 C 138.371094 73.972656 138.292969 78.28125 137.75 82.605469 C 136.546875 92.199219 133.1875 100.972656 127.949219 109.054688 C 126.496094 111.292969 123.570312 111.15625 122.414062 108.785156 C 121.898438 107.722656 122.113281 106.648438 122.765625 105.664062 C 123.996094 103.808594 125.097656 101.875 126.105469 99.890625 C 127.84375 96.460938 129.191406 92.882812 130.199219 89.167969 C 131.578125 84.097656 132.277344 78.929688 132.191406 73.691406 C 132.136719 70.355469 131.765625 67.027344 131.117188 63.726562 C 129.710938 56.554688 127.054688 49.910156 123.09375 43.785156 C 119.558594 38.320312 115.199219 33.601562 110.046875 29.621094 C 106.066406 26.550781 101.746094 24.054688 97.089844 22.148438 C 94.554688 21.113281 91.949219 20.289062 89.289062 19.605469 C 84.078125 18.265625 78.785156 17.722656 73.425781 17.929688 C 70.085938 18.058594 66.777344 18.492188 63.5 19.230469 C 58.488281 20.359375 53.703125 22.066406 49.171875 24.472656 C 41.378906 28.613281 34.890625 34.257812 29.714844 41.410156 C 26.785156 45.457031 24.40625 49.804688 22.648438 54.480469 C 21.199219 58.347656 20.160156 62.316406 19.578125 66.417969 C 19.003906 70.445312 18.800781 74.472656 19.101562 78.515625 C 19.765625 87.375 22.359375 95.644531 26.859375 103.308594 C 27.578125 104.527344 28.277344 105.761719 29.023438 106.964844 C 29.695312 108.058594 29.710938 109.1875 29.378906 110.378906 C 28.265625 114.371094 27.164062 118.371094 26.058594 122.367188 C 25.738281 123.523438 25.414062 124.679688 25.0625 125.9375 C 26.1875 126.023438 27.054688 125.5625 27.953125 125.359375 C 29.96875 124.898438 31.953125 124.285156 33.953125 123.738281 C 36.363281 123.078125 38.789062 122.460938 41.1875 121.753906 C 42.554688 121.351562 43.757812 121.515625 44.992188 122.222656 C 48.101562 123.996094 51.242188 125.722656 54.59375 127.019531 C 57.742188 128.238281 60.960938 129.179688 64.269531 129.875 C 69.074219 130.890625 73.929688 131.195312 78.816406 131 C 80.679688 130.925781 82.542969 130.625 84.394531 130.335938 C 88.675781 129.660156 92.828125 128.515625 96.84375 126.882812 C 100.175781 125.53125 103.339844 123.871094 106.347656 121.910156 C 107.335938 121.265625 108.359375 120.691406 109.585938 121.171875 C 110.703125 121.605469 111.480469 122.363281 111.679688 123.605469 C 111.90625 125.035156 111.324219 126.101562 110.15625 126.847656 C 108.792969 127.714844 107.390625 128.527344 105.949219 129.394531 Z M 105.949219 129.394531 "/>
<path style=" stroke:none;fill-rule:nonzero;fill:rgb(0%,0%,0%);fill-opacity:1;" d="M 111.882812 87.925781 C 113.882812 89.421875 114.777344 91.40625 114.796875 93.800781 C 114.820312 96.175781 114.792969 98.554688 113.917969 100.808594 C 111.859375 106.121094 107.972656 109.398438 102.5625 111.011719 C 98.367188 112.261719 94.113281 112.292969 89.871094 111.59375 C 86.003906 110.949219 82.285156 109.683594 78.667969 108.132812 C 70.25 104.515625 62.542969 99.8125 55.945312 93.40625 C 49.894531 87.535156 44.65625 81.011719 40.5625 73.613281 C 38.824219 70.476562 37.480469 67.160156 36.800781 63.625 C 36.273438 60.890625 36.25 58.144531 36.691406 55.363281 C 37.203125 52.101562 38.128906 49.023438 39.855469 46.195312 C 41.691406 43.1875 44.210938 40.96875 47.492188 39.664062 C 48.507812 39.257812 49.5625 38.949219 50.6875 39.023438 C 52.351562 39.128906 54.015625 38.867188 55.683594 39.324219 C 57.632812 39.859375 59.269531 40.820312 60.105469 42.648438 C 62.210938 47.265625 64.164062 51.949219 66.199219 56.597656 C 67.839844 60.332031 67.082031 63.5625 64.273438 66.429688 C 63.40625 67.316406 62.644531 68.308594 61.785156 69.203125 C 61.3125 69.695312 61.316406 70.074219 61.675781 70.632812 C 64.753906 75.433594 68.550781 79.558594 73.125 82.960938 C 76.050781 85.140625 79.042969 87.214844 82.441406 88.613281 C 82.8125 88.765625 83.214844 88.84375 83.582031 89.003906 C 84.191406 89.265625 84.625 89.085938 85.007812 88.578125 C 86.195312 87.011719 87.40625 85.460938 88.597656 83.894531 C 89.859375 82.242188 91.394531 80.957031 93.453125 80.457031 C 95.03125 80.070312 96.574219 80.382812 98.003906 81.0625 C 101.992188 82.96875 105.949219 84.933594 109.914062 86.882812 C 110.5625 87.203125 111.195312 87.550781 111.882812 87.925781 M 48.390625 46.046875 C 47.6875 46.460938 47.0625 46.972656 46.511719 47.574219 C 44.351562 49.941406 43.382812 52.859375 42.773438 55.914062 C 42.277344 58.402344 42.414062 60.878906 43.0625 63.355469 C 43.660156 65.660156 44.539062 67.84375 45.609375 69.957031 C 47.574219 73.84375 50.089844 77.371094 52.785156 80.777344 C 57.257812 86.4375 62.261719 91.539062 68.296875 95.5625 C 73.316406 98.90625 78.640625 101.65625 84.308594 103.726562 C 87.128906 104.753906 90.046875 105.464844 93.019531 105.792969 C 95.816406 106.101562 98.621094 105.828125 101.316406 104.941406 C 103.863281 104.109375 105.929688 102.628906 107.390625 100.3125 C 108.691406 98.246094 108.488281 95.945312 108.621094 93.6875 C 108.644531 93.226562 108.339844 92.914062 107.902344 92.699219 C 104.003906 90.804688 100.117188 88.886719 96.222656 86.988281 C 94.746094 86.269531 94.488281 86.332031 93.46875 87.644531 C 92.316406 89.132812 91.214844 90.65625 90.039062 92.125 C 89.15625 93.226562 88.277344 94.382812 86.882812 94.886719 C 84.726562 95.667969 82.613281 95.265625 80.550781 94.5 C 77.246094 93.269531 74.335938 91.328125 71.449219 89.351562 C 65.28125 85.125 60.230469 79.84375 56.199219 73.539062 C 54.691406 71.179688 54.671875 67.511719 56.996094 65.261719 C 58.175781 64.121094 59.207031 62.820312 60.304688 61.589844 C 60.734375 61.113281 60.90625 60.601562 60.773438 59.925781 C 60.539062 58.714844 59.953125 57.652344 59.476562 56.542969 C 57.96875 53.046875 56.425781 49.566406 54.90625 46.074219 C 54.75 45.710938 54.585938 45.398438 54.140625 45.347656 C 52.210938 45.113281 50.28125 44.863281 48.390625 46.046875 Z M 48.390625 46.046875 "/>
<path style=" stroke:none;fill-rule:nonzero;fill:rgb(0%,0%,0%);fill-opacity:1;" d="M 27.671875 25.714844 C 26.105469 27.890625 23.113281 27.214844 22.292969 25.28125 C 21.679688 23.835938 22.101562 22.296875 23.511719 21.367188 C 24.753906 20.546875 26.425781 20.804688 27.40625 21.972656 C 28.375 23.128906 28.417969 24.367188 27.671875 25.714844 Z M 27.671875 25.714844 "/>
<path style=" stroke:none;fill-rule:nonzero;fill:rgb(0%,0%,0%);fill-opacity:1;" d="M 115.097656 115.136719 C 116.238281 113.464844 117.90625 113.097656 119.476562 114.117188 C 120.832031 115.003906 121.214844 116.878906 120.332031 118.320312 C 119.507812 119.664062 117.8125 120.117188 116.335938 119.402344 C 115.15625 118.835938 114.113281 116.84375 114.859375 115.667969 C 114.949219 115.523438 114.996094 115.351562 115.097656 115.136719 Z M 115.097656 115.136719 "/>
</g>
</svg>
